<?xml version="1.0" encoding="UTF-8"?>
<!-- Do not edit this file with editors other than draw.io -->
<!DOCTYPE svg PUBLIC "-//W3C//DTD SVG 1.1//EN" "http://www.w3.org/Graphics/SVG/1.1/DTD/svg11.dtd">
<svg xmlns="http://www.w3.org/2000/svg" style="background: transparent; background-color: transparent; color-scheme: light dark;" xmlns:xlink="http://www.w3.org/1999/xlink" version="1.1" width="763px" height="392px" viewBox="0 0 763 392" content="&lt;mxfile host=&quot;Electron&quot;&gt;&#10;  &lt;diagram name=&quot;ページ-1&quot; id=&quot;dz9wratpxz4pcRpzG0q4&quot;&gt;&#10;    &lt;mxGraphModel dx=&quot;1798&quot; dy=&quot;1202&quot; grid=&quot;1&quot; gridSize=&quot;10&quot; guides=&quot;1&quot; tooltips=&quot;1&quot; connect=&quot;1&quot; arrows=&quot;1&quot; fold=&quot;1&quot; page=&quot;1&quot; pageScale=&quot;1&quot; pageWidth=&quot;827&quot; pageHeight=&quot;1169&quot; math=&quot;0&quot; shadow=&quot;0&quot;&gt;&#10;      &lt;root&gt;&#10;        &lt;mxCell id=&quot;0&quot; /&gt;&#10;        &lt;mxCell id=&quot;1&quot; parent=&quot;0&quot; /&gt;&#10;        &lt;mxCell id=&quot;SsyuM5CPjU2S2znVL6Bv-1&quot; parent=&quot;1&quot; style=&quot;verticalLabelPosition=bottom;html=1;verticalAlign=top;align=center;strokeColor=none;fillColor=#00BEF2;shape=mxgraph.azure.user;&quot; value=&quot;&quot; vertex=&quot;1&quot;&gt;&#10;          &lt;mxGeometry height=&quot;50&quot; width=&quot;47.5&quot; x=&quot;210&quot; y=&quot;360&quot; as=&quot;geometry&quot; /&gt;&#10;        &lt;/mxCell&gt;&#10;        &lt;mxCell id=&quot;SsyuM5CPjU2S2znVL6Bv-3&quot; parent=&quot;1&quot; style=&quot;dashed=0;outlineConnect=0;html=1;align=center;labelPosition=center;verticalLabelPosition=bottom;verticalAlign=top;shape=mxgraph.weblogos.github&quot; value=&quot;&quot; vertex=&quot;1&quot;&gt;&#10;          &lt;mxGeometry height=&quot;75&quot; width=&quot;75&quot; x=&quot;120&quot; y=&quot;230&quot; as=&quot;geometry&quot; /&gt;&#10;        &lt;/mxCell&gt;&#10;        &lt;mxCell id=&quot;SsyuM5CPjU2S2znVL6Bv-4&quot; parent=&quot;1&quot; style=&quot;verticalLabelPosition=bottom;html=1;verticalAlign=top;align=center;strokeColor=none;fillColor=#00BEF2;shape=mxgraph.azure.visual_studio_online;&quot; value=&quot;&quot; vertex=&quot;1&quot;&gt;&#10;          &lt;mxGeometry height=&quot;30&quot; width=&quot;40&quot; x=&quot;160.88&quot; y=&quot;280&quot; as=&quot;geometry&quot; /&gt;&#10;        &lt;/mxCell&gt;&#10;        &lt;mxCell id=&quot;SsyuM5CPjU2S2znVL6Bv-6&quot; parent=&quot;1&quot; style=&quot;sketch=0;outlineConnect=0;dashed=0;verticalLabelPosition=bottom;verticalAlign=top;align=center;html=1;fontSize=12;fontStyle=0;aspect=fixed;pointerEvents=1;shape=mxgraph.aws4.sagemaker_model;fillColor=light-dark(#a20025, #ffffff);strokeColor=#6F0000;fontColor=#ffffff;&quot; value=&quot;&quot; vertex=&quot;1&quot;&gt;&#10;          &lt;mxGeometry height=&quot;50&quot; width=&quot;50&quot; x=&quot;80&quot; y=&quot;366&quot; as=&quot;geometry&quot; /&gt;&#10;        &lt;/mxCell&gt;&#10;        &lt;mxCell id=&quot;SsyuM5CPjU2S2znVL6Bv-7&quot; parent=&quot;1&quot; style=&quot;sketch=0;points=[[0,0,0],[0.25,0,0],[0.5,0,0],[0.75,0,0],[1,0,0],[0,1,0],[0.25,1,0],[0.5,1,0],[0.75,1,0],[1,1,0],[0,0.25,0],[0,0.5,0],[0,0.75,0],[1,0.25,0],[1,0.5,0],[1,0.75,0]];outlineConnect=0;fontColor=#232F3E;fillColor=#ED7100;strokeColor=#ffffff;dashed=0;verticalLabelPosition=bottom;verticalAlign=top;align=center;html=1;fontSize=12;fontStyle=0;aspect=fixed;shape=mxgraph.aws4.resourceIcon;resIcon=mxgraph.aws4.ec2;&quot; value=&quot;&quot; vertex=&quot;1&quot;&gt;&#10;          &lt;mxGeometry height=&quot;62&quot; width=&quot;62&quot; x=&quot;330&quot; y=&quot;360&quot; as=&quot;geometry&quot; /&gt;&#10;        &lt;/mxCell&gt;&#10;        &lt;mxCell id=&quot;SsyuM5CPjU2S2znVL6Bv-8&quot; parent=&quot;1&quot; style=&quot;sketch=0;outlineConnect=0;fontColor=#000000;fillColor=#fa6800;strokeColor=#C73500;dashed=0;verticalLabelPosition=bottom;verticalAlign=top;align=center;html=1;fontSize=12;fontStyle=0;aspect=fixed;pointerEvents=1;shape=mxgraph.aws4.sagemaker_model;&quot; value=&quot;&quot; vertex=&quot;1&quot;&gt;&#10;          &lt;mxGeometry height=&quot;50&quot; width=&quot;50&quot; x=&quot;290&quot; y=&quot;242.5&quot; as=&quot;geometry&quot; /&gt;&#10;        &lt;/mxCell&gt;&#10;        &lt;mxCell id=&quot;SsyuM5CPjU2S2znVL6Bv-9&quot; parent=&quot;1&quot; style=&quot;outlineConnect=0;dashed=0;verticalLabelPosition=bottom;verticalAlign=top;align=center;html=1;shape=mxgraph.aws3.hardware_board;fillColor=#5294CF;gradientColor=none;&quot; value=&quot;&quot; vertex=&quot;1&quot;&gt;&#10;          &lt;mxGeometry height=&quot;60&quot; width=&quot;49.12&quot; x=&quot;160.88&quot; y=&quot;490&quot; as=&quot;geometry&quot; /&gt;&#10;        &lt;/mxCell&gt;&#10;        &lt;mxCell id=&quot;SsyuM5CPjU2S2znVL6Bv-10&quot; parent=&quot;1&quot; style=&quot;sketch=0;outlineConnect=0;fontColor=#ffffff;fillColor=#0050ef;strokeColor=#001DBC;dashed=0;verticalLabelPosition=bottom;verticalAlign=top;align=center;html=1;fontSize=12;fontStyle=0;aspect=fixed;pointerEvents=1;shape=mxgraph.aws4.sagemaker_model;&quot; value=&quot;&quot; vertex=&quot;1&quot;&gt;&#10;          &lt;mxGeometry height=&quot;50&quot; width=&quot;50&quot; x=&quot;270&quot; y=&quot;495&quot; as=&quot;geometry&quot; /&gt;&#10;        &lt;/mxCell&gt;&#10;        &lt;mxCell id=&quot;SsyuM5CPjU2S2znVL6Bv-12&quot; edge=&quot;1&quot; parent=&quot;1&quot; source=&quot;SsyuM5CPjU2S2znVL6Bv-9&quot; style=&quot;endArrow=classic;startArrow=classic;html=1;rounded=0;exitX=0.5;exitY=0;exitDx=0;exitDy=0;exitPerimeter=0;&quot; value=&quot;&quot;&gt;&#10;          &lt;mxGeometry height=&quot;50&quot; relative=&quot;1&quot; width=&quot;50&quot; as=&quot;geometry&quot;&gt;&#10;            &lt;mxPoint x=&quot;199.13&quot; y=&quot;480&quot; as=&quot;sourcePoint&quot; /&gt;&#10;            &lt;mxPoint x=&quot;220&quot; y=&quot;420&quot; as=&quot;targetPoint&quot; /&gt;&#10;          &lt;/mxGeometry&gt;&#10;        &lt;/mxCell&gt;&#10;        &lt;mxCell id=&quot;SsyuM5CPjU2S2znVL6Bv-13&quot; edge=&quot;1&quot; parent=&quot;1&quot; source=&quot;SsyuM5CPjU2S2znVL6Bv-10&quot; style=&quot;endArrow=classic;startArrow=classic;html=1;rounded=0;&quot; value=&quot;&quot;&gt;&#10;          &lt;mxGeometry height=&quot;50&quot; relative=&quot;1&quot; width=&quot;50&quot; as=&quot;geometry&quot;&gt;&#10;            &lt;mxPoint x=&quot;210&quot; y=&quot;500&quot; as=&quot;sourcePoint&quot; /&gt;&#10;            &lt;mxPoint x=&quot;250&quot; y=&quot;420&quot; as=&quot;targetPoint&quot; /&gt;&#10;          &lt;/mxGeometry&gt;&#10;        &lt;/mxCell&gt;&#10;        &lt;mxCell id=&quot;SsyuM5CPjU2S2znVL6Bv-14&quot; edge=&quot;1&quot; parent=&quot;1&quot; source=&quot;SsyuM5CPjU2S2znVL6Bv-10&quot; style=&quot;endArrow=classic;startArrow=classic;html=1;rounded=0;entryX=1;entryY=0.5;entryDx=0;entryDy=0;entryPerimeter=0;&quot; target=&quot;SsyuM5CPjU2S2znVL6Bv-9&quot; value=&quot;&quot;&gt;&#10;          &lt;mxGeometry height=&quot;50&quot; relative=&quot;1&quot; width=&quot;50&quot; as=&quot;geometry&quot;&gt;&#10;            &lt;mxPoint x=&quot;393&quot; y=&quot;660&quot; as=&quot;sourcePoint&quot; /&gt;&#10;            &lt;mxPoint x=&quot;360&quot; y=&quot;590&quot; as=&quot;targetPoint&quot; /&gt;&#10;          &lt;/mxGeometry&gt;&#10;        &lt;/mxCell&gt;&#10;        &lt;mxCell id=&quot;SsyuM5CPjU2S2znVL6Bv-15&quot; edge=&quot;1&quot; parent=&quot;1&quot; source=&quot;SsyuM5CPjU2S2znVL6Bv-7&quot; style=&quot;endArrow=classic;startArrow=classic;html=1;rounded=0;&quot; value=&quot;&quot;&gt;&#10;          &lt;mxGeometry height=&quot;50&quot; relative=&quot;1&quot; width=&quot;50&quot; as=&quot;geometry&quot;&gt;&#10;            &lt;mxPoint x=&quot;334&quot; y=&quot;465&quot; as=&quot;sourcePoint&quot; /&gt;&#10;            &lt;mxPoint x=&quot;270&quot; y=&quot;390&quot; as=&quot;targetPoint&quot; /&gt;&#10;          &lt;/mxGeometry&gt;&#10;        &lt;/mxCell&gt;&#10;        &lt;mxCell id=&quot;SsyuM5CPjU2S2znVL6Bv-16&quot; edge=&quot;1&quot; parent=&quot;1&quot; source=&quot;SsyuM5CPjU2S2znVL6Bv-7&quot; style=&quot;endArrow=classic;startArrow=classic;html=1;rounded=0;exitX=0.5;exitY=0;exitDx=0;exitDy=0;exitPerimeter=0;&quot; target=&quot;SsyuM5CPjU2S2znVL6Bv-8&quot; value=&quot;&quot;&gt;&#10;          &lt;mxGeometry height=&quot;50&quot; relative=&quot;1&quot; width=&quot;50&quot; as=&quot;geometry&quot;&gt;&#10;            &lt;mxPoint x=&quot;320&quot; y=&quot;330&quot; as=&quot;sourcePoint&quot; /&gt;&#10;            &lt;mxPoint x=&quot;250&quot; y=&quot;333&quot; as=&quot;targetPoint&quot; /&gt;&#10;          &lt;/mxGeometry&gt;&#10;        &lt;/mxCell&gt;&#10;        &lt;mxCell id=&quot;SsyuM5CPjU2S2znVL6Bv-17&quot; edge=&quot;1&quot; parent=&quot;1&quot; source=&quot;SsyuM5CPjU2S2znVL6Bv-8&quot; style=&quot;endArrow=classic;startArrow=classic;html=1;rounded=0;&quot; value=&quot;&quot;&gt;&#10;          &lt;mxGeometry height=&quot;50&quot; relative=&quot;1&quot; width=&quot;50&quot; as=&quot;geometry&quot;&gt;&#10;            &lt;mxPoint x=&quot;327.5&quot; y=&quot;360&quot; as=&quot;sourcePoint&quot; /&gt;&#10;            &lt;mxPoint x=&quot;260&quot; y=&quot;360&quot; as=&quot;targetPoint&quot; /&gt;&#10;          &lt;/mxGeometry&gt;&#10;        &lt;/mxCell&gt;&#10;        &lt;mxCell id=&quot;SsyuM5CPjU2S2znVL6Bv-18&quot; edge=&quot;1&quot; parent=&quot;1&quot; source=&quot;SsyuM5CPjU2S2znVL6Bv-6&quot; style=&quot;endArrow=classic;startArrow=classic;html=1;rounded=0;entryX=0.14;entryY=0.65;entryDx=0;entryDy=0;entryPerimeter=0;&quot; target=&quot;SsyuM5CPjU2S2znVL6Bv-1&quot; value=&quot;&quot;&gt;&#10;          &lt;mxGeometry height=&quot;50&quot; relative=&quot;1&quot; width=&quot;50&quot; as=&quot;geometry&quot;&gt;&#10;            &lt;mxPoint x=&quot;330&quot; y=&quot;330&quot; as=&quot;sourcePoint&quot; /&gt;&#10;            &lt;mxPoint x=&quot;290&quot; y=&quot;397&quot; as=&quot;targetPoint&quot; /&gt;&#10;          &lt;/mxGeometry&gt;&#10;        &lt;/mxCell&gt;&#10;        &lt;mxCell id=&quot;SsyuM5CPjU2S2znVL6Bv-19&quot; edge=&quot;1&quot; parent=&quot;1&quot; style=&quot;endArrow=classic;startArrow=classic;html=1;rounded=0;&quot; target=&quot;SsyuM5CPjU2S2znVL6Bv-3&quot; value=&quot;&quot;&gt;&#10;          &lt;mxGeometry height=&quot;50&quot; relative=&quot;1&quot; width=&quot;50&quot; as=&quot;geometry&quot;&gt;&#10;            &lt;mxPoint x=&quot;95&quot; y=&quot;360&quot; as=&quot;sourcePoint&quot; /&gt;&#10;            &lt;mxPoint x=&quot;267&quot; y=&quot;392&quot; as=&quot;targetPoint&quot; /&gt;&#10;          &lt;/mxGeometry&gt;&#10;        &lt;/mxCell&gt;&#10;        &lt;mxCell id=&quot;SsyuM5CPjU2S2znVL6Bv-20&quot; edge=&quot;1&quot; parent=&quot;1&quot; source=&quot;SsyuM5CPjU2S2znVL6Bv-1&quot; style=&quot;endArrow=classic;startArrow=classic;html=1;rounded=0;entryX=0.755;entryY=1;entryDx=0;entryDy=0;entryPerimeter=0;&quot; target=&quot;SsyuM5CPjU2S2znVL6Bv-4&quot; value=&quot;&quot;&gt;&#10;          &lt;mxGeometry height=&quot;50&quot; relative=&quot;1&quot; width=&quot;50&quot; as=&quot;geometry&quot;&gt;&#10;            &lt;mxPoint x=&quot;120&quot; y=&quot;405&quot; as=&quot;sourcePoint&quot; /&gt;&#10;            &lt;mxPoint x=&quot;151&quot; y=&quot;350&quot; as=&quot;targetPoint&quot; /&gt;&#10;          &lt;/mxGeometry&gt;&#10;        &lt;/mxCell&gt;&#10;        &lt;mxCell id=&quot;SsyuM5CPjU2S2znVL6Bv-24&quot; parent=&quot;1&quot; style=&quot;dashed=0;outlineConnect=0;html=1;align=center;labelPosition=center;verticalLabelPosition=bottom;verticalAlign=top;shape=mxgraph.weblogos.github&quot; value=&quot;&quot; vertex=&quot;1&quot;&gt;&#10;          &lt;mxGeometry height=&quot;75&quot; width=&quot;75&quot; x=&quot;570&quot; y=&quot;231&quot; as=&quot;geometry&quot; /&gt;&#10;        &lt;/mxCell&gt;&#10;        &lt;mxCell id=&quot;SsyuM5CPjU2S2znVL6Bv-25&quot; parent=&quot;1&quot; style=&quot;verticalLabelPosition=bottom;html=1;verticalAlign=top;align=center;strokeColor=none;fillColor=#00BEF2;shape=mxgraph.azure.visual_studio_online;&quot; value=&quot;&quot; vertex=&quot;1&quot;&gt;&#10;          &lt;mxGeometry height=&quot;30&quot; width=&quot;40&quot; x=&quot;610.88&quot; y=&quot;281&quot; as=&quot;geometry&quot; /&gt;&#10;        &lt;/mxCell&gt;&#10;        &lt;mxCell id=&quot;SsyuM5CPjU2S2znVL6Bv-27&quot; parent=&quot;1&quot; style=&quot;sketch=0;points=[[0,0,0],[0.25,0,0],[0.5,0,0],[0.75,0,0],[1,0,0],[0,1,0],[0.25,1,0],[0.5,1,0],[0.75,1,0],[1,1,0],[0,0.25,0],[0,0.5,0],[0,0.75,0],[1,0.25,0],[1,0.5,0],[1,0.75,0]];outlineConnect=0;fontColor=#232F3E;fillColor=#ED7100;strokeColor=#ffffff;dashed=0;verticalLabelPosition=bottom;verticalAlign=top;align=center;html=1;fontSize=12;fontStyle=0;aspect=fixed;shape=mxgraph.aws4.resourceIcon;resIcon=mxgraph.aws4.ec2;&quot; value=&quot;&quot; vertex=&quot;1&quot;&gt;&#10;          &lt;mxGeometry height=&quot;62&quot; width=&quot;62&quot; x=&quot;780&quot; y=&quot;361&quot; as=&quot;geometry&quot; /&gt;&#10;        &lt;/mxCell&gt;&#10;        &lt;mxCell id=&quot;SsyuM5CPjU2S2znVL6Bv-29&quot; parent=&quot;1&quot; style=&quot;outlineConnect=0;dashed=0;verticalLabelPosition=bottom;verticalAlign=top;align=center;html=1;shape=mxgraph.aws3.hardware_board;fillColor=#5294CF;gradientColor=none;&quot; value=&quot;&quot; vertex=&quot;1&quot;&gt;&#10;          &lt;mxGeometry height=&quot;60&quot; width=&quot;49.12&quot; x=&quot;610.88&quot; y=&quot;491&quot; as=&quot;geometry&quot; /&gt;&#10;        &lt;/mxCell&gt;&#10;        &lt;mxCell id=&quot;SsyuM5CPjU2S2znVL6Bv-31&quot; edge=&quot;1&quot; parent=&quot;1&quot; source=&quot;SsyuM5CPjU2S2znVL6Bv-29&quot; style=&quot;endArrow=classic;startArrow=classic;html=1;rounded=0;exitX=0.5;exitY=0;exitDx=0;exitDy=0;exitPerimeter=0;&quot; value=&quot;&quot;&gt;&#10;          &lt;mxGeometry height=&quot;50&quot; relative=&quot;1&quot; width=&quot;50&quot; as=&quot;geometry&quot;&gt;&#10;            &lt;mxPoint x=&quot;649.13&quot; y=&quot;481&quot; as=&quot;sourcePoint&quot; /&gt;&#10;            &lt;mxPoint x=&quot;670&quot; y=&quot;421&quot; as=&quot;targetPoint&quot; /&gt;&#10;          &lt;/mxGeometry&gt;&#10;        &lt;/mxCell&gt;&#10;        &lt;mxCell id=&quot;SsyuM5CPjU2S2znVL6Bv-34&quot; edge=&quot;1&quot; parent=&quot;1&quot; source=&quot;SsyuM5CPjU2S2znVL6Bv-27&quot; style=&quot;endArrow=classic;startArrow=classic;html=1;rounded=0;&quot; value=&quot;&quot;&gt;&#10;          &lt;mxGeometry height=&quot;50&quot; relative=&quot;1&quot; width=&quot;50&quot; as=&quot;geometry&quot;&gt;&#10;            &lt;mxPoint x=&quot;784&quot; y=&quot;466&quot; as=&quot;sourcePoint&quot; /&gt;&#10;            &lt;mxPoint x=&quot;720&quot; y=&quot;391&quot; as=&quot;targetPoint&quot; /&gt;&#10;          &lt;/mxGeometry&gt;&#10;        &lt;/mxCell&gt;&#10;        &lt;mxCell id=&quot;SsyuM5CPjU2S2znVL6Bv-39&quot; edge=&quot;1&quot; parent=&quot;1&quot; style=&quot;endArrow=classic;startArrow=classic;html=1;rounded=0;entryX=0.755;entryY=1;entryDx=0;entryDy=0;entryPerimeter=0;&quot; target=&quot;SsyuM5CPjU2S2znVL6Bv-25&quot; value=&quot;&quot;&gt;&#10;          &lt;mxGeometry height=&quot;50&quot; relative=&quot;1&quot; width=&quot;50&quot; as=&quot;geometry&quot;&gt;&#10;            &lt;mxPoint x=&quot;669.5266666666666&quot; y=&quot;361&quot; as=&quot;sourcePoint&quot; /&gt;&#10;            &lt;mxPoint x=&quot;601&quot; y=&quot;351&quot; as=&quot;targetPoint&quot; /&gt;&#10;          &lt;/mxGeometry&gt;&#10;        &lt;/mxCell&gt;&#10;        &lt;mxCell id=&quot;SsyuM5CPjU2S2znVL6Bv-40&quot; parent=&quot;1&quot; style=&quot;verticalLabelPosition=bottom;html=1;verticalAlign=top;align=center;strokeColor=none;fillColor=#00BEF2;shape=mxgraph.azure.user;&quot; value=&quot;&quot; vertex=&quot;1&quot;&gt;&#10;          &lt;mxGeometry height=&quot;50&quot; width=&quot;47.5&quot; x=&quot;522.5&quot; y=&quot;360&quot; as=&quot;geometry&quot; /&gt;&#10;        &lt;/mxCell&gt;&#10;        &lt;mxCell id=&quot;SsyuM5CPjU2S2znVL6Bv-42&quot; parent=&quot;1&quot; style=&quot;sketch=0;outlineConnect=0;dashed=0;verticalLabelPosition=bottom;verticalAlign=top;align=center;html=1;fontSize=12;fontStyle=0;aspect=fixed;pointerEvents=1;shape=mxgraph.aws4.sagemaker_model;fillColor=light-dark(#a20025, #ffffff);strokeColor=#6F0000;fontColor=#ffffff;&quot; value=&quot;&quot; vertex=&quot;1&quot;&gt;&#10;          &lt;mxGeometry height=&quot;50&quot; width=&quot;50&quot; x=&quot;667.5&quot; y=&quot;361&quot; as=&quot;geometry&quot; /&gt;&#10;        &lt;/mxCell&gt;&#10;        &lt;mxCell id=&quot;SsyuM5CPjU2S2znVL6Bv-43&quot; edge=&quot;1&quot; parent=&quot;1&quot; source=&quot;SsyuM5CPjU2S2znVL6Bv-40&quot; style=&quot;endArrow=classic;startArrow=classic;html=1;rounded=0;&quot; target=&quot;SsyuM5CPjU2S2znVL6Bv-42&quot; value=&quot;&quot;&gt;&#10;          &lt;mxGeometry height=&quot;50&quot; relative=&quot;1&quot; width=&quot;50&quot; as=&quot;geometry&quot;&gt;&#10;            &lt;mxPoint x=&quot;830&quot; y=&quot;471&quot; as=&quot;sourcePoint&quot; /&gt;&#10;            &lt;mxPoint x=&quot;770&quot; y=&quot;470&quot; as=&quot;targetPoint&quot; /&gt;&#10;          &lt;/mxGeometry&gt;&#10;        &lt;/mxCell&gt;&#10;        &lt;mxCell id=&quot;SsyuM5CPjU2S2znVL6Bv-44&quot; parent=&quot;1&quot; style=&quot;shape=ext;double=1;rounded=0;whiteSpace=wrap;html=1;strokeColor=none;fontSize=22;fontFamily=Verdana;&quot; value=&quot;Before&quot; vertex=&quot;1&quot;&gt;&#10;          &lt;mxGeometry height=&quot;40&quot; width=&quot;120&quot; x=&quot;180&quot; y=&quot;160&quot; as=&quot;geometry&quot; /&gt;&#10;        &lt;/mxCell&gt;&#10;        &lt;mxCell id=&quot;SsyuM5CPjU2S2znVL6Bv-45&quot; parent=&quot;1&quot; style=&quot;shape=ext;double=1;rounded=0;whiteSpace=wrap;html=1;strokeColor=none;fontSize=22;fontFamily=Verdana;&quot; value=&quot;After&quot; vertex=&quot;1&quot;&gt;&#10;          &lt;mxGeometry height=&quot;40&quot; width=&quot;120&quot; x=&quot;632.5&quot; y=&quot;160&quot; as=&quot;geometry&quot; /&gt;&#10;        &lt;/mxCell&gt;&#10;      &lt;/root&gt;&#10;    &lt;/mxGraphModel&gt;&#10;  &lt;/diagram&gt;&#10;&lt;/mxfile&gt;&#10;"><defs/><g><g data-cell-id="0"><g data-cell-id="1"><g data-cell-id="SsyuM5CPjU2S2znVL6Bv-1"><g transform="translate(0.5,0.5)"><path d="M 143.58 214.39 C 143.51 210.61 144.78 206.96 147.11 204.25 C 149.44 201.55 152.63 200.01 155.96 200 C 163.4 200.08 169.47 206.48 169.74 214.54 C 170.02 218.24 168.9 221.91 166.63 224.69 C 164.37 227.46 161.16 229.1 157.75 229.23 C 150.22 229.39 143.94 222.81 143.58 214.39 Z M 130 250 C 130.3 242.97 132.91 236.42 137.21 231.94 C 140.62 228.56 145.37 228.36 148.95 231.44 C 151 232.95 153.24 234.17 155.62 235.06 C 158.06 236.12 160.74 235.94 163.08 234.56 C 164.36 233.94 165.5 233.04 166.41 231.94 C 167.31 230.86 168.88 230.64 170.04 231.44 C 172.09 232.81 173.92 235.24 175.36 238.48 C 176.75 242.16 177.48 246.05 177.5 249.99 Z" fill="#00bef2" stroke="none" pointer-events="all" style="fill: light-dark(rgb(0, 190, 242), rgb(0, 137, 182));"/></g></g><g data-cell-id="SsyuM5CPjU2S2znVL6Bv-3"><g transform="translate(0.5,0.5)"><path d="M 77.59 145 C 55.47 145 40 126.97 40 107.79 C 40 84.85 58.47 70 77.87 70 C 96.56 70 115 85.33 115 107.49 C 115 127.34 99.21 145 77.59 145 Z" fill="#0d2636" stroke="none" pointer-events="all" style="fill: light-dark(rgb(13, 38, 54), rgb(189, 211, 224));"/><path d="M 69.48 136.79 C 69.48 138.41 68.25 139.08 66.41 138.45 C 55.31 134.56 44.64 122.55 44.64 107.55 C 44.64 87.26 62 74.47 77.04 74.47 C 96.56 74.47 110.45 90.47 110.45 107.35 C 110.45 121.29 101.48 134.12 88.04 138.62 C 86.52 139.02 85.58 138.21 85.58 136.88 L 85.58 127.11 C 85.58 125.22 84.81 123.21 83.39 121.81 C 88.85 121.19 92.16 119.82 94.69 117.21 C 97.18 114.74 98.3 111.11 98.51 106.63 C 98.64 103.07 97.7 99.6 95.12 96.95 C 96.01 94.77 96.17 91.87 94.81 88.29 C 92.11 88.08 89.03 89.7 85.88 91.65 C 80.34 90.21 74.8 90.02 69.27 91.73 C 66.79 90.12 64.54 88.31 60.25 88.29 C 59.12 91.45 58.94 94.34 59.91 96.9 C 56.85 100.3 56.5 103.64 56.55 106.97 C 56.89 113.39 59.24 116.64 61.85 118.58 C 64.02 120.19 67.06 121.2 71.69 121.88 C 70.45 123.11 69.75 124.58 69.63 126.29 C 66.91 127.54 63.01 128.16 60.34 124.38 C 59.15 122.48 57.53 120.34 54.44 120.35 C 53.94 120.33 53.44 120.53 53.36 120.75 C 53.3 120.99 53.58 121.49 53.92 121.69 C 56.62 123.4 57.06 124.37 58.16 126.72 C 59.19 129.46 60.96 130.52 62.88 131.26 C 64.84 131.95 68.02 131.76 69.48 131.26 Z" fill="#ffffff" stroke="none" pointer-events="all" style="fill: light-dark(rgb(255, 255, 255), rgb(18, 18, 18));"/></g></g><g data-cell-id="SsyuM5CPjU2S2znVL6Bv-4"><g transform="translate(0.5,0.5)"><path d="M 80.88 127.6 L 84.74 126.16 L 94.89 132.33 L 111.13 120 L 120.88 123.08 L 120.88 146.92 L 111.13 150 L 94.89 138.08 L 84.53 144.04 L 80.88 142.4 Z M 84.53 130.27 L 84.53 139.73 L 91.03 135.21 Z M 100.37 135.21 L 111.13 141.37 L 111.13 128.63 Z" fill="#00bef2" stroke="none" pointer-events="all" style="fill: light-dark(rgb(0, 190, 242), rgb(0, 137, 182));"/></g></g><g data-cell-id="SsyuM5CPjU2S2znVL6Bv-6"><g transform="translate(0.5,0.5)"><rect x="0" y="206" width="50" height="50" fill="none" stroke="none" pointer-events="all"/><path d="M 31.76 237.49 C 31.76 238.04 31.32 238.49 30.77 238.49 C 30.22 238.49 29.77 238.04 29.77 237.49 C 29.77 236.95 30.22 236.5 30.77 236.5 C 31.32 236.5 31.76 236.95 31.76 237.49 Z M 35.02 217.23 C 34.47 217.23 34.02 216.79 34.02 216.24 C 34.02 215.69 34.47 215.24 35.02 215.24 C 35.57 215.24 36.02 215.69 36.02 216.24 C 36.02 216.79 35.57 217.23 35.02 217.23 Z M 31.16 227.17 C 31.16 227.72 30.71 228.16 30.16 228.16 C 29.61 228.16 29.17 227.72 29.17 227.17 C 29.17 226.62 29.61 226.17 30.16 226.17 C 30.71 226.17 31.16 226.62 31.16 227.17 Z M 36.45 244.78 C 36.45 244.23 36.9 243.79 37.45 243.79 C 38 243.79 38.45 244.23 38.45 244.78 C 38.45 245.33 38 245.78 37.45 245.78 C 36.9 245.78 36.45 245.33 36.45 244.78 Z M 41.45 239.16 C 41.09 239.36 40.87 239.73 40.87 240.14 L 40.87 247.13 L 32.81 251.9 L 32.81 246.22 L 34.54 246.22 C 35.07 247.29 36.17 248.04 37.45 248.04 C 39.24 248.04 40.7 246.58 40.7 244.78 C 40.7 242.99 39.24 241.53 37.45 241.53 C 35.94 241.53 34.68 242.56 34.31 243.96 L 31.68 243.96 C 31.06 243.96 30.55 244.46 30.55 245.09 L 30.55 253.24 L 30.09 253.51 L 26.13 251.21 L 26.13 221.92 L 29.34 221.92 L 29.34 224.03 C 27.94 224.4 26.91 225.66 26.91 227.17 C 26.91 228.96 28.37 230.42 30.16 230.42 C 31.96 230.42 33.42 228.96 33.42 227.17 C 33.42 225.89 32.67 224.79 31.6 224.26 L 31.6 221.92 L 35.32 221.92 C 35.95 221.92 36.45 221.42 36.45 220.79 L 36.45 219.15 C 37.53 218.61 38.28 217.52 38.28 216.24 C 38.28 214.44 36.82 212.98 35.02 212.98 C 33.23 212.98 31.76 214.44 31.76 216.24 C 31.76 217.75 32.8 219.01 34.19 219.37 L 34.19 219.66 L 26.13 219.66 L 26.13 211.48 L 31.1 208.51 L 41.48 214.84 L 41.48 221.8 C 41.48 222.21 41.7 222.58 42.05 222.78 L 47.55 225.9 L 47.56 229.38 L 37.15 229.38 C 36.52 229.38 36.02 229.89 36.02 230.51 L 36.02 236.06 L 33.68 236.06 C 33.15 234.99 32.05 234.24 30.77 234.24 C 28.97 234.24 27.51 235.7 27.51 237.49 C 27.51 239.29 28.97 240.75 30.77 240.75 C 32.28 240.75 33.54 239.71 33.91 238.32 L 37.15 238.32 C 37.77 238.32 38.28 237.81 38.28 237.19 L 38.28 231.64 L 47.56 231.64 L 47.56 235.72 Z M 17.41 235.89 C 17.96 235.89 18.4 236.34 18.4 236.89 C 18.4 237.44 17.96 237.88 17.41 237.88 C 16.86 237.88 16.41 237.44 16.41 236.89 C 16.41 236.34 16.86 235.89 17.41 235.89 Z M 15.81 218.06 C 15.81 217.51 16.25 217.06 16.8 217.06 C 17.35 217.06 17.8 217.51 17.8 218.06 C 17.8 218.61 17.35 219.06 16.8 219.06 C 16.25 219.06 15.81 218.61 15.81 218.06 Z M 11.72 227.17 C 11.72 227.72 11.28 228.16 10.73 228.16 C 10.18 228.16 9.73 227.72 9.73 227.17 C 9.73 226.62 10.18 226.17 10.73 226.17 C 11.28 226.17 11.72 226.62 11.72 227.17 Z M 17.63 246.6 C 17.63 246.05 18.07 245.61 18.62 245.61 C 19.17 245.61 19.62 246.05 19.62 246.6 C 19.62 247.15 19.17 247.6 18.62 247.6 C 18.07 247.6 17.63 247.15 17.63 246.6 Z M 19.29 253.5 L 8.52 247.13 L 8.52 240.14 C 8.52 239.73 8.29 239.35 7.93 239.15 L 7.53 238.93 L 10.51 238.93 L 10.51 246.91 C 10.51 247.53 11.01 248.04 11.64 248.04 L 15.71 248.04 C 16.25 249.11 17.34 249.86 18.62 249.86 C 20.42 249.86 21.88 248.4 21.88 246.6 C 21.88 244.81 20.42 243.35 18.62 243.35 C 17.12 243.35 15.86 244.38 15.49 245.78 L 12.77 245.78 L 12.77 237.8 C 12.77 237.17 12.26 236.67 11.64 236.67 L 3.42 236.67 L 2.45 236.13 L 2.44 225.9 L 7.94 222.78 C 8.3 222.58 8.52 222.21 8.52 221.8 L 8.52 218.88 L 9.9 218.88 L 9.9 224.03 C 8.51 224.4 7.47 225.66 7.47 227.17 C 7.47 228.96 8.93 230.42 10.73 230.42 C 12.52 230.42 13.98 228.96 13.98 227.17 C 13.98 225.89 13.24 224.79 12.16 224.26 L 12.16 218.88 L 13.67 218.88 C 14.03 220.28 15.29 221.32 16.8 221.32 C 18.6 221.32 20.06 219.85 20.06 218.06 C 20.06 216.27 18.6 214.8 16.8 214.8 C 15.52 214.8 14.43 215.55 13.89 216.63 L 8.52 216.63 L 8.52 214.83 L 18.9 208.51 L 23.87 211.48 L 23.87 224.52 L 17.1 224.52 C 16.48 224.52 15.97 225.03 15.97 225.65 L 15.97 233.98 C 14.9 234.51 14.15 235.61 14.15 236.89 C 14.15 238.68 15.61 240.14 17.41 240.14 C 19.2 240.14 20.66 238.68 20.66 236.89 C 20.66 235.38 19.63 234.12 18.23 233.75 L 18.23 226.78 L 23.87 226.78 L 23.87 250.78 Z M 49.81 225.24 C 49.81 224.84 49.6 224.46 49.24 224.26 L 43.74 221.14 L 43.74 214.2 C 43.74 213.81 43.54 213.44 43.2 213.24 L 31.69 206.22 C 31.33 206 30.88 206 30.52 206.22 L 25 209.52 L 19.48 206.22 C 19.11 206 18.66 206 18.31 206.22 L 6.8 213.24 C 6.46 213.44 6.26 213.81 6.26 214.2 L 6.26 221.14 L 0.76 224.26 C 0.4 224.46 0.18 224.84 0.18 225.24 L 0.19 236.8 C 0.19 237.21 0.41 237.59 0.77 237.79 L 6.26 240.81 L 6.26 247.78 C 6.26 248.18 6.47 248.55 6.81 248.75 L 18.72 255.79 C 19.07 256 19.51 256 19.87 255.79 L 24.63 252.96 L 29.53 255.8 C 29.71 255.9 29.9 255.95 30.1 255.95 C 30.3 255.95 30.5 255.89 30.67 255.79 L 42.58 248.75 C 42.92 248.55 43.13 248.18 43.13 247.78 L 43.13 240.8 L 49.24 237.36 C 49.6 237.16 49.82 236.79 49.82 236.38 Z" fill="#a20025" stroke="none" pointer-events="all" style="fill: light-dark(rgb(162, 0, 37), rgb(255, 255, 255));"/></g></g><g data-cell-id="SsyuM5CPjU2S2znVL6Bv-7"><g transform="translate(0.5,0.5)"><path d="M 250 200 L 312 200 L 312 262 L 250 262 Z" fill="#ed7100" stroke="none" pointer-events="all" style="fill: light-dark(rgb(237, 113, 0), rgb(216, 109, 12));"/><path d="M 269.49 242.51 L 291.63 242.51 L 291.63 220.37 L 269.49 220.37 Z M 293.4 220.37 L 296.94 220.37 L 296.94 222.14 L 293.4 222.14 L 293.4 225.69 L 296.94 225.69 L 296.94 227.46 L 293.4 227.46 L 293.4 230.11 L 296.94 230.11 L 296.94 231.89 L 293.4 231.89 L 293.4 235.43 L 296.94 235.43 L 296.94 237.2 L 293.4 237.2 L 293.4 240.74 L 296.94 240.74 L 296.94 242.51 L 293.4 242.51 L 293.4 242.63 C 293.4 243.55 292.66 244.29 291.75 244.29 L 291.63 244.29 L 291.63 247.83 L 289.86 247.83 L 289.86 244.29 L 286.31 244.29 L 286.31 247.83 L 284.54 247.83 L 284.54 244.29 L 281.89 244.29 L 281.89 247.83 L 280.11 247.83 L 280.11 244.29 L 276.57 244.29 L 276.57 247.83 L 274.8 247.83 L 274.8 244.29 L 271.26 244.29 L 271.26 247.83 L 269.49 247.83 L 269.49 244.29 L 269.37 244.29 C 268.45 244.29 267.71 243.55 267.71 242.63 L 267.71 242.51 L 265.06 242.51 L 265.06 240.74 L 267.71 240.74 L 267.71 237.2 L 265.06 237.2 L 265.06 235.43 L 267.71 235.43 L 267.71 231.89 L 265.06 231.89 L 265.06 230.11 L 267.71 230.11 L 267.71 227.46 L 265.06 227.46 L 265.06 225.69 L 267.71 225.69 L 267.71 222.14 L 265.06 222.14 L 265.06 220.37 L 267.71 220.37 L 267.71 220.25 C 267.71 219.34 268.45 218.6 269.37 218.6 L 269.49 218.6 L 269.49 215.06 L 271.26 215.06 L 271.26 218.6 L 274.8 218.6 L 274.8 215.06 L 276.57 215.06 L 276.57 218.6 L 280.11 218.6 L 280.11 215.06 L 281.89 215.06 L 281.89 218.6 L 284.54 218.6 L 284.54 215.06 L 286.31 215.06 L 286.31 218.6 L 289.86 218.6 L 289.86 215.06 L 291.63 215.06 L 291.63 218.6 L 291.75 218.6 C 292.66 218.6 293.4 219.34 293.4 220.25 Z M 281.89 253.92 C 281.89 253.98 281.84 254.03 281.78 254.03 L 258.08 254.03 C 258.02 254.03 257.97 253.98 257.97 253.92 L 257.97 230.22 C 257.97 230.16 258.02 230.11 258.08 230.11 L 263.29 230.11 L 263.29 228.34 L 258.08 228.34 C 257.04 228.34 256.2 229.19 256.2 230.22 L 256.2 253.92 C 256.2 254.96 257.04 255.8 258.08 255.8 L 281.78 255.8 C 282.81 255.8 283.66 254.96 283.66 253.92 L 283.66 249.6 L 281.89 249.6 Z M 305.8 208.08 L 305.8 231.78 C 305.8 232.81 304.96 233.66 303.92 233.66 L 298.71 233.66 L 298.71 231.89 L 303.92 231.89 C 303.98 231.89 304.03 231.84 304.03 231.78 L 304.03 208.08 C 304.03 208.02 303.98 207.97 303.92 207.97 L 280.22 207.97 C 280.16 207.97 280.11 208.02 280.11 208.08 L 280.11 213.29 L 278.34 213.29 L 278.34 208.08 C 278.34 207.04 279.19 206.2 280.22 206.2 L 303.92 206.2 C 304.96 206.2 305.8 207.04 305.8 208.08 Z" fill="#ffffff" stroke="none" pointer-events="all" style="fill: light-dark(rgb(255, 255, 255), rgb(18, 18, 18));"/></g></g><g data-cell-id="SsyuM5CPjU2S2znVL6Bv-8"><g transform="translate(0.5,0.5)"><rect x="210" y="82.5" width="50" height="50" fill="none" stroke="none" pointer-events="all"/><path d="M 241.76 113.99 C 241.76 114.54 241.32 114.99 240.77 114.99 C 240.22 114.99 239.77 114.54 239.77 113.99 C 239.77 113.45 240.22 113 240.77 113 C 241.32 113 241.76 113.45 241.76 113.99 Z M 245.02 93.73 C 244.47 93.73 244.02 93.29 244.02 92.74 C 244.02 92.19 244.47 91.74 245.02 91.74 C 245.57 91.74 246.02 92.19 246.02 92.74 C 246.02 93.29 245.57 93.73 245.02 93.73 Z M 241.16 103.67 C 241.16 104.22 240.71 104.66 240.16 104.66 C 239.61 104.66 239.17 104.22 239.17 103.67 C 239.17 103.12 239.61 102.67 240.16 102.67 C 240.71 102.67 241.16 103.12 241.16 103.67 Z M 246.45 121.28 C 246.45 120.73 246.9 120.29 247.45 120.29 C 248 120.29 248.45 120.73 248.45 121.28 C 248.45 121.83 248 122.28 247.45 122.28 C 246.9 122.28 246.45 121.83 246.45 121.28 Z M 251.45 115.66 C 251.09 115.86 250.87 116.23 250.87 116.64 L 250.87 123.63 L 242.81 128.4 L 242.81 122.72 L 244.54 122.72 C 245.07 123.79 246.17 124.54 247.45 124.54 C 249.24 124.54 250.7 123.08 250.7 121.28 C 250.7 119.49 249.24 118.03 247.45 118.03 C 245.94 118.03 244.68 119.06 244.31 120.46 L 241.68 120.46 C 241.06 120.46 240.55 120.96 240.55 121.59 L 240.55 129.74 L 240.09 130.01 L 236.13 127.71 L 236.13 98.42 L 239.34 98.42 L 239.34 100.53 C 237.94 100.9 236.91 102.16 236.91 103.67 C 236.91 105.46 238.37 106.92 240.16 106.92 C 241.96 106.92 243.42 105.46 243.42 103.67 C 243.42 102.39 242.67 101.29 241.6 100.76 L 241.6 98.42 L 245.32 98.42 C 245.95 98.42 246.45 97.92 246.45 97.29 L 246.45 95.65 C 247.53 95.11 248.28 94.02 248.28 92.74 C 248.28 90.94 246.82 89.48 245.02 89.48 C 243.23 89.48 241.76 90.94 241.76 92.74 C 241.76 94.25 242.8 95.51 244.19 95.87 L 244.19 96.16 L 236.13 96.16 L 236.13 87.98 L 241.1 85.01 L 251.48 91.34 L 251.48 98.3 C 251.48 98.71 251.7 99.08 252.05 99.28 L 257.55 102.4 L 257.56 105.88 L 247.15 105.88 C 246.52 105.88 246.02 106.39 246.02 107.01 L 246.02 112.56 L 243.68 112.56 C 243.15 111.49 242.05 110.74 240.77 110.74 C 238.97 110.74 237.51 112.2 237.51 113.99 C 237.51 115.79 238.97 117.25 240.77 117.25 C 242.28 117.25 243.54 116.21 243.91 114.82 L 247.15 114.82 C 247.77 114.82 248.28 114.31 248.28 113.69 L 248.28 108.14 L 257.56 108.14 L 257.56 112.22 Z M 227.41 112.39 C 227.96 112.39 228.4 112.84 228.4 113.39 C 228.4 113.94 227.96 114.38 227.41 114.38 C 226.86 114.38 226.41 113.94 226.41 113.39 C 226.41 112.84 226.86 112.39 227.41 112.39 Z M 225.81 94.56 C 225.81 94.01 226.25 93.56 226.8 93.56 C 227.35 93.56 227.8 94.01 227.8 94.56 C 227.8 95.11 227.35 95.56 226.8 95.56 C 226.25 95.56 225.81 95.11 225.81 94.56 Z M 221.72 103.67 C 221.72 104.22 221.28 104.66 220.73 104.66 C 220.18 104.66 219.73 104.22 219.73 103.67 C 219.73 103.12 220.18 102.67 220.73 102.67 C 221.28 102.67 221.72 103.12 221.72 103.67 Z M 227.63 123.1 C 227.63 122.55 228.07 122.11 228.62 122.11 C 229.17 122.11 229.62 122.55 229.62 123.1 C 229.62 123.65 229.17 124.1 228.62 124.1 C 228.07 124.1 227.63 123.65 227.63 123.1 Z M 229.29 130 L 218.52 123.63 L 218.52 116.64 C 218.52 116.23 218.29 115.85 217.93 115.65 L 217.53 115.43 L 220.51 115.43 L 220.51 123.41 C 220.51 124.03 221.01 124.54 221.64 124.54 L 225.71 124.54 C 226.25 125.61 227.34 126.36 228.62 126.36 C 230.42 126.36 231.88 124.9 231.88 123.1 C 231.88 121.31 230.42 119.85 228.62 119.85 C 227.12 119.85 225.86 120.88 225.49 122.28 L 222.77 122.28 L 222.77 114.3 C 222.77 113.67 222.26 113.17 221.64 113.17 L 213.42 113.17 L 212.45 112.63 L 212.44 102.4 L 217.94 99.28 C 218.3 99.08 218.52 98.71 218.52 98.3 L 218.52 95.38 L 219.9 95.38 L 219.9 100.53 C 218.51 100.9 217.47 102.16 217.47 103.67 C 217.47 105.46 218.93 106.92 220.73 106.92 C 222.52 106.92 223.98 105.46 223.98 103.67 C 223.98 102.39 223.24 101.29 222.16 100.76 L 222.16 95.38 L 223.67 95.38 C 224.03 96.78 225.29 97.82 226.8 97.82 C 228.6 97.82 230.06 96.35 230.06 94.56 C 230.06 92.77 228.6 91.3 226.8 91.3 C 225.52 91.3 224.43 92.05 223.89 93.13 L 218.52 93.13 L 218.52 91.33 L 228.9 85.01 L 233.87 87.98 L 233.87 101.02 L 227.1 101.02 C 226.48 101.02 225.97 101.53 225.97 102.15 L 225.97 110.48 C 224.9 111.01 224.15 112.11 224.15 113.39 C 224.15 115.18 225.61 116.64 227.41 116.64 C 229.2 116.64 230.66 115.18 230.66 113.39 C 230.66 111.88 229.63 110.62 228.23 110.25 L 228.23 103.28 L 233.87 103.28 L 233.87 127.28 Z M 259.81 101.74 C 259.81 101.34 259.6 100.96 259.24 100.76 L 253.74 97.64 L 253.74 90.7 C 253.74 90.31 253.54 89.94 253.2 89.74 L 241.69 82.72 C 241.33 82.5 240.88 82.5 240.52 82.72 L 235 86.02 L 229.48 82.72 C 229.11 82.5 228.66 82.5 228.31 82.72 L 216.8 89.74 C 216.46 89.94 216.26 90.31 216.26 90.7 L 216.26 97.64 L 210.76 100.76 C 210.4 100.96 210.18 101.34 210.18 101.74 L 210.19 113.3 C 210.19 113.71 210.41 114.09 210.77 114.29 L 216.26 117.31 L 216.26 124.28 C 216.26 124.68 216.47 125.05 216.81 125.25 L 228.72 132.29 C 229.07 132.5 229.51 132.5 229.87 132.29 L 234.63 129.46 L 239.53 132.3 C 239.71 132.4 239.9 132.45 240.1 132.45 C 240.3 132.45 240.5 132.39 240.67 132.29 L 252.58 125.25 C 252.92 125.05 253.13 124.68 253.13 124.28 L 253.13 117.3 L 259.24 113.86 C 259.6 113.66 259.82 113.29 259.82 112.88 Z" fill="#fa6800" stroke="none" pointer-events="all" style="fill: light-dark(rgb(250, 104, 0), rgb(233, 107, 18));"/></g></g><g data-cell-id="SsyuM5CPjU2S2znVL6Bv-9"><g transform="translate(0.5,0.5)"><path d="M 98.4 335.67 C 97.86 336.23 96.98 336.31 96.39 335.53 C 95.95 334.92 96.16 334.17 96.53 333.82 C 98.63 331.59 102 330 105.54 330.04 C 109.64 330.1 112.6 331.9 114.49 333.83 C 115.09 334.49 114.91 335.34 114.4 335.75 C 113.79 336.24 113.05 336.23 112.51 335.63 C 110.79 333.89 108.38 332.74 105.75 332.67 C 103.27 332.62 100.61 333.43 98.4 335.67 Z M 101.79 339.38 C 101.22 339.91 100.39 339.84 99.9 339.22 C 99.56 338.78 99.45 338.06 99.96 337.5 C 101.32 336.02 103.39 335.13 105.46 335.13 C 107.74 335.16 109.66 336.14 110.95 337.62 C 111.39 338.26 111.2 338.93 110.79 339.36 C 110.42 339.79 109.57 339.97 108.94 339.3 C 108.06 338.4 106.82 337.83 105.44 337.81 C 104.04 337.82 102.74 338.39 101.79 339.38 Z M 130 377.94 L 80.88 377.94 L 80.88 342.23 L 130 342.23 Z M 110.88 380.73 C 111.33 381.28 111.26 381.94 110.93 382.38 C 109.52 384.03 107.37 384.82 105.51 384.82 C 103.38 384.82 101.42 383.97 99.98 382.5 C 99.52 381.98 99.43 381.2 100.07 380.57 C 100.63 380.08 101.33 380.16 101.81 380.61 C 102.62 381.48 103.92 382.17 105.49 382.15 C 107.18 382.12 108.33 381.32 109.13 380.5 C 109.46 380.23 110.26 379.99 110.88 380.73 Z M 114.41 386.07 C 112.23 388.47 108.96 390 105.49 390 C 102.18 390 98.9 388.74 96.38 386.05 C 96.09 385.71 95.81 384.91 96.52 384.21 C 97.06 383.73 97.84 383.74 98.34 384.31 C 100.2 386.19 102.63 387.28 105.47 387.3 C 108.76 387.24 111.06 385.74 112.51 384.27 C 112.94 383.85 113.68 383.63 114.33 384.26 C 114.78 384.73 114.92 385.45 114.41 386.07 Z" fill="#5294cf" stroke="none" pointer-events="all" style="fill: light-dark(rgb(82, 148, 207), rgb(70, 127, 178));"/><path d="M 80.88 377.94 L 80.88 375.79 L 130 375.79 L 130 377.94 Z" fill-opacity="0.3" fill="#000000" stroke="none" pointer-events="all" style="fill: light-dark(rgb(0, 0, 0), rgb(237, 237, 237));"/><rect x="80.88" y="330" width="0" height="0" fill="none" stroke="#000000" pointer-events="all" style="stroke: light-dark(rgb(0, 0, 0), rgb(255, 255, 255));"/><path d="M 130 368.27 L 121.73 368.27 C 121.24 368.27 120.76 367.81 120.76 367.25 L 120.76 363.47 C 120.21 363.24 119.32 362.49 119.32 361.19 C 119.32 359.83 120.38 358.7 121.8 358.7 C 122.89 358.7 124.18 359.64 124.18 361.19 C 124.18 362.2 123.59 363.07 122.73 363.48 L 122.73 366.24 L 130 366.24 Z M 114.72 373.44 C 114.25 373.44 113.76 372.99 113.76 372.42 L 113.76 363.48 C 113.28 363.25 112.37 362.62 112.31 361.24 C 112.27 360.22 113.1 358.66 114.84 358.71 C 116.18 358.78 117.15 359.88 117.16 361.18 C 117.15 362.21 116.59 363.08 115.72 363.46 L 115.72 371.42 L 130 371.42 L 130 373.44 Z M 111.33 342.23 L 111.33 349.7 L 115.52 349.7 L 115.52 345.46 C 115.52 344.89 115.94 344.38 116.59 344.38 L 126.9 344.38 C 127.54 344.38 127.97 344.89 127.97 345.45 L 127.97 356.11 C 127.97 356.58 127.55 357.16 126.91 357.16 L 116.56 357.16 C 116.02 357.16 115.52 356.72 115.52 356.09 L 115.52 351.72 L 105.36 351.72 C 105.03 352.5 104.22 353.2 103.15 353.19 C 101.79 353.19 100.72 352.07 100.72 350.68 C 100.72 349.39 101.73 348.22 103.19 348.22 C 104.09 348.22 105.02 348.82 105.36 349.7 L 109.37 349.7 L 109.37 342.23 Z M 96.99 342.23 L 98.96 342.23 L 98.96 357.43 L 102.62 361.19 L 104.35 359.4 C 104.1 358.71 104.08 357.67 104.86 356.79 C 105.92 355.69 107.33 355.91 108.06 356.52 C 109.3 357.47 109.31 359.16 108.41 360.17 C 107.59 361.1 106.46 361.13 105.75 360.83 L 104.01 362.62 L 107.11 365.81 C 107.9 365.5 108.92 365.57 109.69 366.35 C 110.9 367.63 110.42 369.27 109.59 370 C 108.47 370.97 106.96 370.74 106.13 369.72 C 105.71 369.2 105.37 368.29 105.72 367.27 L 97.24 358.55 C 97.08 358.39 96.99 358.14 96.99 357.84 Z M 84.02 342.23 L 85.99 342.23 L 85.99 349.7 L 89.4 349.7 C 89.84 348.73 90.74 348.21 91.61 348.21 C 92.99 348.21 94.04 349.36 94.04 350.7 C 94.04 351.94 93.12 353.2 91.54 353.2 C 90.88 353.2 89.87 352.78 89.4 351.72 L 85.99 351.72 L 85.99 359.72 L 92 365.9 C 93.18 365.39 94.78 365.9 95.27 367.53 C 95.69 369.23 94.45 370.75 92.82 370.68 C 91.94 370.64 90.91 370.05 90.58 368.84 C 90.46 368.36 90.49 367.83 90.63 367.39 L 84.29 360.87 C 84.15 360.72 84.02 360.51 84.02 360.11 Z M 99.81 375.79 L 99.81 368.53 L 92.32 360.85 C 91.18 361.26 90.08 360.78 89.52 359.95 C 88.73 358.79 88.98 357.25 90.16 356.42 C 91.25 355.7 92.62 355.99 93.36 356.93 C 94.08 357.86 93.97 358.88 93.73 359.45 L 101.78 367.66 L 101.78 375.79 Z M 84.08 375.79 L 84.08 370.47 C 83.44 370.19 82.65 369.37 82.65 368.24 C 82.65 366.62 83.93 365.7 85.04 365.7 C 86.37 365.7 87.49 366.76 87.49 368.19 C 87.49 369.15 86.95 370.06 86.06 370.47 L 86.06 375.79 Z" fill="#ffffff" stroke="none" pointer-events="all" style="fill: light-dark(rgb(255, 255, 255), rgb(18, 18, 18));"/></g></g><g data-cell-id="SsyuM5CPjU2S2znVL6Bv-10"><g transform="translate(0.5,0.5)"><rect x="190" y="335" width="50" height="50" fill="none" stroke="none" pointer-events="all"/><path d="M 221.76 366.49 C 221.76 367.04 221.32 367.49 220.77 367.49 C 220.22 367.49 219.77 367.04 219.77 366.49 C 219.77 365.95 220.22 365.5 220.77 365.5 C 221.32 365.5 221.76 365.95 221.76 366.49 Z M 225.02 346.23 C 224.47 346.23 224.02 345.79 224.02 345.24 C 224.02 344.69 224.47 344.24 225.02 344.24 C 225.57 344.24 226.02 344.69 226.02 345.24 C 226.02 345.79 225.57 346.23 225.02 346.23 Z M 221.16 356.17 C 221.16 356.72 220.71 357.16 220.16 357.16 C 219.61 357.16 219.17 356.72 219.17 356.17 C 219.17 355.62 219.61 355.17 220.16 355.17 C 220.71 355.17 221.16 355.62 221.16 356.17 Z M 226.45 373.78 C 226.45 373.23 226.9 372.79 227.45 372.79 C 228 372.79 228.45 373.23 228.45 373.78 C 228.45 374.33 228 374.78 227.45 374.78 C 226.9 374.78 226.45 374.33 226.45 373.78 Z M 231.45 368.16 C 231.09 368.36 230.87 368.73 230.87 369.14 L 230.87 376.13 L 222.81 380.9 L 222.81 375.22 L 224.54 375.22 C 225.07 376.29 226.17 377.04 227.45 377.04 C 229.24 377.04 230.7 375.58 230.7 373.78 C 230.7 371.99 229.24 370.53 227.45 370.53 C 225.94 370.53 224.68 371.56 224.31 372.96 L 221.68 372.96 C 221.06 372.96 220.55 373.46 220.55 374.09 L 220.55 382.24 L 220.09 382.51 L 216.13 380.21 L 216.13 350.92 L 219.34 350.92 L 219.34 353.03 C 217.94 353.4 216.91 354.66 216.91 356.17 C 216.91 357.96 218.37 359.42 220.16 359.42 C 221.96 359.42 223.42 357.96 223.42 356.17 C 223.42 354.89 222.67 353.79 221.6 353.26 L 221.6 350.92 L 225.32 350.92 C 225.95 350.92 226.45 350.42 226.45 349.79 L 226.45 348.15 C 227.53 347.61 228.28 346.52 228.28 345.24 C 228.28 343.44 226.82 341.98 225.02 341.98 C 223.23 341.98 221.76 343.44 221.76 345.24 C 221.76 346.75 222.8 348.01 224.19 348.37 L 224.19 348.66 L 216.13 348.66 L 216.13 340.48 L 221.1 337.51 L 231.48 343.84 L 231.48 350.8 C 231.48 351.21 231.7 351.58 232.05 351.78 L 237.55 354.9 L 237.56 358.38 L 227.15 358.38 C 226.52 358.38 226.02 358.89 226.02 359.51 L 226.02 365.06 L 223.68 365.06 C 223.15 363.99 222.05 363.24 220.77 363.24 C 218.97 363.24 217.51 364.7 217.51 366.49 C 217.51 368.29 218.97 369.75 220.77 369.75 C 222.28 369.75 223.54 368.71 223.91 367.32 L 227.15 367.32 C 227.77 367.32 228.28 366.81 228.28 366.19 L 228.28 360.64 L 237.56 360.64 L 237.56 364.72 Z M 207.41 364.89 C 207.96 364.89 208.4 365.34 208.4 365.89 C 208.4 366.44 207.96 366.88 207.41 366.88 C 206.86 366.88 206.41 366.44 206.41 365.89 C 206.41 365.34 206.86 364.89 207.41 364.89 Z M 205.81 347.06 C 205.81 346.51 206.25 346.06 206.8 346.06 C 207.35 346.06 207.8 346.51 207.8 347.06 C 207.8 347.61 207.35 348.06 206.8 348.06 C 206.25 348.06 205.81 347.61 205.81 347.06 Z M 201.72 356.17 C 201.72 356.72 201.28 357.16 200.73 357.16 C 200.18 357.16 199.73 356.72 199.73 356.17 C 199.73 355.62 200.18 355.17 200.73 355.17 C 201.28 355.17 201.72 355.62 201.72 356.17 Z M 207.63 375.6 C 207.63 375.05 208.07 374.61 208.62 374.61 C 209.17 374.61 209.62 375.05 209.62 375.6 C 209.62 376.15 209.17 376.6 208.62 376.6 C 208.07 376.6 207.63 376.15 207.63 375.6 Z M 209.29 382.5 L 198.52 376.13 L 198.52 369.14 C 198.52 368.73 198.29 368.35 197.93 368.15 L 197.53 367.93 L 200.51 367.93 L 200.51 375.91 C 200.51 376.53 201.01 377.04 201.64 377.04 L 205.71 377.04 C 206.25 378.11 207.34 378.86 208.62 378.86 C 210.42 378.86 211.88 377.4 211.88 375.6 C 211.88 373.81 210.42 372.35 208.62 372.35 C 207.12 372.35 205.86 373.38 205.49 374.78 L 202.77 374.78 L 202.77 366.8 C 202.77 366.17 202.26 365.67 201.64 365.67 L 193.42 365.67 L 192.45 365.13 L 192.44 354.9 L 197.94 351.78 C 198.3 351.58 198.52 351.21 198.52 350.8 L 198.52 347.88 L 199.9 347.88 L 199.9 353.03 C 198.51 353.4 197.47 354.66 197.47 356.17 C 197.47 357.96 198.93 359.42 200.73 359.42 C 202.52 359.42 203.98 357.96 203.98 356.17 C 203.98 354.89 203.24 353.79 202.16 353.26 L 202.16 347.88 L 203.67 347.88 C 204.03 349.28 205.29 350.32 206.8 350.32 C 208.6 350.32 210.06 348.85 210.06 347.06 C 210.06 345.27 208.6 343.8 206.8 343.8 C 205.52 343.8 204.43 344.55 203.89 345.63 L 198.52 345.63 L 198.52 343.83 L 208.9 337.51 L 213.87 340.48 L 213.87 353.52 L 207.1 353.52 C 206.48 353.52 205.97 354.03 205.97 354.65 L 205.97 362.98 C 204.9 363.51 204.15 364.61 204.15 365.89 C 204.15 367.68 205.61 369.14 207.41 369.14 C 209.2 369.14 210.66 367.68 210.66 365.89 C 210.66 364.38 209.63 363.12 208.23 362.75 L 208.23 355.78 L 213.87 355.78 L 213.87 379.78 Z M 239.81 354.24 C 239.81 353.84 239.6 353.46 239.24 353.26 L 233.74 350.14 L 233.74 343.2 C 233.74 342.81 233.54 342.44 233.2 342.24 L 221.69 335.22 C 221.33 335 220.88 335 220.52 335.22 L 215 338.52 L 209.48 335.22 C 209.11 335 208.66 335 208.31 335.22 L 196.8 342.24 C 196.46 342.44 196.26 342.81 196.26 343.2 L 196.26 350.14 L 190.76 353.26 C 190.4 353.46 190.18 353.84 190.18 354.24 L 190.19 365.8 C 190.19 366.21 190.41 366.59 190.77 366.79 L 196.26 369.81 L 196.26 376.78 C 196.26 377.18 196.47 377.55 196.81 377.75 L 208.72 384.79 C 209.07 385 209.51 385 209.87 384.79 L 214.63 381.96 L 219.53 384.8 C 219.71 384.9 219.9 384.95 220.1 384.95 C 220.3 384.95 220.5 384.89 220.67 384.79 L 232.58 377.75 C 232.92 377.55 233.13 377.18 233.13 376.78 L 233.13 369.8 L 239.24 366.36 C 239.6 366.16 239.82 365.79 239.82 365.38 Z" fill="#0050ef" stroke="none" pointer-events="all" style="fill: light-dark(rgb(0, 80, 239), rgb(109, 178, 255));"/></g></g><g data-cell-id="SsyuM5CPjU2S2znVL6Bv-12"><g transform="translate(0.5,0.5)"><path d="M 108.26 324.29 L 137.18 265.71" fill="none" stroke="#000000" stroke-miterlimit="10" pointer-events="stroke" style="stroke: light-dark(rgb(0, 0, 0), rgb(255, 255, 255));"/><path d="M 105.93 329 L 105.9 321.17 L 108.26 324.29 L 112.17 324.27 Z" fill="#000000" stroke="#000000" stroke-miterlimit="10" pointer-events="all" style="fill: light-dark(rgb(0, 0, 0), rgb(255, 255, 255)); stroke: light-dark(rgb(0, 0, 0), rgb(255, 255, 255));"/><path d="M 139.51 261 L 139.54 268.83 L 137.18 265.71 L 133.27 265.73 Z" fill="#000000" stroke="#000000" stroke-miterlimit="10" pointer-events="all" style="fill: light-dark(rgb(0, 0, 0), rgb(255, 255, 255)); stroke: light-dark(rgb(0, 0, 0), rgb(255, 255, 255));"/></g></g><g data-cell-id="SsyuM5CPjU2S2znVL6Bv-13"><g transform="translate(0.5,0.5)"><path d="M 201.14 329.19 L 172.61 265.81" fill="none" stroke="#000000" stroke-miterlimit="10" pointer-events="stroke" style="stroke: light-dark(rgb(0, 0, 0), rgb(255, 255, 255));"/><path d="M 203.29 333.98 L 197.23 329.03 L 201.14 329.19 L 203.61 326.16 Z" fill="#000000" stroke="#000000" stroke-miterlimit="10" pointer-events="all" style="fill: light-dark(rgb(0, 0, 0), rgb(255, 255, 255)); stroke: light-dark(rgb(0, 0, 0), rgb(255, 255, 255));"/><path d="M 170.46 261.02 L 176.52 265.97 L 172.61 265.81 L 170.14 268.84 Z" fill="#000000" stroke="#000000" stroke-miterlimit="10" pointer-events="all" style="fill: light-dark(rgb(0, 0, 0), rgb(255, 255, 255)); stroke: light-dark(rgb(0, 0, 0), rgb(255, 255, 255));"/></g></g><g data-cell-id="SsyuM5CPjU2S2znVL6Bv-14"><g transform="translate(0.5,0.5)"><path d="M 183.82 360 L 136.37 360" fill="none" stroke="#000000" stroke-miterlimit="10" pointer-events="stroke" style="stroke: light-dark(rgb(0, 0, 0), rgb(255, 255, 255));"/><path d="M 189.07 360 L 182.07 363.5 L 183.82 360 L 182.07 356.5 Z" fill="#000000" stroke="#000000" stroke-miterlimit="10" pointer-events="all" style="fill: light-dark(rgb(0, 0, 0), rgb(255, 255, 255)); stroke: light-dark(rgb(0, 0, 0), rgb(255, 255, 255));"/><path d="M 131.12 360 L 138.12 356.5 L 136.37 360 L 138.12 363.5 Z" fill="#000000" stroke="#000000" stroke-miterlimit="10" pointer-events="all" style="fill: light-dark(rgb(0, 0, 0), rgb(255, 255, 255)); stroke: light-dark(rgb(0, 0, 0), rgb(255, 255, 255));"/></g></g><g data-cell-id="SsyuM5CPjU2S2znVL6Bv-15"><g transform="translate(0.5,0.5)"><path d="M 243.63 230.59 L 196.37 230.07" fill="none" stroke="#000000" stroke-miterlimit="10" pointer-events="stroke" style="stroke: light-dark(rgb(0, 0, 0), rgb(255, 255, 255));"/><path d="M 248.88 230.65 L 241.84 234.07 L 243.63 230.59 L 241.92 227.07 Z" fill="#000000" stroke="#000000" stroke-miterlimit="10" pointer-events="all" style="fill: light-dark(rgb(0, 0, 0), rgb(255, 255, 255)); stroke: light-dark(rgb(0, 0, 0), rgb(255, 255, 255));"/><path d="M 191.12 230.01 L 198.16 226.59 L 196.37 230.07 L 198.08 233.59 Z" fill="#000000" stroke="#000000" stroke-miterlimit="10" pointer-events="all" style="fill: light-dark(rgb(0, 0, 0), rgb(255, 255, 255)); stroke: light-dark(rgb(0, 0, 0), rgb(255, 255, 255));"/></g></g><g data-cell-id="SsyuM5CPjU2S2znVL6Bv-16"><g transform="translate(0.5,0.5)"><path d="M 278.16 194.3 L 250.27 138.2" fill="none" stroke="#000000" stroke-miterlimit="10" pointer-events="stroke" style="stroke: light-dark(rgb(0, 0, 0), rgb(255, 255, 255));"/><path d="M 280.5 199 L 274.25 194.29 L 278.16 194.3 L 280.52 191.17 Z" fill="#000000" stroke="#000000" stroke-miterlimit="10" pointer-events="all" style="fill: light-dark(rgb(0, 0, 0), rgb(255, 255, 255)); stroke: light-dark(rgb(0, 0, 0), rgb(255, 255, 255));"/><path d="M 247.93 133.5 L 254.18 138.21 L 250.27 138.2 L 247.91 141.33 Z" fill="#000000" stroke="#000000" stroke-miterlimit="10" pointer-events="all" style="fill: light-dark(rgb(0, 0, 0), rgb(255, 255, 255)); stroke: light-dark(rgb(0, 0, 0), rgb(255, 255, 255));"/></g></g><g data-cell-id="SsyuM5CPjU2S2znVL6Bv-17"><g transform="translate(0.5,0.5)"><path d="M 216.88 137.97 L 183.25 194.53" fill="none" stroke="#000000" stroke-miterlimit="10" pointer-events="stroke" style="stroke: light-dark(rgb(0, 0, 0), rgb(255, 255, 255));"/><path d="M 219.56 133.46 L 218.99 141.27 L 216.88 137.97 L 212.98 137.69 Z" fill="#000000" stroke="#000000" stroke-miterlimit="10" pointer-events="all" style="fill: light-dark(rgb(0, 0, 0), rgb(255, 255, 255)); stroke: light-dark(rgb(0, 0, 0), rgb(255, 255, 255));"/><path d="M 180.57 199.04 L 181.14 191.23 L 183.25 194.53 L 187.16 194.81 Z" fill="#000000" stroke="#000000" stroke-miterlimit="10" pointer-events="all" style="fill: light-dark(rgb(0, 0, 0), rgb(255, 255, 255)); stroke: light-dark(rgb(0, 0, 0), rgb(255, 255, 255));"/></g></g><g data-cell-id="SsyuM5CPjU2S2znVL6Bv-18"><g transform="translate(0.5,0.5)"><path d="M 56.18 231.42 L 130.28 232.41" fill="none" stroke="#000000" stroke-miterlimit="10" pointer-events="stroke" style="stroke: light-dark(rgb(0, 0, 0), rgb(255, 255, 255));"/><path d="M 50.93 231.35 L 57.98 227.94 L 56.18 231.42 L 57.89 234.94 Z" fill="#000000" stroke="#000000" stroke-miterlimit="10" pointer-events="all" style="fill: light-dark(rgb(0, 0, 0), rgb(255, 255, 255)); stroke: light-dark(rgb(0, 0, 0), rgb(255, 255, 255));"/><path d="M 135.53 232.48 L 128.49 235.89 L 130.28 232.41 L 128.58 228.89 Z" fill="#000000" stroke="#000000" stroke-miterlimit="10" pointer-events="all" style="fill: light-dark(rgb(0, 0, 0), rgb(255, 255, 255)); stroke: light-dark(rgb(0, 0, 0), rgb(255, 255, 255));"/></g></g><g data-cell-id="SsyuM5CPjU2S2znVL6Bv-19"><g transform="translate(0.5,0.5)"><path d="M 18.57 194.72 L 48.6 150.28" fill="none" stroke="#000000" stroke-miterlimit="10" pointer-events="stroke" style="stroke: light-dark(rgb(0, 0, 0), rgb(255, 255, 255));"/><path d="M 15.63 199.07 L 16.64 191.31 L 18.57 194.72 L 22.44 195.23 Z" fill="#000000" stroke="#000000" stroke-miterlimit="10" pointer-events="all" style="fill: light-dark(rgb(0, 0, 0), rgb(255, 255, 255)); stroke: light-dark(rgb(0, 0, 0), rgb(255, 255, 255));"/><path d="M 51.54 145.93 L 50.52 153.69 L 48.6 150.28 L 44.72 149.77 Z" fill="#000000" stroke="#000000" stroke-miterlimit="10" pointer-events="all" style="fill: light-dark(rgb(0, 0, 0), rgb(255, 255, 255)); stroke: light-dark(rgb(0, 0, 0), rgb(255, 255, 255));"/></g></g><g data-cell-id="SsyuM5CPjU2S2znVL6Bv-20"><g transform="translate(0.5,0.5)"><path d="M 136.38 194.47 L 114.23 155.53" fill="none" stroke="#000000" stroke-miterlimit="10" pointer-events="stroke" style="stroke: light-dark(rgb(0, 0, 0), rgb(255, 255, 255));"/><path d="M 138.97 199.03 L 132.47 194.67 L 136.38 194.47 L 138.55 191.21 Z" fill="#000000" stroke="#000000" stroke-miterlimit="10" pointer-events="all" style="fill: light-dark(rgb(0, 0, 0), rgb(255, 255, 255)); stroke: light-dark(rgb(0, 0, 0), rgb(255, 255, 255));"/><path d="M 111.63 150.97 L 118.14 155.33 L 114.23 155.53 L 112.05 158.79 Z" fill="#000000" stroke="#000000" stroke-miterlimit="10" pointer-events="all" style="fill: light-dark(rgb(0, 0, 0), rgb(255, 255, 255)); stroke: light-dark(rgb(0, 0, 0), rgb(255, 255, 255));"/></g></g><g data-cell-id="SsyuM5CPjU2S2znVL6Bv-24"><g transform="translate(0.5,0.5)"><path d="M 527.59 146 C 505.47 146 490 127.97 490 108.79 C 490 85.85 508.47 71 527.87 71 C 546.56 71 565 86.33 565 108.49 C 565 128.34 549.21 146 527.59 146 Z" fill="#0d2636" stroke="none" pointer-events="all" style="fill: light-dark(rgb(13, 38, 54), rgb(189, 211, 224));"/><path d="M 519.48 137.79 C 519.48 139.41 518.25 140.08 516.41 139.45 C 505.31 135.56 494.64 123.55 494.64 108.55 C 494.64 88.26 512 75.47 527.04 75.47 C 546.56 75.47 560.45 91.47 560.45 108.35 C 560.45 122.29 551.48 135.12 538.04 139.62 C 536.52 140.02 535.58 139.21 535.58 137.88 L 535.58 128.11 C 535.58 126.22 534.81 124.21 533.39 122.81 C 538.85 122.19 542.16 120.82 544.69 118.21 C 547.18 115.74 548.3 112.11 548.51 107.63 C 548.64 104.07 547.7 100.6 545.12 97.95 C 546.01 95.77 546.17 92.87 544.81 89.29 C 542.11 89.08 539.03 90.7 535.88 92.65 C 530.34 91.21 524.8 91.02 519.27 92.73 C 516.79 91.12 514.54 89.31 510.25 89.29 C 509.12 92.45 508.94 95.34 509.91 97.9 C 506.85 101.3 506.5 104.64 506.55 107.97 C 506.89 114.39 509.24 117.64 511.85 119.58 C 514.02 121.19 517.06 122.2 521.69 122.88 C 520.45 124.11 519.75 125.58 519.63 127.29 C 516.91 128.54 513.01 129.16 510.34 125.38 C 509.15 123.48 507.53 121.34 504.44 121.35 C 503.94 121.33 503.44 121.53 503.36 121.75 C 503.3 121.99 503.58 122.49 503.92 122.69 C 506.62 124.4 507.06 125.37 508.16 127.72 C 509.19 130.46 510.96 131.52 512.88 132.26 C 514.84 132.95 518.02 132.76 519.48 132.26 Z" fill="#ffffff" stroke="none" pointer-events="all" style="fill: light-dark(rgb(255, 255, 255), rgb(18, 18, 18));"/></g></g><g data-cell-id="SsyuM5CPjU2S2znVL6Bv-25"><g transform="translate(0.5,0.5)"><path d="M 530.88 128.6 L 534.74 127.16 L 544.89 133.33 L 561.13 121 L 570.88 124.08 L 570.88 147.92 L 561.13 151 L 544.89 139.08 L 534.53 145.04 L 530.88 143.4 Z M 534.53 131.27 L 534.53 140.73 L 541.03 136.21 Z M 550.37 136.21 L 561.13 142.37 L 561.13 129.63 Z" fill="#00bef2" stroke="none" pointer-events="all" style="fill: light-dark(rgb(0, 190, 242), rgb(0, 137, 182));"/></g></g><g data-cell-id="SsyuM5CPjU2S2znVL6Bv-27"><g transform="translate(0.5,0.5)"><path d="M 700 201 L 762 201 L 762 263 L 700 263 Z" fill="#ed7100" stroke="none" pointer-events="all" style="fill: light-dark(rgb(237, 113, 0), rgb(216, 109, 12));"/><path d="M 719.49 243.51 L 741.63 243.51 L 741.63 221.37 L 719.49 221.37 Z M 743.4 221.37 L 746.94 221.37 L 746.94 223.14 L 743.4 223.14 L 743.4 226.69 L 746.94 226.69 L 746.94 228.46 L 743.4 228.46 L 743.4 231.11 L 746.94 231.11 L 746.94 232.89 L 743.4 232.89 L 743.4 236.43 L 746.94 236.43 L 746.94 238.2 L 743.4 238.2 L 743.4 241.74 L 746.94 241.74 L 746.94 243.51 L 743.4 243.51 L 743.4 243.63 C 743.4 244.55 742.66 245.29 741.75 245.29 L 741.63 245.29 L 741.63 248.83 L 739.86 248.83 L 739.86 245.29 L 736.31 245.29 L 736.31 248.83 L 734.54 248.83 L 734.54 245.29 L 731.89 245.29 L 731.89 248.83 L 730.11 248.83 L 730.11 245.29 L 726.57 245.29 L 726.57 248.83 L 724.8 248.83 L 724.8 245.29 L 721.26 245.29 L 721.26 248.83 L 719.49 248.83 L 719.49 245.29 L 719.37 245.29 C 718.45 245.29 717.71 244.55 717.71 243.63 L 717.71 243.51 L 715.06 243.51 L 715.06 241.74 L 717.71 241.74 L 717.71 238.2 L 715.06 238.2 L 715.06 236.43 L 717.71 236.43 L 717.71 232.89 L 715.06 232.89 L 715.06 231.11 L 717.71 231.11 L 717.71 228.46 L 715.06 228.46 L 715.06 226.69 L 717.71 226.69 L 717.71 223.14 L 715.06 223.14 L 715.06 221.37 L 717.71 221.37 L 717.71 221.25 C 717.71 220.34 718.45 219.6 719.37 219.6 L 719.49 219.6 L 719.49 216.06 L 721.26 216.06 L 721.26 219.6 L 724.8 219.6 L 724.8 216.06 L 726.57 216.06 L 726.57 219.6 L 730.11 219.6 L 730.11 216.06 L 731.89 216.06 L 731.89 219.6 L 734.54 219.6 L 734.54 216.06 L 736.31 216.06 L 736.31 219.6 L 739.86 219.6 L 739.86 216.06 L 741.63 216.06 L 741.63 219.6 L 741.75 219.6 C 742.66 219.6 743.4 220.34 743.4 221.25 Z M 731.89 254.92 C 731.89 254.98 731.84 255.03 731.78 255.03 L 708.08 255.03 C 708.02 255.03 707.97 254.98 707.97 254.92 L 707.97 231.22 C 707.97 231.16 708.02 231.11 708.08 231.11 L 713.29 231.11 L 713.29 229.34 L 708.08 229.34 C 707.04 229.34 706.2 230.19 706.2 231.22 L 706.2 254.92 C 706.2 255.96 707.04 256.8 708.08 256.8 L 731.78 256.8 C 732.81 256.8 733.66 255.96 733.66 254.92 L 733.66 250.6 L 731.89 250.6 Z M 755.8 209.08 L 755.8 232.78 C 755.8 233.81 754.96 234.66 753.92 234.66 L 748.71 234.66 L 748.71 232.89 L 753.92 232.89 C 753.98 232.89 754.03 232.84 754.03 232.78 L 754.03 209.08 C 754.03 209.02 753.98 208.97 753.92 208.97 L 730.22 208.97 C 730.16 208.97 730.11 209.02 730.11 209.08 L 730.11 214.29 L 728.34 214.29 L 728.34 209.08 C 728.34 208.04 729.19 207.2 730.22 207.2 L 753.92 207.2 C 754.96 207.2 755.8 208.04 755.8 209.08 Z" fill="#ffffff" stroke="none" pointer-events="all" style="fill: light-dark(rgb(255, 255, 255), rgb(18, 18, 18));"/></g></g><g data-cell-id="SsyuM5CPjU2S2znVL6Bv-29"><g transform="translate(0.5,0.5)"><path d="M 548.4 336.67 C 547.86 337.23 546.98 337.31 546.39 336.53 C 545.95 335.92 546.16 335.17 546.53 334.82 C 548.63 332.59 552 331 555.54 331.04 C 559.64 331.1 562.6 332.9 564.49 334.83 C 565.09 335.49 564.91 336.34 564.4 336.75 C 563.79 337.24 563.05 337.23 562.51 336.63 C 560.79 334.89 558.38 333.74 555.75 333.67 C 553.27 333.62 550.61 334.43 548.4 336.67 Z M 551.79 340.38 C 551.22 340.91 550.39 340.84 549.9 340.22 C 549.56 339.78 549.45 339.06 549.96 338.5 C 551.32 337.02 553.39 336.13 555.46 336.13 C 557.74 336.16 559.66 337.14 560.95 338.62 C 561.39 339.26 561.2 339.93 560.79 340.36 C 560.42 340.79 559.57 340.97 558.94 340.3 C 558.06 339.4 556.82 338.83 555.44 338.81 C 554.04 338.82 552.74 339.39 551.79 340.38 Z M 580 378.94 L 530.88 378.94 L 530.88 343.23 L 580 343.23 Z M 560.88 381.73 C 561.33 382.28 561.26 382.94 560.93 383.38 C 559.52 385.03 557.37 385.82 555.51 385.82 C 553.38 385.82 551.42 384.97 549.98 383.5 C 549.52 382.98 549.43 382.2 550.07 381.57 C 550.63 381.08 551.33 381.16 551.81 381.61 C 552.62 382.48 553.92 383.17 555.49 383.15 C 557.18 383.12 558.33 382.32 559.13 381.5 C 559.46 381.23 560.26 380.99 560.88 381.73 Z M 564.41 387.07 C 562.23 389.47 558.96 391 555.49 391 C 552.18 391 548.9 389.74 546.38 387.05 C 546.09 386.71 545.81 385.91 546.52 385.21 C 547.06 384.73 547.84 384.74 548.34 385.31 C 550.2 387.19 552.63 388.28 555.47 388.3 C 558.76 388.24 561.06 386.74 562.51 385.27 C 562.94 384.85 563.68 384.63 564.33 385.26 C 564.78 385.73 564.92 386.45 564.41 387.07 Z" fill="#5294cf" stroke="none" pointer-events="all" style="fill: light-dark(rgb(82, 148, 207), rgb(70, 127, 178));"/><path d="M 530.88 378.94 L 530.88 376.79 L 580 376.79 L 580 378.94 Z" fill-opacity="0.3" fill="#000000" stroke="none" pointer-events="all" style="fill: light-dark(rgb(0, 0, 0), rgb(237, 237, 237));"/><rect x="530.88" y="331" width="0" height="0" fill="none" stroke="#000000" pointer-events="all" style="stroke: light-dark(rgb(0, 0, 0), rgb(255, 255, 255));"/><path d="M 580 369.27 L 571.73 369.27 C 571.24 369.27 570.76 368.81 570.76 368.25 L 570.76 364.47 C 570.21 364.24 569.32 363.49 569.32 362.19 C 569.32 360.83 570.38 359.7 571.8 359.7 C 572.89 359.7 574.18 360.64 574.18 362.19 C 574.18 363.2 573.59 364.07 572.73 364.48 L 572.73 367.24 L 580 367.24 Z M 564.72 374.44 C 564.25 374.44 563.76 373.99 563.76 373.42 L 563.76 364.48 C 563.28 364.25 562.37 363.62 562.31 362.24 C 562.27 361.22 563.1 359.66 564.84 359.71 C 566.18 359.78 567.15 360.88 567.16 362.18 C 567.15 363.21 566.59 364.08 565.72 364.46 L 565.72 372.42 L 580 372.42 L 580 374.44 Z M 561.33 343.23 L 561.33 350.7 L 565.52 350.7 L 565.52 346.46 C 565.52 345.89 565.94 345.38 566.59 345.38 L 576.9 345.38 C 577.54 345.38 577.97 345.89 577.97 346.45 L 577.97 357.11 C 577.97 357.58 577.55 358.16 576.91 358.16 L 566.56 358.16 C 566.02 358.16 565.52 357.72 565.52 357.09 L 565.52 352.72 L 555.36 352.72 C 555.03 353.5 554.22 354.2 553.15 354.19 C 551.79 354.19 550.72 353.07 550.72 351.68 C 550.72 350.39 551.73 349.22 553.19 349.22 C 554.09 349.22 555.02 349.82 555.36 350.7 L 559.37 350.7 L 559.37 343.23 Z M 546.99 343.23 L 548.96 343.23 L 548.96 358.43 L 552.62 362.19 L 554.35 360.4 C 554.1 359.71 554.08 358.67 554.86 357.79 C 555.92 356.69 557.33 356.91 558.06 357.52 C 559.3 358.47 559.31 360.16 558.41 361.17 C 557.59 362.1 556.46 362.13 555.75 361.83 L 554.01 363.62 L 557.11 366.81 C 557.9 366.5 558.92 366.57 559.69 367.35 C 560.9 368.63 560.42 370.27 559.59 371 C 558.47 371.97 556.96 371.74 556.13 370.72 C 555.71 370.2 555.37 369.29 555.72 368.27 L 547.24 359.55 C 547.08 359.39 546.99 359.14 546.99 358.84 Z M 534.02 343.23 L 535.99 343.23 L 535.99 350.7 L 539.4 350.7 C 539.84 349.73 540.74 349.21 541.61 349.21 C 542.99 349.21 544.04 350.36 544.04 351.7 C 544.04 352.94 543.12 354.2 541.54 354.2 C 540.88 354.2 539.87 353.78 539.4 352.72 L 535.99 352.72 L 535.99 360.72 L 542 366.9 C 543.18 366.39 544.78 366.9 545.27 368.53 C 545.69 370.23 544.45 371.75 542.82 371.68 C 541.94 371.64 540.91 371.05 540.58 369.84 C 540.46 369.36 540.49 368.83 540.63 368.39 L 534.29 361.87 C 534.15 361.72 534.02 361.51 534.02 361.11 Z M 549.81 376.79 L 549.81 369.53 L 542.32 361.85 C 541.18 362.26 540.08 361.78 539.52 360.95 C 538.73 359.79 538.98 358.25 540.16 357.42 C 541.25 356.7 542.62 356.99 543.36 357.93 C 544.08 358.86 543.97 359.88 543.73 360.45 L 551.78 368.66 L 551.78 376.79 Z M 534.08 376.79 L 534.08 371.47 C 533.44 371.19 532.65 370.37 532.65 369.24 C 532.65 367.62 533.93 366.7 535.04 366.7 C 536.37 366.7 537.49 367.76 537.49 369.19 C 537.49 370.15 536.95 371.06 536.06 371.47 L 536.06 376.79 Z" fill="#ffffff" stroke="none" pointer-events="all" style="fill: light-dark(rgb(255, 255, 255), rgb(18, 18, 18));"/></g></g><g data-cell-id="SsyuM5CPjU2S2znVL6Bv-31"><g transform="translate(0.5,0.5)"><path d="M 558.26 325.29 L 587.18 266.71" fill="none" stroke="#000000" stroke-miterlimit="10" pointer-events="stroke" style="stroke: light-dark(rgb(0, 0, 0), rgb(255, 255, 255));"/><path d="M 555.93 330 L 555.9 322.17 L 558.26 325.29 L 562.17 325.27 Z" fill="#000000" stroke="#000000" stroke-miterlimit="10" pointer-events="all" style="fill: light-dark(rgb(0, 0, 0), rgb(255, 255, 255)); stroke: light-dark(rgb(0, 0, 0), rgb(255, 255, 255));"/><path d="M 589.51 262 L 589.54 269.83 L 587.18 266.71 L 583.27 266.73 Z" fill="#000000" stroke="#000000" stroke-miterlimit="10" pointer-events="all" style="fill: light-dark(rgb(0, 0, 0), rgb(255, 255, 255)); stroke: light-dark(rgb(0, 0, 0), rgb(255, 255, 255));"/></g></g><g data-cell-id="SsyuM5CPjU2S2znVL6Bv-34"><g transform="translate(0.5,0.5)"><path d="M 693.63 231.59 L 646.37 231.07" fill="none" stroke="#000000" stroke-miterlimit="10" pointer-events="stroke" style="stroke: light-dark(rgb(0, 0, 0), rgb(255, 255, 255));"/><path d="M 698.88 231.65 L 691.84 235.07 L 693.63 231.59 L 691.92 228.07 Z" fill="#000000" stroke="#000000" stroke-miterlimit="10" pointer-events="all" style="fill: light-dark(rgb(0, 0, 0), rgb(255, 255, 255)); stroke: light-dark(rgb(0, 0, 0), rgb(255, 255, 255));"/><path d="M 641.12 231.01 L 648.16 227.59 L 646.37 231.07 L 648.08 234.59 Z" fill="#000000" stroke="#000000" stroke-miterlimit="10" pointer-events="all" style="fill: light-dark(rgb(0, 0, 0), rgb(255, 255, 255)); stroke: light-dark(rgb(0, 0, 0), rgb(255, 255, 255));"/></g></g><g data-cell-id="SsyuM5CPjU2S2znVL6Bv-39"><g transform="translate(0.5,0.5)"><path d="M 586.38 195.47 L 564.23 156.53" fill="none" stroke="#000000" stroke-miterlimit="10" pointer-events="stroke" style="stroke: light-dark(rgb(0, 0, 0), rgb(255, 255, 255));"/><path d="M 588.97 200.03 L 582.47 195.67 L 586.38 195.47 L 588.55 192.21 Z" fill="#000000" stroke="#000000" stroke-miterlimit="10" pointer-events="all" style="fill: light-dark(rgb(0, 0, 0), rgb(255, 255, 255)); stroke: light-dark(rgb(0, 0, 0), rgb(255, 255, 255));"/><path d="M 561.63 151.97 L 568.14 156.33 L 564.23 156.53 L 562.05 159.79 Z" fill="#000000" stroke="#000000" stroke-miterlimit="10" pointer-events="all" style="fill: light-dark(rgb(0, 0, 0), rgb(255, 255, 255)); stroke: light-dark(rgb(0, 0, 0), rgb(255, 255, 255));"/></g></g><g data-cell-id="SsyuM5CPjU2S2znVL6Bv-40"><g transform="translate(0.5,0.5)"><path d="M 456.08 214.39 C 456.01 210.61 457.28 206.96 459.61 204.25 C 461.94 201.55 465.13 200.01 468.46 200 C 475.9 200.08 481.97 206.48 482.24 214.54 C 482.52 218.24 481.4 221.91 479.13 224.69 C 476.87 227.46 473.66 229.1 470.25 229.23 C 462.72 229.39 456.44 222.81 456.08 214.39 Z M 442.5 250 C 442.8 242.97 445.41 236.42 449.71 231.94 C 453.12 228.56 457.87 228.36 461.45 231.44 C 463.5 232.95 465.74 234.17 468.12 235.06 C 470.56 236.12 473.24 235.94 475.58 234.56 C 476.86 233.94 478 233.04 478.91 231.94 C 479.81 230.86 481.38 230.64 482.54 231.44 C 484.59 232.81 486.42 235.24 487.86 238.48 C 489.25 242.16 489.98 246.05 490 249.99 Z" fill="#00bef2" stroke="none" pointer-events="all" style="fill: light-dark(rgb(0, 190, 242), rgb(0, 137, 182));"/></g></g><g data-cell-id="SsyuM5CPjU2S2znVL6Bv-42"><g transform="translate(0.5,0.5)"><rect x="587.5" y="201" width="50" height="50" fill="none" stroke="none" pointer-events="all"/><path d="M 619.26 232.49 C 619.26 233.04 618.82 233.49 618.27 233.49 C 617.72 233.49 617.27 233.04 617.27 232.49 C 617.27 231.95 617.72 231.5 618.27 231.5 C 618.82 231.5 619.26 231.95 619.26 232.49 Z M 622.52 212.23 C 621.97 212.23 621.52 211.79 621.52 211.24 C 621.52 210.69 621.97 210.24 622.52 210.24 C 623.07 210.24 623.52 210.69 623.52 211.24 C 623.52 211.79 623.07 212.23 622.52 212.23 Z M 618.66 222.17 C 618.66 222.72 618.21 223.16 617.66 223.16 C 617.11 223.16 616.67 222.72 616.67 222.17 C 616.67 221.62 617.11 221.17 617.66 221.17 C 618.21 221.17 618.66 221.62 618.66 222.17 Z M 623.95 239.78 C 623.95 239.23 624.4 238.79 624.95 238.79 C 625.5 238.79 625.95 239.23 625.95 239.78 C 625.95 240.33 625.5 240.78 624.95 240.78 C 624.4 240.78 623.95 240.33 623.95 239.78 Z M 628.95 234.16 C 628.59 234.36 628.37 234.73 628.37 235.14 L 628.37 242.13 L 620.31 246.9 L 620.31 241.22 L 622.04 241.22 C 622.57 242.29 623.67 243.04 624.95 243.04 C 626.74 243.04 628.2 241.58 628.2 239.78 C 628.2 237.99 626.74 236.53 624.95 236.53 C 623.44 236.53 622.18 237.56 621.81 238.96 L 619.18 238.96 C 618.56 238.96 618.05 239.46 618.05 240.09 L 618.05 248.24 L 617.59 248.51 L 613.63 246.21 L 613.63 216.92 L 616.84 216.92 L 616.84 219.03 C 615.44 219.4 614.41 220.66 614.41 222.17 C 614.41 223.96 615.87 225.42 617.66 225.42 C 619.46 225.42 620.92 223.96 620.92 222.17 C 620.92 220.89 620.17 219.79 619.1 219.26 L 619.1 216.92 L 622.82 216.92 C 623.45 216.92 623.95 216.42 623.95 215.79 L 623.95 214.15 C 625.03 213.61 625.78 212.52 625.78 211.24 C 625.78 209.44 624.32 207.98 622.52 207.98 C 620.73 207.98 619.26 209.44 619.26 211.24 C 619.26 212.75 620.3 214.01 621.69 214.37 L 621.69 214.66 L 613.63 214.66 L 613.63 206.48 L 618.6 203.51 L 628.98 209.84 L 628.98 216.8 C 628.98 217.21 629.2 217.58 629.55 217.78 L 635.05 220.9 L 635.06 224.38 L 624.65 224.38 C 624.02 224.38 623.52 224.89 623.52 225.51 L 623.52 231.06 L 621.18 231.06 C 620.65 229.99 619.55 229.24 618.27 229.24 C 616.47 229.24 615.01 230.7 615.01 232.49 C 615.01 234.29 616.47 235.75 618.27 235.75 C 619.78 235.75 621.04 234.71 621.41 233.32 L 624.65 233.32 C 625.27 233.32 625.78 232.81 625.78 232.19 L 625.78 226.64 L 635.06 226.64 L 635.06 230.72 Z M 604.91 230.89 C 605.46 230.89 605.9 231.34 605.9 231.89 C 605.9 232.44 605.46 232.88 604.91 232.88 C 604.36 232.88 603.91 232.44 603.91 231.89 C 603.91 231.34 604.36 230.89 604.91 230.89 Z M 603.31 213.06 C 603.31 212.51 603.75 212.06 604.3 212.06 C 604.85 212.06 605.3 212.51 605.3 213.06 C 605.3 213.61 604.85 214.06 604.3 214.06 C 603.75 214.06 603.31 213.61 603.31 213.06 Z M 599.22 222.17 C 599.22 222.72 598.78 223.16 598.23 223.16 C 597.68 223.16 597.23 222.72 597.23 222.17 C 597.23 221.62 597.68 221.17 598.23 221.17 C 598.78 221.17 599.22 221.62 599.22 222.17 Z M 605.13 241.6 C 605.13 241.05 605.57 240.61 606.12 240.61 C 606.67 240.61 607.12 241.05 607.12 241.6 C 607.12 242.15 606.67 242.6 606.12 242.6 C 605.57 242.6 605.13 242.15 605.13 241.6 Z M 606.79 248.5 L 596.02 242.13 L 596.02 235.14 C 596.02 234.73 595.79 234.35 595.43 234.15 L 595.03 233.93 L 598.01 233.93 L 598.01 241.91 C 598.01 242.53 598.51 243.04 599.14 243.04 L 603.21 243.04 C 603.75 244.11 604.84 244.86 606.12 244.86 C 607.92 244.86 609.38 243.4 609.38 241.6 C 609.38 239.81 607.92 238.35 606.12 238.35 C 604.62 238.35 603.36 239.38 602.99 240.78 L 600.27 240.78 L 600.27 232.8 C 600.27 232.17 599.76 231.67 599.14 231.67 L 590.92 231.67 L 589.95 231.13 L 589.94 220.9 L 595.44 217.78 C 595.8 217.58 596.02 217.21 596.02 216.8 L 596.02 213.88 L 597.4 213.88 L 597.4 219.03 C 596.01 219.4 594.97 220.66 594.97 222.17 C 594.97 223.96 596.43 225.42 598.23 225.42 C 600.02 225.42 601.48 223.96 601.48 222.17 C 601.48 220.89 600.74 219.79 599.66 219.26 L 599.66 213.88 L 601.17 213.88 C 601.53 215.28 602.79 216.32 604.3 216.32 C 606.1 216.32 607.56 214.85 607.56 213.06 C 607.56 211.27 606.1 209.8 604.3 209.8 C 603.02 209.8 601.93 210.55 601.39 211.63 L 596.02 211.63 L 596.02 209.83 L 606.4 203.51 L 611.37 206.48 L 611.37 219.52 L 604.6 219.52 C 603.98 219.52 603.47 220.03 603.47 220.65 L 603.47 228.98 C 602.4 229.51 601.65 230.61 601.65 231.89 C 601.65 233.68 603.11 235.14 604.91 235.14 C 606.7 235.14 608.16 233.68 608.16 231.89 C 608.16 230.38 607.13 229.12 605.73 228.75 L 605.73 221.78 L 611.37 221.78 L 611.37 245.78 Z M 637.31 220.24 C 637.31 219.84 637.1 219.46 636.74 219.26 L 631.24 216.14 L 631.24 209.2 C 631.24 208.81 631.04 208.44 630.7 208.24 L 619.19 201.22 C 618.83 201 618.38 201 618.02 201.22 L 612.5 204.52 L 606.98 201.22 C 606.61 201 606.16 201 605.81 201.22 L 594.3 208.24 C 593.96 208.44 593.76 208.81 593.76 209.2 L 593.76 216.14 L 588.26 219.26 C 587.9 219.46 587.68 219.84 587.68 220.24 L 587.69 231.8 C 587.69 232.21 587.91 232.59 588.27 232.79 L 593.76 235.81 L 593.76 242.78 C 593.76 243.18 593.97 243.55 594.31 243.75 L 606.22 250.79 C 606.57 251 607.01 251 607.37 250.79 L 612.13 247.96 L 617.03 250.8 C 617.21 250.9 617.4 250.95 617.6 250.95 C 617.8 250.95 618 250.89 618.17 250.79 L 630.08 243.75 C 630.42 243.55 630.63 243.18 630.63 242.78 L 630.63 235.8 L 636.74 232.36 C 637.1 232.16 637.32 231.79 637.32 231.38 Z" fill="#a20025" stroke="none" pointer-events="all" style="fill: light-dark(rgb(162, 0, 37), rgb(255, 255, 255));"/></g></g><g data-cell-id="SsyuM5CPjU2S2znVL6Bv-43"><g transform="translate(0.5,0.5)"><path d="M 496.37 225.21 L 581.32 225.79" fill="none" stroke="#000000" stroke-miterlimit="10" pointer-events="stroke" style="stroke: light-dark(rgb(0, 0, 0), rgb(255, 255, 255));"/><path d="M 491.12 225.17 L 498.14 221.72 L 496.37 225.21 L 498.09 228.72 Z" fill="#000000" stroke="#000000" stroke-miterlimit="10" pointer-events="all" style="fill: light-dark(rgb(0, 0, 0), rgb(255, 255, 255)); stroke: light-dark(rgb(0, 0, 0), rgb(255, 255, 255));"/><path d="M 586.57 225.82 L 579.54 229.27 L 581.32 225.79 L 579.59 222.27 Z" fill="#000000" stroke="#000000" stroke-miterlimit="10" pointer-events="all" style="fill: light-dark(rgb(0, 0, 0), rgb(255, 255, 255)); stroke: light-dark(rgb(0, 0, 0), rgb(255, 255, 255));"/></g></g><g data-cell-id="SsyuM5CPjU2S2znVL6Bv-44"><g transform="translate(0.5,0.5)"><rect x="100" y="0" width="120" height="40" fill="#ffffff" stroke="none" pointer-events="all" style="fill: light-dark(#ffffff, var(--ge-dark-color, #121212));"/><rect x="102" y="2" width="116" height="36" fill="#ffffff" stroke="none" pointer-events="all" style="fill: light-dark(#ffffff, var(--ge-dark-color, #121212));"/></g><g><g><switch><foreignObject style="overflow: visible; text-align: left;" pointer-events="none" width="100%" height="100%" requiredFeatures="http://www.w3.org/TR/SVG11/feature#Extensibility"><div xmlns="http://www.w3.org/1999/xhtml" style="display: flex; align-items: unsafe center; justify-content: unsafe center; width: 114px; height: 1px; padding-top: 20px; margin-left: 103px;"><div style="box-sizing: border-box; font-size: 0; text-align: center; color: #000000; "><div style="display: inline-block; font-size: 22px; font-family: Verdana; color: light-dark(#000000, #ffffff); line-height: 1.2; pointer-events: all; white-space: normal; word-wrap: normal; ">Before</div></div></div></foreignObject><text x="160" y="27" fill="light-dark(#000000, #ffffff)" font-family="Verdana" font-size="22px" text-anchor="middle">Before</text></switch></g></g></g><g data-cell-id="SsyuM5CPjU2S2znVL6Bv-45"><g transform="translate(0.5,0.5)"><rect x="552.5" y="0" width="120" height="40" fill="#ffffff" stroke="none" pointer-events="all" style="fill: light-dark(#ffffff, var(--ge-dark-color, #121212));"/><rect x="554.5" y="2" width="116" height="36" fill="#ffffff" stroke="none" pointer-events="all" style="fill: light-dark(#ffffff, var(--ge-dark-color, #121212));"/></g><g><g><switch><foreignObject style="overflow: visible; text-align: left;" pointer-events="none" width="100%" height="100%" requiredFeatures="http://www.w3.org/TR/SVG11/feature#Extensibility"><div xmlns="http://www.w3.org/1999/xhtml" style="display: flex; align-items: unsafe center; justify-content: unsafe center; width: 114px; height: 1px; padding-top: 20px; margin-left: 556px;"><div style="box-sizing: border-box; font-size: 0; text-align: center; color: #000000; "><div style="display: inline-block; font-size: 22px; font-family: Verdana; color: light-dark(#000000, #ffffff); line-height: 1.2; pointer-events: all; white-space: normal; word-wrap: normal; ">After</div></div></div></foreignObject><text x="613" y="27" fill="light-dark(#000000, #ffffff)" font-family="Verdana" font-size="22px" text-anchor="middle">After</text></switch></g></g></g></g></g></g><switch><g requiredFeatures="http://www.w3.org/TR/SVG11/feature#Extensibility"/><a transform="translate(0,-5)" xlink:href="https://www.drawio.com/doc/faq/svg-export-text-problems" target="_blank"><text text-anchor="middle" font-size="10px" x="50%" y="100%">Text is not SVG - cannot display</text></a></switch></svg>