<?xml version="1.0" encoding="UTF-8"?>
<!-- Do not edit this file with editors other than draw.io -->
<!DOCTYPE svg PUBLIC "-//W3C//DTD SVG 1.1//EN" "http://www.w3.org/Graphics/SVG/1.1/DTD/svg11.dtd">
<svg xmlns="http://www.w3.org/2000/svg" style="background: transparent; background-color: transparent; color-scheme: light dark;" xmlns:xlink="http://www.w3.org/1999/xlink" version="1.1" width="583px" height="336px" viewBox="0 0 583 336" content="&lt;mxfile host=&quot;Electron&quot; agent=&quot;Mozilla/5.0 (Windows NT 10.0; Win64; x64) AppleWebKit/537.36 (KHTML, like Gecko) draw.io/29.6.6 Chrome/144.0.7559.236 Electron/40.8.4 Safari/537.36&quot;&gt;&#10;  &lt;diagram name=&quot;ページ-1&quot; id=&quot;dz9wratpxz4pcRpzG0q4&quot;&gt;&#10;    &lt;mxGraphModel dx=&quot;888&quot; dy=&quot;735&quot; grid=&quot;1&quot; gridSize=&quot;10&quot; guides=&quot;1&quot; tooltips=&quot;1&quot; connect=&quot;1&quot; arrows=&quot;1&quot; fold=&quot;1&quot; page=&quot;1&quot; pageScale=&quot;1&quot; pageWidth=&quot;827&quot; pageHeight=&quot;1169&quot; math=&quot;0&quot; shadow=&quot;0&quot;&gt;&#10;      &lt;root&gt;&#10;        &lt;mxCell id=&quot;0&quot; /&gt;&#10;        &lt;mxCell id=&quot;1&quot; parent=&quot;0&quot; /&gt;&#10;        &lt;mxCell id=&quot;SsyuM5CPjU2S2znVL6Bv-1&quot; parent=&quot;1&quot; style=&quot;verticalLabelPosition=bottom;html=1;verticalAlign=top;align=center;strokeColor=none;fillColor=#00BEF2;shape=mxgraph.azure.user;&quot; value=&quot;&quot; vertex=&quot;1&quot;&gt;&#10;          &lt;mxGeometry height=&quot;70&quot; width=&quot;70&quot; x=&quot;200&quot; y=&quot;345.75&quot; as=&quot;geometry&quot; /&gt;&#10;        &lt;/mxCell&gt;&#10;        &lt;mxCell id=&quot;SsyuM5CPjU2S2znVL6Bv-3&quot; parent=&quot;1&quot; style=&quot;dashed=0;outlineConnect=0;html=1;align=center;labelPosition=center;verticalLabelPosition=bottom;verticalAlign=top;shape=mxgraph.weblogos.github&quot; value=&quot;&quot; vertex=&quot;1&quot;&gt;&#10;          &lt;mxGeometry height=&quot;62.5&quot; width=&quot;55.59&quot; x=&quot;154.41&quot; y=&quot;267.5&quot; as=&quot;geometry&quot; /&gt;&#10;        &lt;/mxCell&gt;&#10;        &lt;mxCell id=&quot;SsyuM5CPjU2S2znVL6Bv-4&quot; parent=&quot;1&quot; style=&quot;verticalLabelPosition=bottom;html=1;verticalAlign=top;align=center;strokeColor=none;fillColor=#00BEF2;shape=mxgraph.azure.visual_studio_online;&quot; value=&quot;&quot; vertex=&quot;1&quot;&gt;&#10;          &lt;mxGeometry height=&quot;25&quot; width=&quot;30&quot; x=&quot;180&quot; y=&quot;307.5&quot; as=&quot;geometry&quot; /&gt;&#10;        &lt;/mxCell&gt;&#10;        &lt;mxCell id=&quot;SsyuM5CPjU2S2znVL6Bv-6&quot; parent=&quot;1&quot; style=&quot;sketch=0;outlineConnect=0;dashed=0;verticalLabelPosition=bottom;verticalAlign=top;align=center;html=1;fontSize=12;fontStyle=0;aspect=fixed;pointerEvents=1;shape=mxgraph.aws4.sagemaker_model;fillColor=light-dark(#a20025, #ffffff);strokeColor=#6F0000;fontColor=#ffffff;&quot; value=&quot;&quot; vertex=&quot;1&quot;&gt;&#10;          &lt;mxGeometry height=&quot;43&quot; width=&quot;43&quot; x=&quot;120&quot; y=&quot;370.5&quot; as=&quot;geometry&quot; /&gt;&#10;        &lt;/mxCell&gt;&#10;        &lt;mxCell id=&quot;SsyuM5CPjU2S2znVL6Bv-7&quot; parent=&quot;1&quot; style=&quot;sketch=0;points=[[0,0,0],[0.25,0,0],[0.5,0,0],[0.75,0,0],[1,0,0],[0,1,0],[0.25,1,0],[0.5,1,0],[0.75,1,0],[1,1,0],[0,0.25,0],[0,0.5,0],[0,0.75,0],[1,0.25,0],[1,0.5,0],[1,0.75,0]];outlineConnect=0;fontColor=#232F3E;fillColor=#ED7100;strokeColor=#ffffff;dashed=0;verticalLabelPosition=bottom;verticalAlign=top;align=center;html=1;fontSize=12;fontStyle=0;aspect=fixed;shape=mxgraph.aws4.resourceIcon;resIcon=mxgraph.aws4.ec2;&quot; value=&quot;&quot; vertex=&quot;1&quot;&gt;&#10;          &lt;mxGeometry height=&quot;62&quot; width=&quot;62&quot; x=&quot;290&quot; y=&quot;361&quot; as=&quot;geometry&quot; /&gt;&#10;        &lt;/mxCell&gt;&#10;        &lt;mxCell id=&quot;SsyuM5CPjU2S2znVL6Bv-8&quot; parent=&quot;1&quot; style=&quot;sketch=0;outlineConnect=0;fontColor=#000000;fillColor=#fa6800;strokeColor=#C73500;dashed=0;verticalLabelPosition=bottom;verticalAlign=top;align=center;html=1;fontSize=12;fontStyle=0;aspect=fixed;pointerEvents=1;shape=mxgraph.aws4.sagemaker_model;&quot; value=&quot;&quot; vertex=&quot;1&quot;&gt;&#10;          &lt;mxGeometry height=&quot;40&quot; width=&quot;40&quot; x=&quot;270&quot; y=&quot;278.75&quot; as=&quot;geometry&quot; /&gt;&#10;        &lt;/mxCell&gt;&#10;        &lt;mxCell id=&quot;SsyuM5CPjU2S2znVL6Bv-9&quot; parent=&quot;1&quot; style=&quot;outlineConnect=0;dashed=0;verticalLabelPosition=bottom;verticalAlign=top;align=center;html=1;shape=mxgraph.aws3.hardware_board;fillColor=#60a917;fontColor=#ffffff;strokeColor=#2D7600;&quot; value=&quot;&quot; vertex=&quot;1&quot;&gt;&#10;          &lt;mxGeometry height=&quot;60&quot; width=&quot;49.12&quot; x=&quot;170.44&quot; y=&quot;465&quot; as=&quot;geometry&quot; /&gt;&#10;        &lt;/mxCell&gt;&#10;        &lt;mxCell id=&quot;SsyuM5CPjU2S2znVL6Bv-10&quot; parent=&quot;1&quot; style=&quot;sketch=0;outlineConnect=0;fontColor=#ffffff;fillColor=#60a917;strokeColor=#2D7600;dashed=0;verticalLabelPosition=bottom;verticalAlign=top;align=center;html=1;fontSize=12;fontStyle=0;aspect=fixed;pointerEvents=1;shape=mxgraph.aws4.sagemaker_model;&quot; value=&quot;&quot; vertex=&quot;1&quot;&gt;&#10;          &lt;mxGeometry height=&quot;40&quot; width=&quot;40&quot; x=&quot;262&quot; y=&quot;475&quot; as=&quot;geometry&quot; /&gt;&#10;        &lt;/mxCell&gt;&#10;        &lt;mxCell id=&quot;SsyuM5CPjU2S2znVL6Bv-12&quot; edge=&quot;1&quot; parent=&quot;1&quot; source=&quot;SsyuM5CPjU2S2znVL6Bv-9&quot; style=&quot;endArrow=classic;startArrow=classic;html=1;rounded=0;exitX=0.5;exitY=0;exitDx=0;exitDy=0;exitPerimeter=0;&quot; value=&quot;&quot;&gt;&#10;          &lt;mxGeometry height=&quot;50&quot; relative=&quot;1&quot; width=&quot;50&quot; as=&quot;geometry&quot;&gt;&#10;            &lt;mxPoint x=&quot;199.13&quot; y=&quot;480&quot; as=&quot;sourcePoint&quot; /&gt;&#10;            &lt;mxPoint x=&quot;220&quot; y=&quot;420&quot; as=&quot;targetPoint&quot; /&gt;&#10;          &lt;/mxGeometry&gt;&#10;        &lt;/mxCell&gt;&#10;        &lt;mxCell id=&quot;SsyuM5CPjU2S2znVL6Bv-13&quot; edge=&quot;1&quot; parent=&quot;1&quot; source=&quot;SsyuM5CPjU2S2znVL6Bv-10&quot; style=&quot;endArrow=classic;startArrow=classic;html=1;rounded=0;&quot; value=&quot;&quot;&gt;&#10;          &lt;mxGeometry height=&quot;50&quot; relative=&quot;1&quot; width=&quot;50&quot; as=&quot;geometry&quot;&gt;&#10;            &lt;mxPoint x=&quot;210&quot; y=&quot;500&quot; as=&quot;sourcePoint&quot; /&gt;&#10;            &lt;mxPoint x=&quot;250&quot; y=&quot;420&quot; as=&quot;targetPoint&quot; /&gt;&#10;          &lt;/mxGeometry&gt;&#10;        &lt;/mxCell&gt;&#10;        &lt;mxCell id=&quot;SsyuM5CPjU2S2znVL6Bv-14&quot; edge=&quot;1&quot; parent=&quot;1&quot; source=&quot;SsyuM5CPjU2S2znVL6Bv-10&quot; style=&quot;endArrow=classic;startArrow=classic;html=1;rounded=0;entryX=1;entryY=0.5;entryDx=0;entryDy=0;entryPerimeter=0;&quot; target=&quot;SsyuM5CPjU2S2znVL6Bv-9&quot; value=&quot;&quot;&gt;&#10;          &lt;mxGeometry height=&quot;50&quot; relative=&quot;1&quot; width=&quot;50&quot; as=&quot;geometry&quot;&gt;&#10;            &lt;mxPoint x=&quot;393&quot; y=&quot;660&quot; as=&quot;sourcePoint&quot; /&gt;&#10;            &lt;mxPoint x=&quot;360&quot; y=&quot;590&quot; as=&quot;targetPoint&quot; /&gt;&#10;          &lt;/mxGeometry&gt;&#10;        &lt;/mxCell&gt;&#10;        &lt;mxCell id=&quot;SsyuM5CPjU2S2znVL6Bv-15&quot; edge=&quot;1&quot; parent=&quot;1&quot; source=&quot;SsyuM5CPjU2S2znVL6Bv-7&quot; style=&quot;endArrow=classic;startArrow=classic;html=1;rounded=0;entryX=0.87;entryY=0.65;entryDx=0;entryDy=0;entryPerimeter=0;&quot; target=&quot;SsyuM5CPjU2S2znVL6Bv-1&quot; value=&quot;&quot;&gt;&#10;          &lt;mxGeometry height=&quot;50&quot; relative=&quot;1&quot; width=&quot;50&quot; as=&quot;geometry&quot;&gt;&#10;            &lt;mxPoint x=&quot;334&quot; y=&quot;465&quot; as=&quot;sourcePoint&quot; /&gt;&#10;            &lt;mxPoint x=&quot;270&quot; y=&quot;390&quot; as=&quot;targetPoint&quot; /&gt;&#10;          &lt;/mxGeometry&gt;&#10;        &lt;/mxCell&gt;&#10;        &lt;mxCell id=&quot;SsyuM5CPjU2S2znVL6Bv-16&quot; edge=&quot;1&quot; parent=&quot;1&quot; source=&quot;SsyuM5CPjU2S2znVL6Bv-7&quot; style=&quot;endArrow=classic;startArrow=classic;html=1;rounded=0;exitX=0.5;exitY=0;exitDx=0;exitDy=0;exitPerimeter=0;&quot; target=&quot;SsyuM5CPjU2S2znVL6Bv-8&quot; value=&quot;&quot;&gt;&#10;          &lt;mxGeometry height=&quot;50&quot; relative=&quot;1&quot; width=&quot;50&quot; as=&quot;geometry&quot;&gt;&#10;            &lt;mxPoint x=&quot;320&quot; y=&quot;330&quot; as=&quot;sourcePoint&quot; /&gt;&#10;            &lt;mxPoint x=&quot;250&quot; y=&quot;333&quot; as=&quot;targetPoint&quot; /&gt;&#10;          &lt;/mxGeometry&gt;&#10;        &lt;/mxCell&gt;&#10;        &lt;mxCell id=&quot;SsyuM5CPjU2S2znVL6Bv-17&quot; edge=&quot;1&quot; parent=&quot;1&quot; source=&quot;SsyuM5CPjU2S2znVL6Bv-8&quot; style=&quot;endArrow=classic;startArrow=classic;html=1;rounded=0;&quot; value=&quot;&quot;&gt;&#10;          &lt;mxGeometry height=&quot;50&quot; relative=&quot;1&quot; width=&quot;50&quot; as=&quot;geometry&quot;&gt;&#10;            &lt;mxPoint x=&quot;327.5&quot; y=&quot;360&quot; as=&quot;sourcePoint&quot; /&gt;&#10;            &lt;mxPoint x=&quot;260&quot; y=&quot;360&quot; as=&quot;targetPoint&quot; /&gt;&#10;          &lt;/mxGeometry&gt;&#10;        &lt;/mxCell&gt;&#10;        &lt;mxCell id=&quot;SsyuM5CPjU2S2znVL6Bv-18&quot; edge=&quot;1&quot; parent=&quot;1&quot; source=&quot;SsyuM5CPjU2S2znVL6Bv-6&quot; style=&quot;endArrow=classic;startArrow=classic;html=1;rounded=0;entryX=0.14;entryY=0.65;entryDx=0;entryDy=0;entryPerimeter=0;&quot; target=&quot;SsyuM5CPjU2S2znVL6Bv-1&quot; value=&quot;&quot;&gt;&#10;          &lt;mxGeometry height=&quot;50&quot; relative=&quot;1&quot; width=&quot;50&quot; as=&quot;geometry&quot;&gt;&#10;            &lt;mxPoint x=&quot;330&quot; y=&quot;330&quot; as=&quot;sourcePoint&quot; /&gt;&#10;            &lt;mxPoint x=&quot;290&quot; y=&quot;397&quot; as=&quot;targetPoint&quot; /&gt;&#10;          &lt;/mxGeometry&gt;&#10;        &lt;/mxCell&gt;&#10;        &lt;mxCell id=&quot;SsyuM5CPjU2S2znVL6Bv-19&quot; edge=&quot;1&quot; parent=&quot;1&quot; source=&quot;SsyuM5CPjU2S2znVL6Bv-6&quot; style=&quot;endArrow=classic;startArrow=classic;html=1;rounded=0;&quot; target=&quot;SsyuM5CPjU2S2znVL6Bv-3&quot; value=&quot;&quot;&gt;&#10;          &lt;mxGeometry height=&quot;50&quot; relative=&quot;1&quot; width=&quot;50&quot; as=&quot;geometry&quot;&gt;&#10;            &lt;mxPoint x=&quot;95&quot; y=&quot;360&quot; as=&quot;sourcePoint&quot; /&gt;&#10;            &lt;mxPoint x=&quot;267&quot; y=&quot;392&quot; as=&quot;targetPoint&quot; /&gt;&#10;          &lt;/mxGeometry&gt;&#10;        &lt;/mxCell&gt;&#10;        &lt;mxCell id=&quot;SsyuM5CPjU2S2znVL6Bv-20&quot; edge=&quot;1&quot; parent=&quot;1&quot; source=&quot;SsyuM5CPjU2S2znVL6Bv-1&quot; style=&quot;endArrow=classic;startArrow=classic;html=1;rounded=0;entryX=0.755;entryY=1;entryDx=0;entryDy=0;entryPerimeter=0;exitX=0.28;exitY=0.28;exitDx=0;exitDy=0;exitPerimeter=0;&quot; target=&quot;SsyuM5CPjU2S2znVL6Bv-4&quot; value=&quot;&quot;&gt;&#10;          &lt;mxGeometry height=&quot;50&quot; relative=&quot;1&quot; width=&quot;50&quot; as=&quot;geometry&quot;&gt;&#10;            &lt;mxPoint x=&quot;120&quot; y=&quot;405&quot; as=&quot;sourcePoint&quot; /&gt;&#10;            &lt;mxPoint x=&quot;151&quot; y=&quot;350&quot; as=&quot;targetPoint&quot; /&gt;&#10;          &lt;/mxGeometry&gt;&#10;        &lt;/mxCell&gt;&#10;        &lt;mxCell id=&quot;SsyuM5CPjU2S2znVL6Bv-44&quot; parent=&quot;1&quot; style=&quot;shape=ext;double=1;rounded=0;whiteSpace=wrap;html=1;strokeColor=none;fontSize=22;fontFamily=Verdana;&quot; value=&quot;Before&quot; vertex=&quot;1&quot;&gt;&#10;          &lt;mxGeometry height=&quot;40&quot; width=&quot;120&quot; x=&quot;182&quot; y=&quot;190&quot; as=&quot;geometry&quot; /&gt;&#10;        &lt;/mxCell&gt;&#10;        &lt;mxCell id=&quot;SsyuM5CPjU2S2znVL6Bv-45&quot; parent=&quot;1&quot; style=&quot;shape=ext;double=1;rounded=0;whiteSpace=wrap;html=1;strokeColor=none;fontSize=22;fontFamily=Verdana;&quot; value=&quot;After&quot; vertex=&quot;1&quot;&gt;&#10;          &lt;mxGeometry height=&quot;40&quot; width=&quot;120&quot; x=&quot;525.75&quot; y=&quot;190&quot; as=&quot;geometry&quot; /&gt;&#10;        &lt;/mxCell&gt;&#10;        &lt;mxCell id=&quot;r97UvT9XQOnO8FFBTGnk-4&quot; parent=&quot;1&quot; style=&quot;dashed=0;outlineConnect=0;html=1;align=center;labelPosition=center;verticalLabelPosition=bottom;verticalAlign=top;shape=mxgraph.weblogos.github&quot; value=&quot;&quot; vertex=&quot;1&quot;&gt;&#10;          &lt;mxGeometry height=&quot;62.5&quot; width=&quot;55.59&quot; x=&quot;504.40999999999997&quot; y=&quot;256.25&quot; as=&quot;geometry&quot; /&gt;&#10;        &lt;/mxCell&gt;&#10;        &lt;mxCell id=&quot;r97UvT9XQOnO8FFBTGnk-5&quot; parent=&quot;1&quot; style=&quot;verticalLabelPosition=bottom;html=1;verticalAlign=top;align=center;strokeColor=none;fillColor=#00BEF2;shape=mxgraph.azure.visual_studio_online;&quot; value=&quot;&quot; vertex=&quot;1&quot;&gt;&#10;          &lt;mxGeometry height=&quot;25&quot; width=&quot;30&quot; x=&quot;530&quot; y=&quot;296.25&quot; as=&quot;geometry&quot; /&gt;&#10;        &lt;/mxCell&gt;&#10;        &lt;mxCell id=&quot;r97UvT9XQOnO8FFBTGnk-7&quot; parent=&quot;1&quot; style=&quot;sketch=0;points=[[0,0,0],[0.25,0,0],[0.5,0,0],[0.75,0,0],[1,0,0],[0,1,0],[0.25,1,0],[0.5,1,0],[0.75,1,0],[1,1,0],[0,0.25,0],[0,0.5,0],[0,0.75,0],[1,0.25,0],[1,0.5,0],[1,0.75,0]];outlineConnect=0;fontColor=#232F3E;fillColor=#ED7100;strokeColor=#ffffff;dashed=0;verticalLabelPosition=bottom;verticalAlign=top;align=center;html=1;fontSize=12;fontStyle=0;aspect=fixed;shape=mxgraph.aws4.resourceIcon;resIcon=mxgraph.aws4.ec2;&quot; value=&quot;&quot; vertex=&quot;1&quot;&gt;&#10;          &lt;mxGeometry height=&quot;62&quot; width=&quot;62&quot; x=&quot;640&quot; y=&quot;349.75&quot; as=&quot;geometry&quot; /&gt;&#10;        &lt;/mxCell&gt;&#10;        &lt;mxCell id=&quot;r97UvT9XQOnO8FFBTGnk-9&quot; parent=&quot;1&quot; style=&quot;outlineConnect=0;dashed=0;verticalLabelPosition=bottom;verticalAlign=top;align=center;html=1;shape=mxgraph.aws3.hardware_board;fillColor=#60a917;fontColor=#ffffff;strokeColor=#2D7600;&quot; value=&quot;&quot; vertex=&quot;1&quot;&gt;&#10;          &lt;mxGeometry height=&quot;60&quot; width=&quot;49.12&quot; x=&quot;520.44&quot; y=&quot;453.75&quot; as=&quot;geometry&quot; /&gt;&#10;        &lt;/mxCell&gt;&#10;        &lt;mxCell id=&quot;r97UvT9XQOnO8FFBTGnk-11&quot; edge=&quot;1&quot; parent=&quot;1&quot; source=&quot;r97UvT9XQOnO8FFBTGnk-9&quot; style=&quot;endArrow=classic;startArrow=classic;html=1;rounded=0;exitX=0.5;exitY=0;exitDx=0;exitDy=0;exitPerimeter=0;&quot; target=&quot;r97UvT9XQOnO8FFBTGnk-20&quot; value=&quot;&quot;&gt;&#10;          &lt;mxGeometry height=&quot;50&quot; relative=&quot;1&quot; width=&quot;50&quot; as=&quot;geometry&quot;&gt;&#10;            &lt;mxPoint x=&quot;549.13&quot; y=&quot;468.75&quot; as=&quot;sourcePoint&quot; /&gt;&#10;            &lt;mxPoint x=&quot;570&quot; y=&quot;408.75&quot; as=&quot;targetPoint&quot; /&gt;&#10;          &lt;/mxGeometry&gt;&#10;        &lt;/mxCell&gt;&#10;        &lt;mxCell id=&quot;r97UvT9XQOnO8FFBTGnk-14&quot; edge=&quot;1&quot; parent=&quot;1&quot; source=&quot;r97UvT9XQOnO8FFBTGnk-7&quot; style=&quot;endArrow=classic;startArrow=classic;html=1;rounded=0;&quot; target=&quot;r97UvT9XQOnO8FFBTGnk-20&quot; value=&quot;&quot;&gt;&#10;          &lt;mxGeometry height=&quot;50&quot; relative=&quot;1&quot; width=&quot;50&quot; as=&quot;geometry&quot;&gt;&#10;            &lt;mxPoint x=&quot;684&quot; y=&quot;453.75&quot; as=&quot;sourcePoint&quot; /&gt;&#10;            &lt;mxPoint x=&quot;601.325&quot; y=&quot;381.25&quot; as=&quot;targetPoint&quot; /&gt;&#10;          &lt;/mxGeometry&gt;&#10;        &lt;/mxCell&gt;&#10;        &lt;mxCell id=&quot;r97UvT9XQOnO8FFBTGnk-19&quot; edge=&quot;1&quot; parent=&quot;1&quot; source=&quot;r97UvT9XQOnO8FFBTGnk-20&quot; style=&quot;endArrow=classic;startArrow=classic;html=1;rounded=0;entryX=0.755;entryY=1;entryDx=0;entryDy=0;entryPerimeter=0;&quot; target=&quot;r97UvT9XQOnO8FFBTGnk-5&quot; value=&quot;&quot;&gt;&#10;          &lt;mxGeometry height=&quot;50&quot; relative=&quot;1&quot; width=&quot;50&quot; as=&quot;geometry&quot;&gt;&#10;            &lt;mxPoint x=&quot;568.9404761904759&quot; y=&quot;348.75&quot; as=&quot;sourcePoint&quot; /&gt;&#10;            &lt;mxPoint x=&quot;501&quot; y=&quot;338.75&quot; as=&quot;targetPoint&quot; /&gt;&#10;          &lt;/mxGeometry&gt;&#10;        &lt;/mxCell&gt;&#10;        &lt;mxCell id=&quot;r97UvT9XQOnO8FFBTGnk-20&quot; parent=&quot;1&quot; style=&quot;sketch=0;outlineConnect=0;dashed=0;verticalLabelPosition=bottom;verticalAlign=top;align=center;html=1;fontSize=12;fontStyle=0;aspect=fixed;pointerEvents=1;shape=mxgraph.aws4.sagemaker_model;fillColor=light-dark(#E51400,#FF0000);strokeColor=#B20000;fontColor=#ffffff;&quot; value=&quot;&quot; vertex=&quot;1&quot;&gt;&#10;          &lt;mxGeometry height=&quot;74&quot; width=&quot;74&quot; x=&quot;540&quot; y=&quot;345.75&quot; as=&quot;geometry&quot; /&gt;&#10;        &lt;/mxCell&gt;&#10;        &lt;mxCell id=&quot;r97UvT9XQOnO8FFBTGnk-22&quot; edge=&quot;1&quot; parent=&quot;1&quot; source=&quot;r97UvT9XQOnO8FFBTGnk-23&quot; style=&quot;endArrow=classic;startArrow=classic;html=1;rounded=0;exitX=0.736;exitY=0.587;exitDx=0;exitDy=0;exitPerimeter=0;&quot; target=&quot;r97UvT9XQOnO8FFBTGnk-20&quot; value=&quot;&quot;&gt;&#10;          &lt;mxGeometry height=&quot;50&quot; relative=&quot;1&quot; width=&quot;50&quot; as=&quot;geometry&quot;&gt;&#10;            &lt;mxPoint x=&quot;520&quot; y=&quot;380&quot; as=&quot;sourcePoint&quot; /&gt;&#10;            &lt;mxPoint x=&quot;558.75&quot; y=&quot;381.25&quot; as=&quot;targetPoint&quot; /&gt;&#10;          &lt;/mxGeometry&gt;&#10;        &lt;/mxCell&gt;&#10;        &lt;mxCell id=&quot;r97UvT9XQOnO8FFBTGnk-23&quot; parent=&quot;1&quot; style=&quot;verticalLabelPosition=bottom;html=1;verticalAlign=top;align=center;strokeColor=none;fillColor=#00BEF2;shape=mxgraph.azure.user;&quot; value=&quot;&quot; vertex=&quot;1&quot;&gt;&#10;          &lt;mxGeometry height=&quot;35.75&quot; width=&quot;30&quot; x=&quot;460&quot; y=&quot;361&quot; as=&quot;geometry&quot; /&gt;&#10;        &lt;/mxCell&gt;&#10;      &lt;/root&gt;&#10;    &lt;/mxGraphModel&gt;&#10;  &lt;/diagram&gt;&#10;&lt;/mxfile&gt;&#10;"><defs/><g><g data-cell-id="0"><g data-cell-id="1"><g data-cell-id="SsyuM5CPjU2S2znVL6Bv-1"><g transform="translate(0.5,0.5)"><path d="M 100.01 175.89 C 99.91 170.6 101.78 165.49 105.21 161.7 C 108.64 157.91 113.35 155.77 118.26 155.75 C 129.22 155.86 138.16 164.82 138.57 176.1 C 138.98 181.29 137.32 186.43 133.98 190.31 C 130.64 194.2 125.92 196.5 120.9 196.67 C 109.8 196.89 100.55 187.69 100.01 175.89 Z M 80 225.75 C 80.44 215.91 84.3 206.74 90.63 200.47 C 95.65 195.73 102.65 195.45 107.93 199.76 C 110.94 201.88 114.25 203.59 117.75 204.83 C 121.35 206.32 125.29 206.07 128.74 204.13 C 130.63 203.26 132.31 202.01 133.65 200.47 C 134.99 198.95 137.3 198.65 139.01 199.76 C 142.02 201.69 144.72 205.09 146.85 209.62 C 148.9 214.77 149.97 220.23 150 225.74 Z" fill="#00bef2" stroke="none" pointer-events="all" style="fill: light-dark(rgb(0, 190, 242), rgb(0, 137, 182));"/></g></g><g data-cell-id="SsyuM5CPjU2S2znVL6Bv-3"><g transform="translate(0.5,0.5)"><path d="M 62.27 140 C 45.88 140 34.41 124.98 34.41 108.99 C 34.41 89.87 48.1 77.5 62.48 77.5 C 76.33 77.5 90 90.28 90 108.74 C 90 125.28 78.3 140 62.27 140 Z" fill="#0d2636" stroke="none" pointer-events="all" style="fill: light-dark(rgb(13, 38, 54), rgb(189, 211, 224));"/><path d="M 56.26 133.16 C 56.26 134.51 55.35 135.07 53.99 134.54 C 45.76 131.3 37.85 121.29 37.85 108.79 C 37.85 91.88 50.71 81.22 61.86 81.22 C 76.33 81.22 86.63 94.56 86.63 108.63 C 86.63 120.24 79.98 130.93 70.02 134.68 C 68.89 135.02 68.2 134.34 68.2 133.23 L 68.2 125.09 C 68.2 123.52 67.62 121.84 66.57 120.67 C 70.62 120.15 73.07 119.02 74.95 116.84 C 76.79 114.78 77.62 111.76 77.78 108.02 C 77.88 105.06 77.17 102.17 75.26 99.96 C 75.93 98.14 76.04 95.73 75.03 92.74 C 73.03 92.57 70.75 93.92 68.41 95.54 C 64.31 94.34 60.21 94.18 56.1 95.61 C 54.27 94.27 52.6 92.76 49.42 92.74 C 48.58 95.38 48.45 97.78 49.17 99.91 C 46.9 102.75 46.64 105.53 46.68 108.31 C 46.93 113.66 48.67 116.37 50.61 117.98 C 52.21 119.32 54.47 120.16 57.9 120.73 C 56.98 121.76 56.46 122.98 56.37 124.41 C 54.36 125.45 51.47 125.97 49.49 122.82 C 48.61 121.24 47.4 119.45 45.12 119.46 C 44.74 119.44 44.37 119.61 44.32 119.79 C 44.26 119.99 44.47 120.41 44.73 120.57 C 46.73 122 47.06 122.81 47.87 124.76 C 48.63 127.05 49.95 127.94 51.37 128.55 C 52.82 129.13 55.18 128.97 56.26 128.55 Z" fill="#ffffff" stroke="none" pointer-events="all" style="fill: light-dark(rgb(255, 255, 255), rgb(18, 18, 18));"/></g></g><g data-cell-id="SsyuM5CPjU2S2znVL6Bv-4"><g transform="translate(0.5,0.5)"><path d="M 60 123.84 L 62.89 122.64 L 70.51 127.77 L 82.69 117.5 L 90 120.07 L 90 139.93 L 82.69 142.5 L 70.51 132.57 L 62.74 137.53 L 60 136.16 Z M 62.74 126.06 L 62.74 133.94 L 67.61 130.17 Z M 74.62 130.17 L 82.69 135.31 L 82.69 124.69 Z" fill="#00bef2" stroke="none" pointer-events="all" style="fill: light-dark(rgb(0, 190, 242), rgb(0, 137, 182));"/></g></g><g data-cell-id="SsyuM5CPjU2S2znVL6Bv-6"><g transform="translate(0.5,0.5)"><rect x="0" y="180.5" width="43" height="43" fill="none" stroke="none" pointer-events="all"/><path d="M 27.32 207.58 C 27.32 208.06 26.93 208.44 26.46 208.44 C 25.99 208.44 25.61 208.06 25.61 207.58 C 25.61 207.11 25.99 206.73 26.46 206.73 C 26.93 206.73 27.32 207.11 27.32 207.58 Z M 30.12 190.16 C 29.65 190.16 29.26 189.78 29.26 189.3 C 29.26 188.83 29.65 188.45 30.12 188.45 C 30.59 188.45 30.97 188.83 30.97 189.3 C 30.97 189.78 30.59 190.16 30.12 190.16 Z M 26.8 198.71 C 26.8 199.18 26.41 199.56 25.94 199.56 C 25.47 199.56 25.08 199.18 25.08 198.71 C 25.08 198.23 25.47 197.85 25.94 197.85 C 26.41 197.85 26.8 198.23 26.8 198.71 Z M 31.35 213.85 C 31.35 213.38 31.73 213 32.21 213 C 32.68 213 33.06 213.38 33.06 213.85 C 33.06 214.32 32.68 214.71 32.21 214.71 C 31.73 214.71 31.35 214.32 31.35 213.85 Z M 35.65 209.02 C 35.34 209.19 35.15 209.51 35.15 209.86 L 35.15 215.88 L 28.22 219.98 L 28.22 215.08 L 29.71 215.08 C 30.16 216.01 31.11 216.65 32.21 216.65 C 33.75 216.65 35.01 215.4 35.01 213.85 C 35.01 212.31 33.75 211.05 32.21 211.05 C 30.91 211.05 29.83 211.94 29.51 213.14 L 27.24 213.14 C 26.71 213.14 26.27 213.58 26.27 214.11 L 26.27 221.13 L 25.88 221.36 L 22.47 219.38 L 22.47 194.19 L 25.23 194.19 L 25.23 196.01 C 24.03 196.33 23.14 197.41 23.14 198.71 C 23.14 200.25 24.4 201.5 25.94 201.5 C 27.48 201.5 28.74 200.25 28.74 198.71 C 28.74 197.61 28.1 196.66 27.17 196.21 L 27.17 194.19 L 30.38 194.19 C 30.92 194.19 31.35 193.76 31.35 193.22 L 31.35 191.81 C 32.27 191.35 32.92 190.4 32.92 189.3 C 32.92 187.76 31.66 186.5 30.12 186.5 C 28.57 186.5 27.32 187.76 27.32 189.3 C 27.32 190.6 28.21 191.68 29.41 192 L 29.41 192.25 L 22.47 192.25 L 22.47 185.21 L 26.74 182.66 L 35.67 188.1 L 35.68 194.09 C 35.68 194.44 35.86 194.76 36.17 194.93 L 40.9 197.62 L 40.9 200.61 L 31.95 200.61 C 31.41 200.61 30.97 201.04 30.97 201.58 L 30.97 206.35 L 28.96 206.35 C 28.5 205.43 27.56 204.79 26.46 204.79 C 24.92 204.79 23.66 206.04 23.66 207.58 C 23.66 209.13 24.92 210.38 26.46 210.38 C 27.76 210.38 28.84 209.49 29.16 208.29 L 31.95 208.29 C 32.48 208.29 32.92 207.86 32.92 207.32 L 32.92 202.55 L 40.9 202.55 L 40.9 206.06 Z M 14.97 206.21 C 15.44 206.21 15.83 206.59 15.83 207.06 C 15.83 207.53 15.44 207.92 14.97 207.92 C 14.5 207.92 14.11 207.53 14.11 207.06 C 14.11 206.59 14.5 206.21 14.97 206.21 Z M 13.59 190.87 C 13.59 190.4 13.98 190.01 14.45 190.01 C 14.92 190.01 15.31 190.4 15.31 190.87 C 15.31 191.34 14.92 191.73 14.45 191.73 C 13.98 191.73 13.59 191.34 13.59 190.87 Z M 10.08 198.71 C 10.08 199.18 9.7 199.56 9.23 199.56 C 8.75 199.56 8.37 199.18 8.37 198.71 C 8.37 198.23 8.75 197.85 9.23 197.85 C 9.7 197.85 10.08 198.23 10.08 198.71 Z M 15.16 215.42 C 15.16 214.95 15.54 214.56 16.02 214.56 C 16.49 214.56 16.87 214.95 16.87 215.42 C 16.87 215.89 16.49 216.28 16.02 216.28 C 15.54 216.28 15.16 215.89 15.16 215.42 Z M 16.59 221.35 L 7.32 215.87 L 7.33 209.86 C 7.33 209.51 7.13 209.18 6.82 209.01 L 6.47 208.82 L 9.04 208.82 L 9.04 215.68 C 9.04 216.22 9.47 216.65 10.01 216.65 L 13.51 216.65 C 13.97 217.57 14.92 218.22 16.02 218.22 C 17.56 218.22 18.82 216.96 18.82 215.42 C 18.82 213.88 17.56 212.62 16.02 212.62 C 14.72 212.62 13.64 213.51 13.32 214.71 L 10.98 214.71 L 10.98 207.85 C 10.98 207.31 10.55 206.87 10.01 206.87 L 2.94 206.87 L 2.1 206.41 L 2.1 197.61 L 6.83 194.93 C 7.14 194.76 7.32 194.44 7.32 194.09 L 7.33 191.58 L 8.52 191.58 L 8.52 196.01 C 7.32 196.33 6.43 197.41 6.43 198.71 C 6.43 200.25 7.68 201.5 9.23 201.5 C 10.77 201.5 12.03 200.25 12.03 198.71 C 12.03 197.61 11.38 196.66 10.46 196.21 L 10.46 191.58 L 11.75 191.58 C 12.07 192.78 13.15 193.67 14.45 193.67 C 15.99 193.67 17.25 192.42 17.25 190.87 C 17.25 189.33 15.99 188.07 14.45 188.07 C 13.35 188.07 12.41 188.71 11.95 189.64 L 7.33 189.64 L 7.33 188.1 L 16.25 182.65 L 20.53 185.21 L 20.53 196.43 L 14.71 196.43 C 14.17 196.43 13.74 196.86 13.74 197.4 L 13.74 204.56 C 12.81 205.02 12.17 205.96 12.17 207.06 C 12.17 208.61 13.43 209.86 14.97 209.86 C 16.51 209.86 17.77 208.61 17.77 207.06 C 17.77 205.77 16.88 204.68 15.68 204.37 L 15.68 198.37 L 20.53 198.37 L 20.53 219.01 Z M 42.84 197.05 C 42.84 196.7 42.65 196.38 42.35 196.21 L 37.62 193.52 L 37.62 187.55 C 37.62 187.22 37.44 186.9 37.15 186.73 L 27.26 180.69 C 26.95 180.5 26.56 180.5 26.25 180.69 L 21.5 183.53 L 16.75 180.69 C 16.44 180.5 16.05 180.5 15.74 180.69 L 5.85 186.72 C 5.56 186.9 5.38 187.21 5.38 187.55 L 5.38 193.52 L 0.65 196.2 C 0.35 196.38 0.16 196.7 0.16 197.05 L 0.16 206.99 C 0.16 207.34 0.35 207.67 0.66 207.84 L 5.38 210.43 L 5.38 216.43 C 5.38 216.77 5.56 217.09 5.86 217.26 L 16.1 223.32 C 16.4 223.5 16.78 223.5 17.09 223.32 L 21.18 220.88 L 25.4 223.32 C 25.55 223.41 25.72 223.46 25.88 223.46 C 26.05 223.46 26.23 223.41 26.38 223.32 L 36.62 217.27 C 36.91 217.09 37.09 216.77 37.09 216.43 L 37.09 210.43 L 42.35 207.47 C 42.65 207.3 42.84 206.98 42.84 206.63 Z" fill="#a20025" stroke="none" pointer-events="all" style="fill: light-dark(rgb(162, 0, 37), rgb(255, 255, 255));"/></g></g><g data-cell-id="SsyuM5CPjU2S2znVL6Bv-7"><g transform="translate(0.5,0.5)"><path d="M 170 171 L 232 171 L 232 233 L 170 233 Z" fill="#ed7100" stroke="none" pointer-events="all" style="fill: light-dark(rgb(237, 113, 0), rgb(216, 109, 12));"/><path d="M 189.49 213.51 L 211.63 213.51 L 211.63 191.37 L 189.49 191.37 Z M 213.4 191.37 L 216.94 191.37 L 216.94 193.14 L 213.4 193.14 L 213.4 196.69 L 216.94 196.69 L 216.94 198.46 L 213.4 198.46 L 213.4 201.11 L 216.94 201.11 L 216.94 202.89 L 213.4 202.89 L 213.4 206.43 L 216.94 206.43 L 216.94 208.2 L 213.4 208.2 L 213.4 211.74 L 216.94 211.74 L 216.94 213.51 L 213.4 213.51 L 213.4 213.63 C 213.4 214.55 212.66 215.29 211.75 215.29 L 211.63 215.29 L 211.63 218.83 L 209.86 218.83 L 209.86 215.29 L 206.31 215.29 L 206.31 218.83 L 204.54 218.83 L 204.54 215.29 L 201.89 215.29 L 201.89 218.83 L 200.11 218.83 L 200.11 215.29 L 196.57 215.29 L 196.57 218.83 L 194.8 218.83 L 194.8 215.29 L 191.26 215.29 L 191.26 218.83 L 189.49 218.83 L 189.49 215.29 L 189.37 215.29 C 188.45 215.29 187.71 214.55 187.71 213.63 L 187.71 213.51 L 185.06 213.51 L 185.06 211.74 L 187.71 211.74 L 187.71 208.2 L 185.06 208.2 L 185.06 206.43 L 187.71 206.43 L 187.71 202.89 L 185.06 202.89 L 185.06 201.11 L 187.71 201.11 L 187.71 198.46 L 185.06 198.46 L 185.06 196.69 L 187.71 196.69 L 187.71 193.14 L 185.06 193.14 L 185.06 191.37 L 187.71 191.37 L 187.71 191.25 C 187.71 190.34 188.45 189.6 189.37 189.6 L 189.49 189.6 L 189.49 186.06 L 191.26 186.06 L 191.26 189.6 L 194.8 189.6 L 194.8 186.06 L 196.57 186.06 L 196.57 189.6 L 200.11 189.6 L 200.11 186.06 L 201.89 186.06 L 201.89 189.6 L 204.54 189.6 L 204.54 186.06 L 206.31 186.06 L 206.31 189.6 L 209.86 189.6 L 209.86 186.06 L 211.63 186.06 L 211.63 189.6 L 211.75 189.6 C 212.66 189.6 213.4 190.34 213.4 191.25 Z M 201.89 224.92 C 201.89 224.98 201.84 225.03 201.78 225.03 L 178.08 225.03 C 178.02 225.03 177.97 224.98 177.97 224.92 L 177.97 201.22 C 177.97 201.16 178.02 201.11 178.08 201.11 L 183.29 201.11 L 183.29 199.34 L 178.08 199.34 C 177.04 199.34 176.2 200.19 176.2 201.22 L 176.2 224.92 C 176.2 225.96 177.04 226.8 178.08 226.8 L 201.78 226.8 C 202.81 226.8 203.66 225.96 203.66 224.92 L 203.66 220.6 L 201.89 220.6 Z M 225.8 179.08 L 225.8 202.78 C 225.8 203.81 224.96 204.66 223.92 204.66 L 218.71 204.66 L 218.71 202.89 L 223.92 202.89 C 223.98 202.89 224.03 202.84 224.03 202.78 L 224.03 179.08 C 224.03 179.02 223.98 178.97 223.92 178.97 L 200.22 178.97 C 200.16 178.97 200.11 179.02 200.11 179.08 L 200.11 184.29 L 198.34 184.29 L 198.34 179.08 C 198.34 178.04 199.19 177.2 200.22 177.2 L 223.92 177.2 C 224.96 177.2 225.8 178.04 225.8 179.08 Z" fill="#ffffff" stroke="none" pointer-events="all" style="fill: light-dark(rgb(255, 255, 255), rgb(18, 18, 18));"/></g></g><g data-cell-id="SsyuM5CPjU2S2znVL6Bv-8"><g transform="translate(0.5,0.5)"><rect x="150" y="88.75" width="40" height="40" fill="none" stroke="none" pointer-events="all"/><path d="M 175.41 113.94 C 175.41 114.38 175.05 114.74 174.62 114.74 C 174.18 114.74 173.82 114.38 173.82 113.94 C 173.82 113.51 174.18 113.15 174.62 113.15 C 175.05 113.15 175.41 113.51 175.41 113.94 Z M 178.02 97.74 C 177.58 97.74 177.22 97.38 177.22 96.94 C 177.22 96.5 177.58 96.14 178.02 96.14 C 178.46 96.14 178.81 96.5 178.81 96.94 C 178.81 97.38 178.46 97.74 178.02 97.74 Z M 174.93 105.69 C 174.93 106.12 174.57 106.48 174.13 106.48 C 173.69 106.48 173.33 106.12 173.33 105.69 C 173.33 105.25 173.69 104.89 174.13 104.89 C 174.57 104.89 174.93 105.25 174.93 105.69 Z M 179.16 119.78 C 179.16 119.34 179.52 118.98 179.96 118.98 C 180.4 118.98 180.76 119.34 180.76 119.78 C 180.76 120.21 180.4 120.57 179.96 120.57 C 179.52 120.57 179.16 120.21 179.16 119.78 Z M 183.16 115.28 C 182.88 115.43 182.7 115.74 182.7 116.06 L 182.7 121.66 L 176.25 125.47 L 176.25 120.92 L 177.63 120.92 C 178.06 121.78 178.94 122.38 179.96 122.38 C 181.4 122.38 182.56 121.21 182.56 119.78 C 182.56 118.34 181.4 117.17 179.96 117.17 C 178.75 117.17 177.75 118 177.45 119.11 L 175.34 119.11 C 174.84 119.11 174.44 119.52 174.44 120.02 L 174.44 126.54 L 174.07 126.76 L 170.9 124.92 L 170.9 101.49 L 173.47 101.49 L 173.47 103.18 C 172.35 103.47 171.53 104.48 171.53 105.69 C 171.53 107.12 172.69 108.29 174.13 108.29 C 175.57 108.29 176.73 107.12 176.73 105.69 C 176.73 104.66 176.14 103.79 175.28 103.36 L 175.28 101.49 L 178.26 101.49 C 178.76 101.49 179.16 101.08 179.16 100.58 L 179.16 99.27 C 180.02 98.84 180.62 97.96 180.62 96.94 C 180.62 95.5 179.45 94.34 178.02 94.34 C 176.58 94.34 175.41 95.5 175.41 96.94 C 175.41 98.15 176.24 99.15 177.35 99.45 L 177.35 99.68 L 170.9 99.68 L 170.9 93.14 L 174.88 90.76 L 183.19 95.82 L 183.19 101.39 C 183.19 101.72 183.36 102.02 183.64 102.18 L 188.04 104.67 L 188.04 107.45 L 179.72 107.45 C 179.22 107.45 178.81 107.86 178.81 108.36 L 178.81 112.8 L 176.94 112.8 C 176.52 111.94 175.64 111.34 174.62 111.34 C 173.18 111.34 172.01 112.51 172.01 113.94 C 172.01 115.38 173.18 116.55 174.62 116.55 C 175.82 116.55 176.83 115.72 177.12 114.61 L 179.72 114.61 C 180.22 114.61 180.62 114.2 180.62 113.7 L 180.62 109.26 L 188.04 109.26 L 188.04 112.53 Z M 163.93 112.66 C 164.37 112.66 164.72 113.02 164.72 113.46 C 164.72 113.9 164.37 114.26 163.93 114.26 C 163.49 114.26 163.13 113.9 163.13 113.46 C 163.13 113.02 163.49 112.66 163.93 112.66 Z M 162.64 98.4 C 162.64 97.96 163 97.6 163.44 97.6 C 163.88 97.6 164.24 97.96 164.24 98.4 C 164.24 98.84 163.88 99.2 163.44 99.2 C 163 99.2 162.64 98.84 162.64 98.4 Z M 159.38 105.69 C 159.38 106.12 159.02 106.48 158.58 106.48 C 158.14 106.48 157.79 106.12 157.79 105.69 C 157.79 105.25 158.14 104.89 158.58 104.89 C 159.02 104.89 159.38 105.25 159.38 105.69 Z M 164.1 121.23 C 164.1 120.79 164.46 120.44 164.9 120.44 C 165.34 120.44 165.7 120.79 165.7 121.23 C 165.7 121.67 165.34 122.03 164.9 122.03 C 164.46 122.03 164.1 121.67 164.1 121.23 Z M 165.43 126.75 L 156.81 121.66 L 156.81 116.06 C 156.81 115.73 156.64 115.43 156.35 115.27 L 156.02 115.09 L 158.41 115.09 L 158.41 121.48 C 158.41 121.97 158.81 122.38 159.31 122.38 L 162.57 122.38 C 163 123.24 163.88 123.84 164.9 123.84 C 166.33 123.84 167.5 122.67 167.5 121.23 C 167.5 119.8 166.33 118.63 164.9 118.63 C 163.69 118.63 162.68 119.46 162.39 120.57 L 160.22 120.57 L 160.22 114.19 C 160.22 113.69 159.81 113.28 159.31 113.28 L 152.74 113.28 L 151.96 112.86 L 151.96 104.67 L 156.36 102.18 C 156.64 102.01 156.81 101.71 156.81 101.39 L 156.81 99.06 L 157.92 99.06 L 157.92 103.18 C 156.81 103.47 155.98 104.48 155.98 105.69 C 155.98 107.12 157.15 108.29 158.58 108.29 C 160.02 108.29 161.19 107.12 161.19 105.69 C 161.19 104.66 160.59 103.79 159.73 103.36 L 159.73 99.06 L 160.93 99.06 C 161.23 100.17 162.23 101 163.44 101 C 164.88 101 166.04 99.83 166.04 98.4 C 166.04 96.96 164.88 95.79 163.44 95.79 C 162.42 95.79 161.54 96.39 161.12 97.25 L 156.81 97.25 L 156.81 95.82 L 165.12 90.75 L 169.1 93.13 L 169.1 103.57 L 163.68 103.57 C 163.18 103.57 162.78 103.97 162.78 104.47 L 162.78 111.13 C 161.92 111.56 161.32 112.44 161.32 113.46 C 161.32 114.9 162.49 116.06 163.93 116.06 C 165.36 116.06 166.53 114.9 166.53 113.46 C 166.53 112.25 165.7 111.25 164.59 110.95 L 164.59 105.37 L 169.1 105.37 L 169.1 124.57 Z M 189.85 104.15 C 189.85 103.82 189.68 103.52 189.39 103.36 L 184.99 100.86 L 184.99 95.31 C 184.99 95 184.83 94.71 184.56 94.54 L 175.35 88.93 C 175.07 88.75 174.71 88.75 174.42 88.92 L 170 91.57 L 165.58 88.92 C 165.29 88.75 164.93 88.75 164.65 88.93 L 155.44 94.54 C 155.17 94.7 155.01 95 155.01 95.31 L 155.01 100.86 L 150.61 103.36 C 150.32 103.52 150.15 103.82 150.15 104.14 L 150.15 113.39 C 150.15 113.72 150.33 114.02 150.62 114.18 L 155.01 116.6 L 155.01 122.17 C 155.01 122.49 155.17 122.79 155.45 122.95 L 164.97 128.58 C 165.26 128.75 165.61 128.75 165.9 128.58 L 169.7 126.31 L 173.63 128.59 C 173.77 128.67 173.92 128.71 174.08 128.71 C 174.24 128.71 174.4 128.67 174.54 128.58 L 184.06 122.95 C 184.34 122.79 184.51 122.49 184.51 122.17 L 184.51 116.59 L 189.39 113.84 C 189.68 113.68 189.85 113.38 189.85 113.05 Z" fill="#fa6800" stroke="none" pointer-events="all" style="fill: light-dark(rgb(250, 104, 0), rgb(233, 107, 18));"/></g></g><g data-cell-id="SsyuM5CPjU2S2znVL6Bv-9"><g transform="translate(0.5,0.5)"><path d="M 67.96 280.67 C 67.42 281.23 66.54 281.31 65.95 280.53 C 65.51 279.92 65.72 279.17 66.09 278.82 C 68.19 276.59 71.56 275 75.1 275.04 C 79.2 275.1 82.16 276.9 84.05 278.83 C 84.65 279.49 84.47 280.34 83.96 280.75 C 83.35 281.24 82.61 281.23 82.07 280.63 C 80.35 278.89 77.94 277.74 75.31 277.67 C 72.83 277.62 70.17 278.43 67.96 280.67 Z M 71.35 284.38 C 70.78 284.91 69.95 284.84 69.46 284.22 C 69.12 283.78 69.01 283.06 69.52 282.5 C 70.88 281.02 72.95 280.13 75.02 280.13 C 77.3 280.16 79.22 281.14 80.51 282.62 C 80.95 283.26 80.76 283.93 80.35 284.36 C 79.98 284.79 79.13 284.97 78.5 284.3 C 77.62 283.4 76.38 282.83 75 282.81 C 73.6 282.82 72.3 283.39 71.35 284.38 Z M 99.56 322.94 L 50.44 322.94 L 50.44 287.23 L 99.56 287.23 Z M 80.44 325.73 C 80.89 326.28 80.82 326.94 80.49 327.38 C 79.08 329.03 76.93 329.82 75.07 329.82 C 72.94 329.82 70.98 328.97 69.54 327.5 C 69.08 326.98 68.99 326.2 69.63 325.57 C 70.19 325.08 70.89 325.16 71.37 325.61 C 72.18 326.48 73.48 327.17 75.05 327.15 C 76.74 327.12 77.89 326.32 78.69 325.5 C 79.02 325.23 79.82 324.99 80.44 325.73 Z M 83.97 331.07 C 81.79 333.47 78.52 335 75.05 335 C 71.74 335 68.46 333.74 65.94 331.05 C 65.65 330.71 65.37 329.91 66.08 329.21 C 66.62 328.73 67.4 328.74 67.9 329.31 C 69.76 331.19 72.19 332.28 75.03 332.3 C 78.32 332.24 80.62 330.74 82.07 329.27 C 82.5 328.85 83.24 328.63 83.89 329.26 C 84.34 329.73 84.48 330.45 83.97 331.07 Z" fill="#60a917" stroke="none" pointer-events="all" style="fill: light-dark(rgb(96, 169, 23), rgb(74, 137, 12));"/><path d="M 50.44 322.94 L 50.44 320.79 L 99.56 320.79 L 99.56 322.94 Z" fill-opacity="0.3" fill="#000000" stroke="none" pointer-events="all" style="fill: light-dark(rgb(0, 0, 0), rgb(237, 237, 237));"/><rect x="50.44" y="275" width="0" height="0" fill="none" stroke="#2d7600" pointer-events="all" style="stroke: light-dark(rgb(45, 118, 0), rgb(115, 177, 76));"/><path d="M 99.56 313.27 L 91.29 313.27 C 90.8 313.27 90.32 312.81 90.32 312.25 L 90.32 308.47 C 89.77 308.24 88.88 307.49 88.88 306.19 C 88.88 304.83 89.94 303.7 91.36 303.7 C 92.45 303.7 93.74 304.64 93.74 306.19 C 93.74 307.2 93.15 308.07 92.29 308.48 L 92.29 311.24 L 99.56 311.24 Z M 84.28 318.44 C 83.81 318.44 83.32 317.99 83.32 317.42 L 83.32 308.48 C 82.84 308.25 81.93 307.62 81.87 306.24 C 81.83 305.22 82.66 303.66 84.4 303.71 C 85.74 303.78 86.71 304.88 86.72 306.18 C 86.71 307.21 86.15 308.08 85.28 308.46 L 85.28 316.42 L 99.56 316.42 L 99.56 318.44 Z M 80.89 287.23 L 80.89 294.7 L 85.08 294.7 L 85.08 290.46 C 85.08 289.89 85.5 289.38 86.15 289.38 L 96.46 289.38 C 97.1 289.38 97.53 289.89 97.53 290.45 L 97.53 301.11 C 97.53 301.58 97.11 302.16 96.47 302.16 L 86.12 302.16 C 85.58 302.16 85.08 301.72 85.08 301.09 L 85.08 296.72 L 74.92 296.72 C 74.59 297.5 73.78 298.2 72.71 298.19 C 71.35 298.19 70.28 297.07 70.28 295.68 C 70.28 294.39 71.29 293.22 72.75 293.22 C 73.65 293.22 74.58 293.82 74.92 294.7 L 78.93 294.7 L 78.93 287.23 Z M 66.55 287.23 L 68.52 287.23 L 68.52 302.43 L 72.18 306.19 L 73.91 304.4 C 73.66 303.71 73.64 302.67 74.42 301.79 C 75.48 300.69 76.89 300.91 77.62 301.52 C 78.86 302.47 78.87 304.16 77.97 305.17 C 77.15 306.1 76.02 306.13 75.31 305.83 L 73.57 307.62 L 76.67 310.81 C 77.46 310.5 78.48 310.57 79.25 311.35 C 80.46 312.63 79.98 314.27 79.15 315 C 78.03 315.97 76.52 315.74 75.69 314.72 C 75.27 314.2 74.93 313.29 75.28 312.27 L 66.8 303.55 C 66.64 303.39 66.55 303.14 66.55 302.84 Z M 53.58 287.23 L 55.55 287.23 L 55.55 294.7 L 58.96 294.7 C 59.4 293.73 60.3 293.21 61.17 293.21 C 62.55 293.21 63.6 294.36 63.6 295.7 C 63.6 296.94 62.68 298.2 61.1 298.2 C 60.44 298.2 59.43 297.78 58.96 296.72 L 55.55 296.72 L 55.55 304.72 L 61.56 310.9 C 62.74 310.39 64.34 310.9 64.83 312.53 C 65.25 314.23 64.01 315.75 62.38 315.68 C 61.5 315.64 60.47 315.05 60.14 313.84 C 60.02 313.36 60.05 312.83 60.19 312.39 L 53.85 305.87 C 53.71 305.72 53.58 305.51 53.58 305.11 Z M 69.37 320.79 L 69.37 313.53 L 61.88 305.85 C 60.74 306.26 59.64 305.78 59.08 304.95 C 58.29 303.79 58.54 302.25 59.72 301.42 C 60.81 300.7 62.18 300.99 62.92 301.93 C 63.64 302.86 63.53 303.88 63.29 304.45 L 71.34 312.66 L 71.34 320.79 Z M 53.64 320.79 L 53.64 315.47 C 53 315.19 52.21 314.37 52.21 313.24 C 52.21 311.62 53.49 310.7 54.6 310.7 C 55.93 310.7 57.05 311.76 57.05 313.19 C 57.05 314.15 56.51 315.06 55.62 315.47 L 55.62 320.79 Z" fill="#ffffff" stroke="none" pointer-events="all" style="fill: light-dark(rgb(255, 255, 255), rgb(18, 18, 18));"/></g></g><g data-cell-id="SsyuM5CPjU2S2znVL6Bv-10"><g transform="translate(0.5,0.5)"><rect x="142" y="285" width="40" height="40" fill="none" stroke="none" pointer-events="all"/><path d="M 167.41 310.19 C 167.41 310.63 167.05 310.99 166.62 310.99 C 166.18 310.99 165.82 310.63 165.82 310.19 C 165.82 309.76 166.18 309.4 166.62 309.4 C 167.05 309.4 167.41 309.76 167.41 310.19 Z M 170.02 293.99 C 169.58 293.99 169.22 293.63 169.22 293.19 C 169.22 292.75 169.58 292.39 170.02 292.39 C 170.46 292.39 170.81 292.75 170.81 293.19 C 170.81 293.63 170.46 293.99 170.02 293.99 Z M 166.93 301.94 C 166.93 302.37 166.57 302.73 166.13 302.73 C 165.69 302.73 165.33 302.37 165.33 301.94 C 165.33 301.5 165.69 301.14 166.13 301.14 C 166.57 301.14 166.93 301.5 166.93 301.94 Z M 171.16 316.03 C 171.16 315.59 171.52 315.23 171.96 315.23 C 172.4 315.23 172.76 315.59 172.76 316.03 C 172.76 316.46 172.4 316.82 171.96 316.82 C 171.52 316.82 171.16 316.46 171.16 316.03 Z M 175.16 311.53 C 174.88 311.68 174.7 311.99 174.7 312.31 L 174.7 317.91 L 168.25 321.72 L 168.25 317.17 L 169.63 317.17 C 170.06 318.03 170.94 318.63 171.96 318.63 C 173.4 318.63 174.56 317.46 174.56 316.03 C 174.56 314.59 173.4 313.42 171.96 313.42 C 170.75 313.42 169.75 314.25 169.45 315.36 L 167.34 315.36 C 166.84 315.36 166.44 315.77 166.44 316.27 L 166.44 322.79 L 166.07 323.01 L 162.9 321.17 L 162.9 297.74 L 165.47 297.74 L 165.47 299.43 C 164.35 299.72 163.53 300.73 163.53 301.94 C 163.53 303.37 164.69 304.54 166.13 304.54 C 167.57 304.54 168.73 303.37 168.73 301.94 C 168.73 300.91 168.14 300.04 167.28 299.61 L 167.28 297.74 L 170.26 297.74 C 170.76 297.74 171.16 297.33 171.16 296.83 L 171.16 295.52 C 172.02 295.09 172.62 294.21 172.62 293.19 C 172.62 291.75 171.45 290.59 170.02 290.59 C 168.58 290.59 167.41 291.75 167.41 293.19 C 167.41 294.4 168.24 295.4 169.35 295.7 L 169.35 295.93 L 162.9 295.93 L 162.9 289.39 L 166.88 287.01 L 175.19 292.07 L 175.19 297.64 C 175.19 297.97 175.36 298.27 175.64 298.43 L 180.04 300.92 L 180.04 303.7 L 171.72 303.7 C 171.22 303.7 170.81 304.11 170.81 304.61 L 170.81 309.05 L 168.94 309.05 C 168.52 308.19 167.64 307.59 166.62 307.59 C 165.18 307.59 164.01 308.76 164.01 310.19 C 164.01 311.63 165.18 312.8 166.62 312.8 C 167.82 312.8 168.83 311.97 169.12 310.86 L 171.72 310.86 C 172.22 310.86 172.62 310.45 172.62 309.95 L 172.62 305.51 L 180.04 305.51 L 180.04 308.78 Z M 155.93 308.91 C 156.37 308.91 156.72 309.27 156.72 309.71 C 156.72 310.15 156.37 310.51 155.93 310.51 C 155.49 310.51 155.13 310.15 155.13 309.71 C 155.13 309.27 155.49 308.91 155.93 308.91 Z M 154.64 294.65 C 154.64 294.21 155 293.85 155.44 293.85 C 155.88 293.85 156.24 294.21 156.24 294.65 C 156.24 295.09 155.88 295.45 155.44 295.45 C 155 295.45 154.64 295.09 154.64 294.65 Z M 151.38 301.94 C 151.38 302.37 151.02 302.73 150.58 302.73 C 150.14 302.73 149.79 302.37 149.79 301.94 C 149.79 301.5 150.14 301.14 150.58 301.14 C 151.02 301.14 151.38 301.5 151.38 301.94 Z M 156.1 317.48 C 156.1 317.04 156.46 316.69 156.9 316.69 C 157.34 316.69 157.7 317.04 157.7 317.48 C 157.7 317.92 157.34 318.28 156.9 318.28 C 156.46 318.28 156.1 317.92 156.1 317.48 Z M 157.43 323 L 148.81 317.91 L 148.81 312.31 C 148.81 311.98 148.64 311.68 148.35 311.52 L 148.02 311.34 L 150.41 311.34 L 150.41 317.73 C 150.41 318.22 150.81 318.63 151.31 318.63 L 154.57 318.63 C 155 319.49 155.88 320.09 156.9 320.09 C 158.33 320.09 159.5 318.92 159.5 317.48 C 159.5 316.05 158.33 314.88 156.9 314.88 C 155.69 314.88 154.68 315.71 154.39 316.82 L 152.22 316.82 L 152.22 310.44 C 152.22 309.94 151.81 309.53 151.31 309.53 L 144.74 309.53 L 143.96 309.11 L 143.96 300.92 L 148.36 298.43 C 148.64 298.26 148.81 297.96 148.81 297.64 L 148.81 295.31 L 149.92 295.31 L 149.92 299.43 C 148.81 299.72 147.98 300.73 147.98 301.94 C 147.98 303.37 149.15 304.54 150.58 304.54 C 152.02 304.54 153.19 303.37 153.19 301.94 C 153.19 300.91 152.59 300.04 151.73 299.61 L 151.73 295.31 L 152.93 295.31 C 153.23 296.42 154.23 297.25 155.44 297.25 C 156.88 297.25 158.04 296.08 158.04 294.65 C 158.04 293.21 156.88 292.04 155.44 292.04 C 154.42 292.04 153.54 292.64 153.12 293.5 L 148.81 293.5 L 148.81 292.07 L 157.12 287 L 161.1 289.38 L 161.1 299.82 L 155.68 299.82 C 155.18 299.82 154.78 300.22 154.78 300.72 L 154.78 307.38 C 153.92 307.81 153.32 308.69 153.32 309.71 C 153.32 311.15 154.49 312.31 155.93 312.31 C 157.36 312.31 158.53 311.15 158.53 309.71 C 158.53 308.5 157.7 307.5 156.59 307.2 L 156.59 301.62 L 161.1 301.62 L 161.1 320.82 Z M 181.85 300.4 C 181.85 300.07 181.68 299.77 181.39 299.61 L 176.99 297.11 L 176.99 291.56 C 176.99 291.25 176.83 290.96 176.56 290.79 L 167.35 285.18 C 167.07 285 166.71 285 166.42 285.17 L 162 287.82 L 157.58 285.17 C 157.29 285 156.93 285 156.65 285.18 L 147.44 290.79 C 147.17 290.95 147.01 291.25 147.01 291.56 L 147.01 297.11 L 142.61 299.61 C 142.32 299.77 142.15 300.07 142.15 300.39 L 142.15 309.64 C 142.15 309.97 142.33 310.27 142.62 310.43 L 147.01 312.85 L 147.01 318.42 C 147.01 318.74 147.17 319.04 147.45 319.2 L 156.97 324.83 C 157.26 325 157.61 325 157.9 324.83 L 161.7 322.56 L 165.63 324.84 C 165.77 324.92 165.92 324.96 166.08 324.96 C 166.24 324.96 166.4 324.92 166.54 324.83 L 176.06 319.2 C 176.34 319.04 176.51 318.74 176.51 318.42 L 176.51 312.84 L 181.39 310.09 C 181.68 309.93 181.85 309.63 181.85 309.3 Z" fill="#60a917" stroke="none" pointer-events="all" style="fill: light-dark(rgb(96, 169, 23), rgb(74, 137, 12));"/></g></g><g data-cell-id="SsyuM5CPjU2S2znVL6Bv-12"><g transform="translate(0.5,0.5)"><path d="M 78.09 269.43 L 96.91 235.57" fill="none" stroke="#000000" stroke-miterlimit="10" pointer-events="stroke" style="stroke: light-dark(rgb(0, 0, 0), rgb(255, 255, 255));"/><path d="M 75.54 274.02 L 75.88 266.2 L 78.09 269.43 L 82 269.6 Z" fill="#000000" stroke="#000000" stroke-miterlimit="10" pointer-events="all" style="fill: light-dark(rgb(0, 0, 0), rgb(255, 255, 255)); stroke: light-dark(rgb(0, 0, 0), rgb(255, 255, 255));"/><path d="M 99.46 230.98 L 99.12 238.8 L 96.91 235.57 L 93 235.4 Z" fill="#000000" stroke="#000000" stroke-miterlimit="10" pointer-events="all" style="fill: light-dark(rgb(0, 0, 0), rgb(255, 255, 255)); stroke: light-dark(rgb(0, 0, 0), rgb(255, 255, 255));"/></g></g><g data-cell-id="SsyuM5CPjU2S2znVL6Bv-13"><g transform="translate(0.5,0.5)"><path d="M 150.97 279.14 L 132.5 235.86" fill="none" stroke="#000000" stroke-miterlimit="10" pointer-events="stroke" style="stroke: light-dark(rgb(0, 0, 0), rgb(255, 255, 255));"/><path d="M 153.03 283.97 L 147.06 278.91 L 150.97 279.14 L 153.5 276.16 Z" fill="#000000" stroke="#000000" stroke-miterlimit="10" pointer-events="all" style="fill: light-dark(rgb(0, 0, 0), rgb(255, 255, 255)); stroke: light-dark(rgb(0, 0, 0), rgb(255, 255, 255));"/><path d="M 130.44 231.03 L 136.41 236.09 L 132.5 235.86 L 129.97 238.84 Z" fill="#000000" stroke="#000000" stroke-miterlimit="10" pointer-events="all" style="fill: light-dark(rgb(0, 0, 0), rgb(255, 255, 255)); stroke: light-dark(rgb(0, 0, 0), rgb(255, 255, 255));"/></g></g><g data-cell-id="SsyuM5CPjU2S2znVL6Bv-14"><g transform="translate(0.5,0.5)"><path d="M 135.78 305 L 105.93 305" fill="none" stroke="#000000" stroke-miterlimit="10" pointer-events="stroke" style="stroke: light-dark(rgb(0, 0, 0), rgb(255, 255, 255));"/><path d="M 141.03 305 L 134.03 308.5 L 135.78 305 L 134.03 301.5 Z" fill="#000000" stroke="#000000" stroke-miterlimit="10" pointer-events="all" style="fill: light-dark(rgb(0, 0, 0), rgb(255, 255, 255)); stroke: light-dark(rgb(0, 0, 0), rgb(255, 255, 255));"/><path d="M 100.68 305 L 107.68 301.5 L 105.93 305 L 107.68 308.5 Z" fill="#000000" stroke="#000000" stroke-miterlimit="10" pointer-events="all" style="fill: light-dark(rgb(0, 0, 0), rgb(255, 255, 255)); stroke: light-dark(rgb(0, 0, 0), rgb(255, 255, 255));"/></g></g><g data-cell-id="SsyuM5CPjU2S2znVL6Bv-15"><g transform="translate(0.5,0.5)"><path d="M 163.63 201.53 L 147.27 201.33" fill="none" stroke="#000000" stroke-miterlimit="10" pointer-events="stroke" style="stroke: light-dark(rgb(0, 0, 0), rgb(255, 255, 255));"/><path d="M 168.88 201.6 L 161.84 205.01 L 163.63 201.53 L 161.93 198.01 Z" fill="#000000" stroke="#000000" stroke-miterlimit="10" pointer-events="all" style="fill: light-dark(rgb(0, 0, 0), rgb(255, 255, 255)); stroke: light-dark(rgb(0, 0, 0), rgb(255, 255, 255));"/><path d="M 142.02 201.26 L 149.06 197.85 L 147.27 201.33 L 148.97 204.85 Z" fill="#000000" stroke="#000000" stroke-miterlimit="10" pointer-events="all" style="fill: light-dark(rgb(0, 0, 0), rgb(255, 255, 255)); stroke: light-dark(rgb(0, 0, 0), rgb(255, 255, 255));"/></g></g><g data-cell-id="SsyuM5CPjU2S2znVL6Bv-16"><g transform="translate(0.5,0.5)"><path d="M 198.16 165.3 L 182.8 134.45" fill="none" stroke="#000000" stroke-miterlimit="10" pointer-events="stroke" style="stroke: light-dark(rgb(0, 0, 0), rgb(255, 255, 255));"/><path d="M 200.5 170 L 194.25 165.29 L 198.16 165.3 L 200.51 162.17 Z" fill="#000000" stroke="#000000" stroke-miterlimit="10" pointer-events="all" style="fill: light-dark(rgb(0, 0, 0), rgb(255, 255, 255)); stroke: light-dark(rgb(0, 0, 0), rgb(255, 255, 255));"/><path d="M 180.46 129.75 L 186.71 134.46 L 182.8 134.45 L 180.45 137.58 Z" fill="#000000" stroke="#000000" stroke-miterlimit="10" pointer-events="all" style="fill: light-dark(rgb(0, 0, 0), rgb(255, 255, 255)); stroke: light-dark(rgb(0, 0, 0), rgb(255, 255, 255));"/></g></g><g data-cell-id="SsyuM5CPjU2S2znVL6Bv-17"><g transform="translate(0.5,0.5)"><path d="M 157.4 134.47 L 142.8 164.28" fill="none" stroke="#000000" stroke-miterlimit="10" pointer-events="stroke" style="stroke: light-dark(rgb(0, 0, 0), rgb(255, 255, 255));"/><path d="M 159.71 129.75 L 159.78 137.58 L 157.4 134.47 L 153.49 134.5 Z" fill="#000000" stroke="#000000" stroke-miterlimit="10" pointer-events="all" style="fill: light-dark(rgb(0, 0, 0), rgb(255, 255, 255)); stroke: light-dark(rgb(0, 0, 0), rgb(255, 255, 255));"/><path d="M 140.49 169 L 140.43 161.17 L 142.8 164.28 L 146.71 164.25 Z" fill="#000000" stroke="#000000" stroke-miterlimit="10" pointer-events="all" style="fill: light-dark(rgb(0, 0, 0), rgb(255, 255, 255)); stroke: light-dark(rgb(0, 0, 0), rgb(255, 255, 255));"/></g></g><g data-cell-id="SsyuM5CPjU2S2znVL6Bv-18"><g transform="translate(0.5,0.5)"><path d="M 49.21 201.7 L 83.43 201.32" fill="none" stroke="#000000" stroke-miterlimit="10" pointer-events="stroke" style="stroke: light-dark(rgb(0, 0, 0), rgb(255, 255, 255));"/><path d="M 43.96 201.75 L 50.92 198.18 L 49.21 201.7 L 51 205.18 Z" fill="#000000" stroke="#000000" stroke-miterlimit="10" pointer-events="all" style="fill: light-dark(rgb(0, 0, 0), rgb(255, 255, 255)); stroke: light-dark(rgb(0, 0, 0), rgb(255, 255, 255));"/><path d="M 88.68 201.26 L 81.72 204.84 L 83.43 201.32 L 81.64 197.84 Z" fill="#000000" stroke="#000000" stroke-miterlimit="10" pointer-events="all" style="fill: light-dark(rgb(0, 0, 0), rgb(255, 255, 255)); stroke: light-dark(rgb(0, 0, 0), rgb(255, 255, 255));"/></g></g><g data-cell-id="SsyuM5CPjU2S2znVL6Bv-19"><g transform="translate(0.5,0.5)"><path d="M 33.43 174.66 L 46.02 145.84" fill="none" stroke="#000000" stroke-miterlimit="10" pointer-events="stroke" style="stroke: light-dark(rgb(0, 0, 0), rgb(255, 255, 255));"/><path d="M 31.33 179.48 L 30.93 171.66 L 33.43 174.66 L 37.34 174.46 Z" fill="#000000" stroke="#000000" stroke-miterlimit="10" pointer-events="all" style="fill: light-dark(rgb(0, 0, 0), rgb(255, 255, 255)); stroke: light-dark(rgb(0, 0, 0), rgb(255, 255, 255));"/><path d="M 48.12 141.02 L 48.52 148.84 L 46.02 145.84 L 42.11 146.04 Z" fill="#000000" stroke="#000000" stroke-miterlimit="10" pointer-events="all" style="fill: light-dark(rgb(0, 0, 0), rgb(255, 255, 255)); stroke: light-dark(rgb(0, 0, 0), rgb(255, 255, 255));"/></g></g><g data-cell-id="SsyuM5CPjU2S2znVL6Bv-20"><g transform="translate(0.5,0.5)"><path d="M 96.68 169.69 L 85.57 148.16" fill="none" stroke="#000000" stroke-miterlimit="10" pointer-events="stroke" style="stroke: light-dark(rgb(0, 0, 0), rgb(255, 255, 255));"/><path d="M 99.09 174.36 L 92.77 169.74 L 96.68 169.69 L 98.99 166.53 Z" fill="#000000" stroke="#000000" stroke-miterlimit="10" pointer-events="all" style="fill: light-dark(rgb(0, 0, 0), rgb(255, 255, 255)); stroke: light-dark(rgb(0, 0, 0), rgb(255, 255, 255));"/><path d="M 83.16 143.49 L 89.48 148.11 L 85.57 148.16 L 83.26 151.32 Z" fill="#000000" stroke="#000000" stroke-miterlimit="10" pointer-events="all" style="fill: light-dark(rgb(0, 0, 0), rgb(255, 255, 255)); stroke: light-dark(rgb(0, 0, 0), rgb(255, 255, 255));"/></g></g><g data-cell-id="SsyuM5CPjU2S2znVL6Bv-44"><g transform="translate(0.5,0.5)"><rect x="62" y="0" width="120" height="40" fill="#ffffff" stroke="none" pointer-events="all" style="fill: light-dark(#ffffff, var(--ge-dark-color, #121212));"/><rect x="64" y="2" width="116" height="36" fill="#ffffff" stroke="none" pointer-events="all" style="fill: light-dark(#ffffff, var(--ge-dark-color, #121212));"/></g><g><g><switch><foreignObject style="overflow: visible; text-align: left;" pointer-events="none" width="100%" height="100%" requiredFeatures="http://www.w3.org/TR/SVG11/feature#Extensibility"><div xmlns="http://www.w3.org/1999/xhtml" style="display: flex; align-items: unsafe center; justify-content: unsafe center; width: 114px; height: 1px; padding-top: 20px; margin-left: 65px;"><div style="box-sizing: border-box; font-size: 0; text-align: center; color: #000000; "><div style="display: inline-block; font-size: 22px; font-family: Verdana; color: light-dark(#000000, #ffffff); line-height: 1.2; pointer-events: all; white-space: normal; word-wrap: normal; ">Before</div></div></div></foreignObject><text x="122" y="27" fill="light-dark(#000000, #ffffff)" font-family="Verdana" font-size="22px" text-anchor="middle">Before</text></switch></g></g></g><g data-cell-id="SsyuM5CPjU2S2znVL6Bv-45"><g transform="translate(0.5,0.5)"><rect x="405.75" y="0" width="120" height="40" fill="#ffffff" stroke="none" pointer-events="all" style="fill: light-dark(#ffffff, var(--ge-dark-color, #121212));"/><rect x="407.75" y="2" width="116" height="36" fill="#ffffff" stroke="none" pointer-events="all" style="fill: light-dark(#ffffff, var(--ge-dark-color, #121212));"/></g><g><g><switch><foreignObject style="overflow: visible; text-align: left;" pointer-events="none" width="100%" height="100%" requiredFeatures="http://www.w3.org/TR/SVG11/feature#Extensibility"><div xmlns="http://www.w3.org/1999/xhtml" style="display: flex; align-items: unsafe center; justify-content: unsafe center; width: 114px; height: 1px; padding-top: 20px; margin-left: 409px;"><div style="box-sizing: border-box; font-size: 0; text-align: center; color: #000000; "><div style="display: inline-block; font-size: 22px; font-family: Verdana; color: light-dark(#000000, #ffffff); line-height: 1.2; pointer-events: all; white-space: normal; word-wrap: normal; ">After</div></div></div></foreignObject><text x="466" y="27" fill="light-dark(#000000, #ffffff)" font-family="Verdana" font-size="22px" text-anchor="middle">After</text></switch></g></g></g><g data-cell-id="r97UvT9XQOnO8FFBTGnk-4"><g transform="translate(0.5,0.5)"><path d="M 412.27 128.75 C 395.88 128.75 384.41 113.73 384.41 97.74 C 384.41 78.62 398.1 66.25 412.48 66.25 C 426.33 66.25 440 79.03 440 97.49 C 440 114.03 428.3 128.75 412.27 128.75 Z" fill="#0d2636" stroke="none" pointer-events="all" style="fill: light-dark(rgb(13, 38, 54), rgb(189, 211, 224));"/><path d="M 406.26 121.91 C 406.26 123.26 405.35 123.82 403.99 123.29 C 395.76 120.05 387.85 110.04 387.85 97.54 C 387.85 80.63 400.71 69.97 411.86 69.97 C 426.33 69.97 436.63 83.31 436.63 97.38 C 436.63 108.99 429.98 119.68 420.02 123.43 C 418.89 123.77 418.2 123.09 418.2 121.98 L 418.2 113.84 C 418.2 112.27 417.62 110.59 416.57 109.42 C 420.62 108.9 423.07 107.77 424.95 105.59 C 426.79 103.53 427.62 100.51 427.78 96.77 C 427.88 93.81 427.17 90.92 425.26 88.71 C 425.93 86.89 426.04 84.48 425.03 81.49 C 423.03 81.32 420.75 82.67 418.41 84.29 C 414.31 83.09 410.21 82.93 406.1 84.36 C 404.27 83.02 402.6 81.51 399.42 81.49 C 398.58 84.13 398.45 86.53 399.17 88.66 C 396.9 91.5 396.64 94.28 396.68 97.06 C 396.93 102.41 398.67 105.12 400.61 106.73 C 402.21 108.07 404.47 108.91 407.9 109.48 C 406.98 110.51 406.46 111.73 406.37 113.16 C 404.36 114.2 401.47 114.72 399.49 111.57 C 398.61 109.99 397.4 108.2 395.12 108.21 C 394.74 108.19 394.37 108.36 394.32 108.54 C 394.26 108.74 394.47 109.16 394.73 109.32 C 396.73 110.75 397.06 111.56 397.87 113.51 C 398.63 115.8 399.95 116.69 401.37 117.3 C 402.82 117.88 405.18 117.72 406.26 117.3 Z" fill="#ffffff" stroke="none" pointer-events="all" style="fill: light-dark(rgb(255, 255, 255), rgb(18, 18, 18));"/></g></g><g data-cell-id="r97UvT9XQOnO8FFBTGnk-5"><g transform="translate(0.5,0.5)"><path d="M 410 112.59 L 412.89 111.39 L 420.51 116.52 L 432.69 106.25 L 440 108.82 L 440 128.68 L 432.69 131.25 L 420.51 121.32 L 412.74 126.28 L 410 124.91 Z M 412.74 114.81 L 412.74 122.69 L 417.61 118.92 Z M 424.62 118.92 L 432.69 124.06 L 432.69 113.44 Z" fill="#00bef2" stroke="none" pointer-events="all" style="fill: light-dark(rgb(0, 190, 242), rgb(0, 137, 182));"/></g></g><g data-cell-id="r97UvT9XQOnO8FFBTGnk-7"><g transform="translate(0.5,0.5)"><path d="M 520 159.75 L 582 159.75 L 582 221.75 L 520 221.75 Z" fill="#ed7100" stroke="none" pointer-events="all" style="fill: light-dark(rgb(237, 113, 0), rgb(216, 109, 12));"/><path d="M 539.49 202.26 L 561.63 202.26 L 561.63 180.12 L 539.49 180.12 Z M 563.4 180.12 L 566.94 180.12 L 566.94 181.89 L 563.4 181.89 L 563.4 185.44 L 566.94 185.44 L 566.94 187.21 L 563.4 187.21 L 563.4 189.86 L 566.94 189.86 L 566.94 191.64 L 563.4 191.64 L 563.4 195.18 L 566.94 195.18 L 566.94 196.95 L 563.4 196.95 L 563.4 200.49 L 566.94 200.49 L 566.94 202.26 L 563.4 202.26 L 563.4 202.38 C 563.4 203.3 562.66 204.04 561.75 204.04 L 561.63 204.04 L 561.63 207.58 L 559.86 207.58 L 559.86 204.04 L 556.31 204.04 L 556.31 207.58 L 554.54 207.58 L 554.54 204.04 L 551.89 204.04 L 551.89 207.58 L 550.11 207.58 L 550.11 204.04 L 546.57 204.04 L 546.57 207.58 L 544.8 207.58 L 544.8 204.04 L 541.26 204.04 L 541.26 207.58 L 539.49 207.58 L 539.49 204.04 L 539.37 204.04 C 538.45 204.04 537.71 203.3 537.71 202.38 L 537.71 202.26 L 535.06 202.26 L 535.06 200.49 L 537.71 200.49 L 537.71 196.95 L 535.06 196.95 L 535.06 195.18 L 537.71 195.18 L 537.71 191.64 L 535.06 191.64 L 535.06 189.86 L 537.71 189.86 L 537.71 187.21 L 535.06 187.21 L 535.06 185.44 L 537.71 185.44 L 537.71 181.89 L 535.06 181.89 L 535.06 180.12 L 537.71 180.12 L 537.71 180 C 537.71 179.09 538.45 178.35 539.37 178.35 L 539.49 178.35 L 539.49 174.81 L 541.26 174.81 L 541.26 178.35 L 544.8 178.35 L 544.8 174.81 L 546.57 174.81 L 546.57 178.35 L 550.11 178.35 L 550.11 174.81 L 551.89 174.81 L 551.89 178.35 L 554.54 178.35 L 554.54 174.81 L 556.31 174.81 L 556.31 178.35 L 559.86 178.35 L 559.86 174.81 L 561.63 174.81 L 561.63 178.35 L 561.75 178.35 C 562.66 178.35 563.4 179.09 563.4 180 Z M 551.89 213.67 C 551.89 213.73 551.84 213.78 551.78 213.78 L 528.08 213.78 C 528.02 213.78 527.97 213.73 527.97 213.67 L 527.97 189.97 C 527.97 189.91 528.02 189.86 528.08 189.86 L 533.29 189.86 L 533.29 188.09 L 528.08 188.09 C 527.04 188.09 526.2 188.94 526.2 189.97 L 526.2 213.67 C 526.2 214.71 527.04 215.55 528.08 215.55 L 551.78 215.55 C 552.81 215.55 553.66 214.71 553.66 213.67 L 553.66 209.35 L 551.89 209.35 Z M 575.8 167.83 L 575.8 191.53 C 575.8 192.56 574.96 193.41 573.92 193.41 L 568.71 193.41 L 568.71 191.64 L 573.92 191.64 C 573.98 191.64 574.03 191.59 574.03 191.53 L 574.03 167.83 C 574.03 167.77 573.98 167.72 573.92 167.72 L 550.22 167.72 C 550.16 167.72 550.11 167.77 550.11 167.83 L 550.11 173.04 L 548.34 173.04 L 548.34 167.83 C 548.34 166.79 549.19 165.95 550.22 165.95 L 573.92 165.95 C 574.96 165.95 575.8 166.79 575.8 167.83 Z" fill="#ffffff" stroke="none" pointer-events="all" style="fill: light-dark(rgb(255, 255, 255), rgb(18, 18, 18));"/></g></g><g data-cell-id="r97UvT9XQOnO8FFBTGnk-9"><g transform="translate(0.5,0.5)"><path d="M 417.96 269.42 C 417.42 269.98 416.54 270.06 415.95 269.28 C 415.51 268.67 415.72 267.92 416.09 267.57 C 418.19 265.34 421.56 263.75 425.1 263.79 C 429.2 263.85 432.16 265.65 434.05 267.58 C 434.65 268.24 434.47 269.09 433.96 269.5 C 433.35 269.99 432.61 269.98 432.07 269.38 C 430.35 267.64 427.94 266.49 425.31 266.42 C 422.83 266.37 420.17 267.18 417.96 269.42 Z M 421.35 273.13 C 420.78 273.66 419.95 273.59 419.46 272.97 C 419.12 272.53 419.01 271.81 419.52 271.25 C 420.88 269.77 422.95 268.88 425.02 268.88 C 427.3 268.91 429.22 269.89 430.51 271.37 C 430.95 272.01 430.76 272.68 430.35 273.11 C 429.98 273.54 429.13 273.72 428.5 273.05 C 427.62 272.15 426.38 271.58 425 271.56 C 423.6 271.57 422.3 272.14 421.35 273.13 Z M 449.56 311.69 L 400.44 311.69 L 400.44 275.98 L 449.56 275.98 Z M 430.44 314.48 C 430.89 315.03 430.82 315.69 430.49 316.13 C 429.08 317.78 426.93 318.57 425.07 318.57 C 422.94 318.57 420.98 317.72 419.54 316.25 C 419.08 315.73 418.99 314.95 419.63 314.32 C 420.19 313.83 420.89 313.91 421.37 314.36 C 422.18 315.23 423.48 315.92 425.05 315.9 C 426.74 315.87 427.89 315.07 428.69 314.25 C 429.02 313.98 429.82 313.74 430.44 314.48 Z M 433.97 319.82 C 431.79 322.22 428.52 323.75 425.05 323.75 C 421.74 323.75 418.46 322.49 415.94 319.8 C 415.65 319.46 415.37 318.66 416.08 317.96 C 416.62 317.48 417.4 317.49 417.9 318.06 C 419.76 319.94 422.19 321.03 425.03 321.05 C 428.32 320.99 430.62 319.49 432.07 318.02 C 432.5 317.6 433.24 317.38 433.89 318.01 C 434.34 318.48 434.48 319.2 433.97 319.82 Z" fill="#60a917" stroke="none" pointer-events="all" style="fill: light-dark(rgb(96, 169, 23), rgb(74, 137, 12));"/><path d="M 400.44 311.69 L 400.44 309.54 L 449.56 309.54 L 449.56 311.69 Z" fill-opacity="0.3" fill="#000000" stroke="none" pointer-events="all" style="fill: light-dark(rgb(0, 0, 0), rgb(237, 237, 237));"/><rect x="400.44" y="263.75" width="0" height="0" fill="none" stroke="#2d7600" pointer-events="all" style="stroke: light-dark(rgb(45, 118, 0), rgb(115, 177, 76));"/><path d="M 449.56 302.02 L 441.29 302.02 C 440.8 302.02 440.32 301.56 440.32 301 L 440.32 297.22 C 439.77 296.99 438.88 296.24 438.88 294.94 C 438.88 293.58 439.94 292.45 441.36 292.45 C 442.45 292.45 443.74 293.39 443.74 294.94 C 443.74 295.95 443.15 296.82 442.29 297.23 L 442.29 299.99 L 449.56 299.99 Z M 434.28 307.19 C 433.81 307.19 433.32 306.74 433.32 306.17 L 433.32 297.23 C 432.84 297 431.93 296.37 431.87 294.99 C 431.83 293.97 432.66 292.41 434.4 292.46 C 435.74 292.53 436.71 293.63 436.72 294.93 C 436.71 295.96 436.15 296.83 435.28 297.21 L 435.28 305.17 L 449.56 305.17 L 449.56 307.19 Z M 430.89 275.98 L 430.89 283.45 L 435.08 283.45 L 435.08 279.21 C 435.08 278.64 435.5 278.13 436.15 278.13 L 446.46 278.13 C 447.1 278.13 447.53 278.64 447.53 279.2 L 447.53 289.86 C 447.53 290.33 447.11 290.91 446.47 290.91 L 436.12 290.91 C 435.58 290.91 435.08 290.47 435.08 289.84 L 435.08 285.47 L 424.92 285.47 C 424.59 286.25 423.78 286.95 422.71 286.94 C 421.35 286.94 420.28 285.82 420.28 284.43 C 420.28 283.14 421.29 281.97 422.75 281.97 C 423.65 281.97 424.58 282.57 424.92 283.45 L 428.93 283.45 L 428.93 275.98 Z M 416.55 275.98 L 418.52 275.98 L 418.52 291.18 L 422.18 294.94 L 423.91 293.15 C 423.66 292.46 423.64 291.42 424.42 290.54 C 425.48 289.44 426.89 289.66 427.62 290.27 C 428.86 291.22 428.87 292.91 427.97 293.92 C 427.15 294.85 426.02 294.88 425.31 294.58 L 423.57 296.37 L 426.67 299.56 C 427.46 299.25 428.48 299.32 429.25 300.1 C 430.46 301.38 429.98 303.02 429.15 303.75 C 428.03 304.72 426.52 304.49 425.69 303.47 C 425.27 302.95 424.93 302.04 425.28 301.02 L 416.8 292.3 C 416.64 292.14 416.55 291.89 416.55 291.59 Z M 403.58 275.98 L 405.55 275.98 L 405.55 283.45 L 408.96 283.45 C 409.4 282.48 410.3 281.96 411.17 281.96 C 412.55 281.96 413.6 283.11 413.6 284.45 C 413.6 285.69 412.68 286.95 411.1 286.95 C 410.44 286.95 409.43 286.53 408.96 285.47 L 405.55 285.47 L 405.55 293.47 L 411.56 299.65 C 412.74 299.14 414.34 299.65 414.83 301.28 C 415.25 302.98 414.01 304.5 412.38 304.43 C 411.5 304.39 410.47 303.8 410.14 302.59 C 410.02 302.11 410.05 301.58 410.19 301.14 L 403.85 294.62 C 403.71 294.47 403.58 294.26 403.58 293.86 Z M 419.37 309.54 L 419.37 302.28 L 411.88 294.6 C 410.74 295.01 409.64 294.53 409.08 293.7 C 408.29 292.54 408.54 291 409.72 290.17 C 410.81 289.45 412.18 289.74 412.92 290.68 C 413.64 291.61 413.53 292.63 413.29 293.2 L 421.34 301.41 L 421.34 309.54 Z M 403.64 309.54 L 403.64 304.22 C 403 303.94 402.21 303.12 402.21 301.99 C 402.21 300.37 403.49 299.45 404.6 299.45 C 405.93 299.45 407.05 300.51 407.05 301.94 C 407.05 302.9 406.51 303.81 405.62 304.22 L 405.62 309.54 Z" fill="#ffffff" stroke="none" pointer-events="all" style="fill: light-dark(rgb(255, 255, 255), rgb(18, 18, 18));"/></g></g><g data-cell-id="r97UvT9XQOnO8FFBTGnk-11"><g transform="translate(0.5,0.5)"><path d="M 427.62 257.94 L 437.71 235.56" fill="none" stroke="#000000" stroke-miterlimit="10" pointer-events="stroke" style="stroke: light-dark(rgb(0, 0, 0), rgb(255, 255, 255));"/><path d="M 425.46 262.73 L 425.14 254.91 L 427.62 257.94 L 431.53 257.79 Z" fill="#000000" stroke="#000000" stroke-miterlimit="10" pointer-events="all" style="fill: light-dark(rgb(0, 0, 0), rgb(255, 255, 255)); stroke: light-dark(rgb(0, 0, 0), rgb(255, 255, 255));"/><path d="M 439.86 230.77 L 440.18 238.59 L 437.71 235.56 L 433.8 235.71 Z" fill="#000000" stroke="#000000" stroke-miterlimit="10" pointer-events="all" style="fill: light-dark(rgb(0, 0, 0), rgb(255, 255, 255)); stroke: light-dark(rgb(0, 0, 0), rgb(255, 255, 255));"/></g></g><g data-cell-id="r97UvT9XQOnO8FFBTGnk-14"><g transform="translate(0.5,0.5)"><path d="M 513.63 191.55 L 500.09 191.83" fill="none" stroke="#000000" stroke-miterlimit="10" pointer-events="stroke" style="stroke: light-dark(rgb(0, 0, 0), rgb(255, 255, 255));"/><path d="M 518.88 191.43 L 511.96 195.08 L 513.63 191.55 L 511.81 188.08 Z" fill="#000000" stroke="#000000" stroke-miterlimit="10" pointer-events="all" style="fill: light-dark(rgb(0, 0, 0), rgb(255, 255, 255)); stroke: light-dark(rgb(0, 0, 0), rgb(255, 255, 255));"/><path d="M 494.84 191.94 L 501.77 188.3 L 500.09 191.83 L 501.92 195.3 Z" fill="#000000" stroke="#000000" stroke-miterlimit="10" pointer-events="all" style="fill: light-dark(rgb(0, 0, 0), rgb(255, 255, 255)); stroke: light-dark(rgb(0, 0, 0), rgb(255, 255, 255));"/></g></g><g data-cell-id="r97UvT9XQOnO8FFBTGnk-19"><g transform="translate(0.5,0.5)"><path d="M 440.01 149.83 L 434.99 137.17" fill="none" stroke="#000000" stroke-miterlimit="10" pointer-events="stroke" style="stroke: light-dark(rgb(0, 0, 0), rgb(255, 255, 255));"/><path d="M 441.94 154.71 L 436.11 149.49 L 440.01 149.83 L 442.62 146.91 Z" fill="#000000" stroke="#000000" stroke-miterlimit="10" pointer-events="all" style="fill: light-dark(rgb(0, 0, 0), rgb(255, 255, 255)); stroke: light-dark(rgb(0, 0, 0), rgb(255, 255, 255));"/><path d="M 433.06 132.29 L 438.89 137.51 L 434.99 137.17 L 432.38 140.09 Z" fill="#000000" stroke="#000000" stroke-miterlimit="10" pointer-events="all" style="fill: light-dark(rgb(0, 0, 0), rgb(255, 255, 255)); stroke: light-dark(rgb(0, 0, 0), rgb(255, 255, 255));"/></g></g><g data-cell-id="r97UvT9XQOnO8FFBTGnk-20"><g transform="translate(0.5,0.5)"><rect x="420" y="155.75" width="74" height="74" fill="none" stroke="none" pointer-events="all"/><path d="M 467.01 202.36 C 467.01 203.17 466.35 203.83 465.54 203.83 C 464.73 203.83 464.06 203.17 464.06 202.36 C 464.06 201.55 464.73 200.89 465.54 200.89 C 466.35 200.89 467.01 201.55 467.01 202.36 Z M 471.83 172.38 C 471.02 172.38 470.36 171.71 470.36 170.9 C 470.36 170.09 471.02 169.43 471.83 169.43 C 472.64 169.43 473.3 170.09 473.3 170.9 C 473.3 171.71 472.64 172.38 471.83 172.38 Z M 466.11 187.08 C 466.11 187.89 465.45 188.55 464.64 188.55 C 463.83 188.55 463.16 187.89 463.16 187.08 C 463.16 186.27 463.83 185.61 464.64 185.61 C 465.45 185.61 466.11 186.27 466.11 187.08 Z M 473.95 213.15 C 473.95 212.33 474.61 211.67 475.42 211.67 C 476.24 211.67 476.9 212.33 476.9 213.15 C 476.9 213.96 476.24 214.62 475.42 214.62 C 474.61 214.62 473.95 213.96 473.95 213.15 Z M 481.35 204.82 C 480.82 205.12 480.49 205.67 480.49 206.28 L 480.49 216.63 L 468.56 223.69 L 468.56 215.27 L 471.12 215.27 C 471.91 216.86 473.53 217.96 475.42 217.96 C 478.08 217.96 480.24 215.8 480.24 213.15 C 480.24 210.49 478.08 208.33 475.42 208.33 C 473.19 208.33 471.33 209.86 470.78 211.92 L 466.89 211.92 C 465.96 211.92 465.21 212.67 465.21 213.6 L 465.21 225.66 L 464.54 226.07 L 458.67 222.67 L 458.67 179.31 L 463.42 179.31 L 463.42 182.44 C 461.35 182.98 459.82 184.85 459.82 187.08 C 459.82 189.74 461.98 191.9 464.64 191.9 C 467.3 191.9 469.46 189.74 469.46 187.08 C 469.46 185.19 468.35 183.56 466.76 182.78 L 466.76 179.31 L 472.28 179.31 C 473.2 179.31 473.95 178.57 473.95 177.64 L 473.95 175.21 C 475.54 174.42 476.65 172.79 476.65 170.9 C 476.65 168.25 474.49 166.08 471.83 166.08 C 469.17 166.08 467.01 168.25 467.01 170.9 C 467.01 173.13 468.55 175 470.61 175.54 L 470.61 175.97 L 458.67 175.97 L 458.67 163.86 L 466.03 159.46 L 481.39 168.83 L 481.39 179.13 C 481.39 179.74 481.72 180.29 482.24 180.59 L 490.38 185.2 L 490.38 190.35 L 474.98 190.35 C 474.05 190.35 473.3 191.1 473.3 192.02 L 473.3 200.24 L 469.84 200.24 C 469.05 198.65 467.43 197.54 465.54 197.54 C 462.88 197.54 460.72 199.7 460.72 202.36 C 460.72 205.02 462.88 207.18 465.54 207.18 C 467.77 207.18 469.63 205.65 470.18 203.58 L 474.98 203.58 C 475.9 203.58 476.65 202.83 476.65 201.91 L 476.65 193.69 L 490.38 193.69 L 490.38 199.74 Z M 445.76 199.99 C 446.58 199.99 447.24 200.65 447.24 201.46 C 447.24 202.27 446.58 202.94 445.76 202.94 C 444.95 202.94 444.29 202.27 444.29 201.46 C 444.29 200.65 444.95 199.99 445.76 199.99 Z M 443.39 173.6 C 443.39 172.79 444.05 172.12 444.87 172.12 C 445.68 172.12 446.34 172.79 446.34 173.6 C 446.34 174.41 445.68 175.07 444.87 175.07 C 444.05 175.07 443.39 174.41 443.39 173.6 Z M 437.35 187.08 C 437.35 187.89 436.69 188.55 435.88 188.55 C 435.07 188.55 434.4 187.89 434.4 187.08 C 434.4 186.27 435.07 185.61 435.88 185.61 C 436.69 185.61 437.35 186.27 437.35 187.08 Z M 446.09 215.84 C 446.09 215.03 446.75 214.37 447.56 214.37 C 448.38 214.37 449.04 215.03 449.04 215.84 C 449.04 216.66 448.38 217.32 447.56 217.32 C 446.75 217.32 446.09 216.66 446.09 215.84 Z M 448.55 226.06 L 432.61 216.63 L 432.61 206.28 C 432.61 205.67 432.28 205.11 431.74 204.81 L 431.14 204.48 L 435.55 204.48 L 435.55 216.29 C 435.55 217.22 436.3 217.96 437.23 217.96 L 443.26 217.96 C 444.05 219.55 445.67 220.66 447.56 220.66 C 450.22 220.66 452.38 218.5 452.38 215.84 C 452.38 213.19 450.22 211.03 447.56 211.03 C 445.33 211.03 443.47 212.56 442.92 214.62 L 438.9 214.62 L 438.9 202.81 C 438.9 201.89 438.15 201.14 437.23 201.14 L 425.06 201.14 L 423.62 200.35 L 423.62 185.2 L 431.76 180.59 C 432.28 180.29 432.61 179.73 432.61 179.13 L 432.61 174.82 L 434.65 174.82 L 434.65 182.44 C 432.59 182.98 431.06 184.85 431.06 187.08 C 431.06 189.74 433.22 191.9 435.88 191.9 C 438.53 191.9 440.7 189.74 440.7 187.08 C 440.7 185.19 439.59 183.57 438 182.78 L 438 174.82 L 440.23 174.82 C 440.77 176.88 442.63 178.42 444.87 178.42 C 447.52 178.42 449.68 176.26 449.68 173.6 C 449.68 170.94 447.52 168.78 444.87 168.78 C 442.98 168.78 441.35 169.89 440.56 171.48 L 432.61 171.48 L 432.61 168.83 L 447.97 159.46 L 455.33 163.86 L 455.33 183.16 L 445.31 183.16 C 444.39 183.16 443.64 183.91 443.64 184.83 L 443.64 197.16 C 442.05 197.94 440.95 199.57 440.95 201.46 C 440.95 204.12 443.11 206.28 445.76 206.28 C 448.42 206.28 450.58 204.12 450.58 201.46 C 450.58 199.23 449.05 197.37 446.99 196.82 L 446.99 186.51 L 455.33 186.51 L 455.33 222.02 Z M 493.72 184.23 C 493.72 183.63 493.4 183.07 492.88 182.78 L 484.74 178.16 L 484.74 167.89 C 484.74 167.31 484.43 166.77 483.93 166.46 L 466.9 156.08 C 466.37 155.76 465.71 155.75 465.17 156.07 L 457 160.96 L 448.82 156.07 C 448.29 155.75 447.62 155.75 447.1 156.08 L 430.06 166.46 C 429.57 166.76 429.26 167.3 429.26 167.89 L 429.26 178.16 L 421.12 182.78 C 420.6 183.07 420.27 183.63 420.27 184.23 L 420.28 201.33 C 420.28 201.94 420.61 202.5 421.14 202.8 L 429.26 207.27 L 429.26 217.58 C 429.26 218.17 429.57 218.72 430.08 219.02 L 447.7 229.44 C 448.23 229.75 448.88 229.75 449.41 229.44 L 456.45 225.24 L 463.71 229.45 C 463.97 229.6 464.26 229.67 464.54 229.67 C 464.84 229.67 465.13 229.59 465.4 229.44 L 483.02 219.02 C 483.53 218.72 483.84 218.17 483.84 217.58 L 483.84 207.26 L 492.87 202.17 C 493.4 201.87 493.73 201.32 493.73 200.71 Z" fill="#e51400" stroke="none" pointer-events="all" style="fill: light-dark(rgb(229, 20, 0), rgb(255, 0, 0));"/></g></g><g data-cell-id="r97UvT9XQOnO8FFBTGnk-22"><g transform="translate(0.5,0.5)"><path d="M 368.45 192.04 L 413.91 192.4" fill="none" stroke="#000000" stroke-miterlimit="10" pointer-events="stroke" style="stroke: light-dark(rgb(0, 0, 0), rgb(255, 255, 255));"/><path d="M 363.2 191.99 L 370.23 188.55 L 368.45 192.04 L 370.17 195.55 Z" fill="#000000" stroke="#000000" stroke-miterlimit="10" pointer-events="all" style="fill: light-dark(rgb(0, 0, 0), rgb(255, 255, 255)); stroke: light-dark(rgb(0, 0, 0), rgb(255, 255, 255));"/><path d="M 419.16 192.45 L 412.13 195.89 L 413.91 192.4 L 412.18 188.89 Z" fill="#000000" stroke="#000000" stroke-miterlimit="10" pointer-events="all" style="fill: light-dark(rgb(0, 0, 0), rgb(255, 255, 255)); stroke: light-dark(rgb(0, 0, 0), rgb(255, 255, 255));"/></g></g><g data-cell-id="r97UvT9XQOnO8FFBTGnk-23"><g transform="translate(0.5,0.5)"><path d="M 348.58 181.29 C 348.53 178.59 349.33 175.97 350.8 174.04 C 352.28 172.11 354.29 171.01 356.4 171 C 361.1 171.06 364.93 175.63 365.1 181.39 C 365.28 184.04 364.57 186.67 363.14 188.65 C 361.7 190.64 359.68 191.81 357.53 191.9 C 352.77 192.01 348.81 187.31 348.58 181.29 Z M 340 206.75 C 340.19 201.72 341.84 197.04 344.55 193.84 C 346.71 191.42 349.71 191.28 351.97 193.48 C 353.26 194.56 354.68 195.43 356.18 196.07 C 357.72 196.83 359.41 196.7 360.89 195.71 C 361.7 195.26 362.42 194.63 362.99 193.84 C 363.57 193.06 364.56 192.91 365.29 193.48 C 366.58 194.46 367.74 196.2 368.65 198.51 C 369.53 201.14 369.99 203.93 370 206.74 Z" fill="#00bef2" stroke="none" pointer-events="all" style="fill: light-dark(rgb(0, 190, 242), rgb(0, 137, 182));"/></g></g></g></g></g><switch><g requiredFeatures="http://www.w3.org/TR/SVG11/feature#Extensibility"/><a transform="translate(0,-5)" xlink:href="https://www.drawio.com/doc/faq/svg-export-text-problems" target="_blank"><text text-anchor="middle" font-size="10px" x="50%" y="100%">Text is not SVG - cannot display</text></a></switch></svg>